<?xml version="1.0" encoding="utf-8"?>
<!-- Generator: Adobe Illustrator 23.0.1, SVG Export Plug-In . SVG Version: 6.00 Build 0)  -->
<svg version="1.1" xmlns="http://www.w3.org/2000/svg" xmlns:xlink="http://www.w3.org/1999/xlink" x="0px" y="0px"
	 viewBox="0 0 540 325" style="enable-background:new 0 0 540 325;" xml:space="preserve">
<style type="text/css">
	.st0{fill:url(#SVGID_1_);}
	.st1{fill:url(#SVGID_2_);}
	.st2{fill:url(#SVGID_3_);}
	.st3{fill:url(#SVGID_4_);}
	.st4{opacity:0.6;fill:#020230;}
	.st5{fill:url(#SVGID_5_);}
	.st6{fill:url(#SVGID_6_);}
	.st7{fill:url(#SVGID_7_);}
	.st8{opacity:0.4;fill:#06033E;}
	.st9{opacity:0.2;}
	.st10{fill:url(#SVGID_8_);}
	.st11{fill:#E8975B;}
	.st12{fill:url(#SVGID_9_);}
	.st13{fill:url(#SVGID_10_);}
	.st14{fill:#FFFFFF;}
	.st15{fill:url(#SVGID_11_);}
	.st16{opacity:0.6;}
	.st17{fill:#020230;}
	.st18{fill:#BA2F2F;}
	.st19{opacity:0.4;fill:url(#SVGID_12_);}
	.st20{fill:#E82B88;}
	.st21{opacity:0.6;fill:#E8975B;}
	.st22{opacity:0.8;fill:#06033E;}
	.st23{opacity:0.4;}
</style>
<g id="Ñëîé_1">
	<rect y="-0.3" width="540" height="325.3"/>
	<g>
		<linearGradient id="SVGID_1_" gradientUnits="userSpaceOnUse" x1="373.1325" y1="165.3842" x2="392.9676" y2="165.3842">
			<stop  offset="0" style="stop-color:#E39A65"/>
			<stop  offset="1" style="stop-color:#E95F8D"/>
		</linearGradient>
		<path class="st0" d="M383.1,171.2c-0.7,0-1.5-0.2-2.1-0.6l-7.1-4.1c-0.4-0.2-0.7-0.7-0.7-1.1c0-0.5,0.2-0.9,0.7-1.1l7.1-4.1
			c1.3-0.8,2.9-0.8,4.2,0l7.1,4.1c0.4,0.2,0.7,0.7,0.7,1.1c0,0.5-0.2,0.9-0.7,1.1l-7.1,4.1C384.5,171,383.8,171.2,383.1,171.2z
			 M383,160.7c-0.5,0-1.1,0.1-1.6,0.4l-7.1,4.1c-0.1,0-0.1,0.1-0.1,0.2c0,0,0,0.1,0.1,0.2l7.1,4.1c0,0,0,0,0,0c1,0.6,2.1,0.6,3.1,0
			l7.1-4.1c0.1,0,0.1-0.1,0.1-0.2c0,0,0-0.1-0.1-0.2l-7.1-4.1C384.1,160.8,383.6,160.7,383,160.7z"/>
		<linearGradient id="SVGID_2_" gradientUnits="userSpaceOnUse" x1="332.7448" y1="180.5446" x2="366.0628" y2="180.5446">
			<stop  offset="0" style="stop-color:#E39A65"/>
			<stop  offset="1" style="stop-color:#E95F8D"/>
		</linearGradient>
		<path class="st1" d="M349.4,190.2c-1.2,0-2.4-0.3-3.4-0.9l0,0l-12.3-7.1c-0.6-0.3-0.9-0.9-0.9-1.6s0.3-1.3,0.9-1.6l12.3-7.1
			c2.1-1.2,4.8-1.2,6.9,0l12.3,7.1c0.6,0.3,0.9,0.9,0.9,1.6s-0.3,1.3-0.9,1.6l-12.3,7.1C351.8,189.9,350.6,190.2,349.4,190.2z
			 M346.5,188.3c1.8,1,4,1,5.7,0l12.3-7.1c0.3-0.2,0.4-0.5,0.4-0.6c0-0.1,0-0.4-0.4-0.6l-12.3-7.1c-1.8-1-4-1-5.7,0l-12.3,7.1
			c-0.3,0.2-0.4,0.5-0.4,0.6c0,0.1,0,0.4,0.4,0.6L346.5,188.3z"/>
		<linearGradient id="SVGID_3_" gradientUnits="userSpaceOnUse" x1="147.0324" y1="160.2091" x2="180.351" y2="160.2091">
			<stop  offset="0" style="stop-color:#E39A65"/>
			<stop  offset="1" style="stop-color:#E95F8D"/>
		</linearGradient>
		<path class="st2" d="M163.7,169.8c-1.2,0-2.4-0.3-3.4-0.9l-12.3-7.1c-0.6-0.3-0.9-0.9-0.9-1.6c0-0.7,0.3-1.3,0.9-1.6l12.3-7.1
			c2.1-1.2,4.8-1.2,6.9,0l12.3,7.1c0.6,0.3,0.9,0.9,0.9,1.6c0,0.7-0.3,1.3-0.9,1.6l-12.3,7.1C166.1,169.5,164.9,169.8,163.7,169.8z
			 M163.7,151.7c-1,0-2,0.3-2.9,0.8l-12.3,7.1c-0.3,0.2-0.4,0.5-0.4,0.6c0,0.1,0,0.4,0.4,0.6l12.3,7.1l0,0c1.8,1,4,1,5.7,0l12.3-7.1
			c0.3-0.2,0.4-0.5,0.4-0.6c0-0.1,0-0.4-0.4-0.6l-12.3-7.1C165.7,152,164.7,151.7,163.7,151.7z"/>
		<linearGradient id="SVGID_4_" gradientUnits="userSpaceOnUse" x1="179.2189" y1="111.9582" x2="225.9171" y2="111.9582">
			<stop  offset="0" style="stop-color:#E39A65"/>
			<stop  offset="1" style="stop-color:#E95F8D"/>
		</linearGradient>
		<path class="st3" d="M202.6,125.4c-1.6,0-3.3-0.4-4.8-1.3l0,0l-17.4-10c-0.8-0.4-1.2-1.2-1.2-2.1c0-0.9,0.5-1.7,1.2-2.1l17.4-10
			c2.9-1.7,6.6-1.7,9.5,0l17.4,10c0.8,0.4,1.2,1.2,1.2,2.1c0,0.9-0.4,1.7-1.2,2.1l-17.4,10C205.9,124.9,204.2,125.4,202.6,125.4z
			 M198.4,123.1c2.6,1.5,5.8,1.5,8.4,0l17.4-10c0.4-0.2,0.6-0.6,0.6-1.1c0-0.5-0.2-0.9-0.6-1.1l-17.4-10c-2.6-1.5-5.8-1.5-8.4,0
			l-17.4,10c-0.4,0.2-0.6,0.6-0.6,1.1c0,0.5,0.2,0.9,0.6,1.1L198.4,123.1z"/>
		<g>
			<g>
				<g>
					<path class="st4" d="M241.7,212.6l-50.6-29.3c-2.5-1.4-2.2-3.9,0.7-5.5l108.3-62.6c2.8-1.6,7.1-1.8,9.6-0.4l50.6,29.3
						c2.5,1.4,2.2,3.9-0.7,5.5l-108.3,62.5C248.5,213.9,244.2,214.1,241.7,212.6z"/>
					<radialGradient id="SVGID_5_" cx="191.2493" cy="139.795" r="169.2596" gradientUnits="userSpaceOnUse">
						<stop  offset="0" style="stop-color:#E39A65"/>
						<stop  offset="0.2827" style="stop-color:#A92FFB"/>
						<stop  offset="0.3347" style="stop-color:#891CFB"/>
						<stop  offset="0.3984" style="stop-color:#6507FA"/>
						<stop  offset="0.5405" style="stop-color:#0D0C6F"/>
					</radialGradient>
					<path class="st5" d="M357.7,130.5L357.7,130.5l-47.8-27.6c-2.4-1.4-6.7-1.2-9.5,0.4l-107.3,62l-3.6-1.4l1,5l0,0
						c0.1,0.8,0.7,1.5,1.6,2l49.4,28.6c2.4,1.4,6.7,1.2,9.5-0.4L358.6,137c1.3-0.8,2.1-1.7,2.3-2.7l0,0l1-4.9L357.7,130.5z"/>
					<radialGradient id="SVGID_6_" cx="219.8967" cy="90.609" r="223.4308" gradientUnits="userSpaceOnUse">
						<stop  offset="0" style="stop-color:#E39A65"/>
						<stop  offset="0.4146" style="stop-color:#A92FFB"/>
						<stop  offset="0.5547" style="stop-color:#891CFB"/>
						<stop  offset="0.7262" style="stop-color:#6507FA"/>
						<stop  offset="0.7367" style="stop-color:#6308F8"/>
						<stop  offset="1" style="stop-color:#3919BB"/>
					</radialGradient>
					<path class="st6" d="M241.7,195.1l-50.6-29.3c-2.5-1.4-2.2-3.9,0.7-5.5l108.3-62.6c2.8-1.6,7.1-1.8,9.6-0.4l50.6,29.3
						c2.5,1.4,2.2,3.9-0.7,5.5l-108.3,62.6C248.5,196.3,244.2,196.5,241.7,195.1z"/>
					<radialGradient id="SVGID_7_" cx="228.5826" cy="96.4599" r="140.3563" gradientUnits="userSpaceOnUse">
						<stop  offset="0" style="stop-color:#6507FA"/>
						<stop  offset="1" style="stop-color:#3919BB"/>
					</radialGradient>
					<path class="st7" d="M241.8,191.8l-46.6-26.9c-2.4-1.4-2.1-3.8,0.7-5.4l104.3-60.3c2.8-1.6,7-1.8,9.4-0.4l47,27.2
						c2.4,1.4,2.1,3.8-0.7,5.4l-104.7,60C248.4,193,244.2,193.2,241.8,191.8z"/>
					<path class="st8" d="M241.8,191.8l-46.6-26.9c-2.4-1.4-2.1-3.8,0.7-5.4l104.3-60.3c2.8-1.6,7-1.8,9.4-0.4l47,27.2
						c2.4,1.4,2.1,3.8-0.7,5.4l-104.7,60C248.4,193,244.2,193.2,241.8,191.8z"/>
					<path class="st8" d="M328.4,109.7l-1.8,1c-1.4,0.8-1.6,2-0.3,2.7l0.9,0.5c1.2,0.7,3.3,0.6,4.8-0.2l1.8-1L328.4,109.7z"/>
					<g class="st9">
						
							<linearGradient id="SVGID_8_" gradientUnits="userSpaceOnUse" x1="7425.1445" y1="4288.7329" x2="7457.1484" y2="4288.7329" gradientTransform="matrix(-0.5031 -0.8642 -0.8642 0.5031 7713.9111 4433.4658)">
							<stop  offset="0" style="stop-color:#E39A65"/>
							<stop  offset="1" style="stop-color:#E95F8D"/>
						</linearGradient>
						<path class="st10" d="M247.2,157.3l22.2,12.9c2.7,1.5,7.4,1.3,10.5-0.5h0c3.1-1.8,3.4-4.5,0.7-6l-22.2-12.9
							c-2.7-1.5-7.4-1.3-10.5,0.5l0,0C244.9,153.1,244.6,155.8,247.2,157.3z"/>
					</g>
					<path class="st11" d="M255.6,156.5l-3.1-1.8c-0.5-0.3-0.4-0.7,0.1-1l0,0c0.5-0.3,1.3-0.3,1.8-0.1l3.1,1.8
						c0.5,0.3,0.4,0.7-0.1,1l0,0C256.8,156.7,256,156.7,255.6,156.5z"/>
					<path class="st11" d="M267.2,163.2l-8.3-4.8c-0.5-0.3-0.4-0.7,0.1-1l0,0c0.5-0.3,1.3-0.3,1.8-0.1l8.3,4.8
						c0.5,0.3,0.4,0.7-0.1,1l0,0C268.4,163.4,267.6,163.4,267.2,163.2z"/>
					<path class="st11" d="M273.5,166.8l-3-1.7c-0.5-0.3-0.4-0.7,0.1-1l0,0c0.5-0.3,1.3-0.3,1.8-0.1l3,1.7c0.5,0.3,0.4,0.7-0.1,1
						l0,0C274.7,167,273.9,167.1,273.5,166.8z"/>
					<g class="st9">
						
							<linearGradient id="SVGID_9_" gradientUnits="userSpaceOnUse" x1="7425.0708" y1="4271.1543" x2="7468.0713" y2="4271.1543" gradientTransform="matrix(-0.5031 -0.8642 -0.8642 0.5031 7713.9111 4433.4658)">
							<stop  offset="0" style="stop-color:#E39A65"/>
							<stop  offset="1" style="stop-color:#E95F8D"/>
						</linearGradient>
						<path class="st12" d="M254.3,140.6l33.1,19.3c2.7,1.5,7.4,1.3,10.5-0.5v0c3.1-1.8,3.4-4.5,0.7-6l-33.1-19.3
							c-2.7-1.5-7.4-1.3-10.5,0.5l0,0C251.9,136.3,251.6,139,254.3,140.6z"/>
					</g>
					<g>
						<path class="st11" d="M268.5,143.2c-0.5-0.3-1.3-0.3-1.8,0l-0.9,0.5c-0.5,0.3-0.5,0.7,0,1c0.5,0.3,1.3,0.3,1.8,0l0.9-0.5
							C269,143.9,269,143.5,268.5,143.2z"/>
						<path class="st11" d="M276.9,142.8c-0.5-0.3-1.3-0.3-1.8,0l-5.4,3.1c-0.5,0.3-0.5,0.7,0,1c0.5,0.3,1.3,0.3,1.8,0l5.4-3.1
							C277.4,143.5,277.4,143.1,276.9,142.8z"/>
						<path class="st11" d="M293.5,155.3c-0.5-0.3-1.3-0.3-1.8,0l-2.9,1.7c-0.5,0.3-0.5,0.7,0,1c0.5,0.3,1.3,0.3,1.8,0l2.9-1.7
							C294,156,294,155.6,293.5,155.3z"/>
						<path class="st11" d="M289.3,153.3c-0.5-0.3-1.3-0.3-1.8,0l-2.6,1.5c-0.5,0.3-0.5,0.7,0,1c0.5,0.3,1.3,0.3,1.8,0l2.6-1.5
							C289.8,154,289.8,153.6,289.3,153.3z"/>
						<path class="st11" d="M288.4,149.4c-0.5-0.3-1.3-0.3-1.8,0l-5.4,3.1c-0.5,0.3-0.5,0.7,0,1c0.5,0.3,1.3,0.3,1.8,0l5.4-3.1
							C288.9,150.2,288.9,149.7,288.4,149.4z"/>
						<path class="st11" d="M283.4,147.9c-0.5-0.3-1.3-0.3-1.8,0l-4.3,2.5c-0.5,0.3-0.5,0.7,0,1c0.5,0.3,1.3,0.3,1.8,0l4.3-2.5
							C283.9,148.6,283.9,148.2,283.4,147.9z"/>
						<path class="st11" d="M277.9,146.7c-0.5-0.3-1.3-0.3-1.8,0l-2.6,1.5c-0.5,0.3-0.5,0.7,0,1c0.5,0.3,1.3,0.3,1.8,0l2.6-1.5
							C278.4,147.4,278.4,146.9,277.9,146.7z"/>
					</g>
					<g>
						
							<linearGradient id="SVGID_10_" gradientUnits="userSpaceOnUse" x1="7445.4541" y1="4257.4546" x2="7470.2324" y2="4257.4546" gradientTransform="matrix(-0.5031 -0.8642 -0.8642 0.5031 7713.9111 4433.4658)">
							<stop  offset="0" style="stop-color:#E39A65"/>
							<stop  offset="1" style="stop-color:#E95F8D"/>
						</linearGradient>
						<path class="st13" d="M269.5,129.2l15.1,8.7c2.7,1.5,7.4,1.3,10.5-0.5l0,0c3.1-1.8,3.4-4.5,0.7-6l-15.1-8.7
							c-2.7-1.5-7.4-1.3-10.5,0.5l0,0C267.1,125,266.8,127.7,269.5,129.2z"/>
					</g>
					<path class="st14" d="M359.6,130.8l-108.3,62.5c-2.8,1.6-7.1,1.8-9.6,0.4l-50.6-29.3c-0.8-0.5-1.3-1.1-1.5-1.8
						c-0.3,1.1,0.2,2.3,1.5,3.1l50.6,29.3c2.5,1.4,6.8,1.2,9.6-0.4l108.3-62.6c1.9-1.1,2.6-2.5,2.2-3.8
						C361.6,129.2,360.9,130.1,359.6,130.8z"/>
					<g>
						<g>
							
								<linearGradient id="SVGID_11_" gradientUnits="userSpaceOnUse" x1="7445.9014" y1="4309.2456" x2="7483.6021" y2="4309.2456" gradientTransform="matrix(-0.5031 -0.8642 -0.8642 0.5031 7713.9111 4433.4658)">
								<stop  offset="0" style="stop-color:#E39A65"/>
								<stop  offset="1" style="stop-color:#E95F8D"/>
							</linearGradient>
							<path class="st15" d="M214.8,145.6l28,16.1c2.7,1.5,7.4,1.3,10.5-0.5l0,0c3.1-1.8,3.4-4.5,0.7-6l-28-16.1
								c-2.7-1.5-7.4-1.3-10.5,0.5h0C212.4,141.4,212.1,144.1,214.8,145.6z"/>
						</g>
						<g class="st16">
							<path class="st17" d="M214.8,160.9l28,16.1c2.7,1.5,7.4,1.3,10.5-0.5l0,0c3.1-1.8,3.4-4.5,0.7-6l-28-16.1
								c-2.7-1.5-7.4-1.3-10.5,0.5h0C212.4,156.7,212.1,159.4,214.8,160.9z"/>
						</g>
						<path class="st18" d="M234,151.2l-8.3-4.8c-0.5-0.3-0.4-0.7,0.1-1l0,0c0.5-0.3,1.3-0.3,1.8-0.1l8.3,4.8c0.5,0.3,0.4,0.7-0.1,1
							l0,0C235.3,151.4,234.5,151.5,234,151.2z"/>
						<path class="st18" d="M240.3,154.8l-3-1.7c-0.5-0.3-0.4-0.7,0.1-1l0,0c0.5-0.3,1.3-0.3,1.8-0.1l3,1.7c0.5,0.3,0.4,0.7-0.1,1v0
							C241.6,155.1,240.8,155.1,240.3,154.8z"/>
					</g>
					<linearGradient id="SVGID_12_" gradientUnits="userSpaceOnUse" x1="234.3502" y1="162.7367" x2="234.3502" y2="73.393">
						<stop  offset="0" style="stop-color:#E39A65"/>
						<stop  offset="3.742450e-02" style="stop-color:#D6915F"/>
						<stop  offset="0.2381" style="stop-color:#966643"/>
						<stop  offset="0.4295" style="stop-color:#60412B"/>
						<stop  offset="0.6066" style="stop-color:#372518"/>
						<stop  offset="0.7661" style="stop-color:#19110B"/>
						<stop  offset="0.9026" style="stop-color:#060403"/>
						<stop  offset="1" style="stop-color:#000000"/>
					</linearGradient>
					<path class="st19" d="M255.8,73.4h-42.8v69.5l0,0c0,1,0.6,2,1.8,2.7l28,16.1c2.7,1.5,7.4,1.3,10.5-0.5h0c1.5-0.9,2.4-2,2.5-3
						l0,0V73.4z"/>
				</g>
				<path class="st18" d="M276,127.5l-2.5-1.4c-0.5-0.3-0.4-0.7,0.1-1l0,0c0.5-0.3,1.3-0.3,1.8-0.1l2.5,1.4c0.5,0.3,0.4,0.7-0.1,1
					l0,0C277.3,127.8,276.5,127.8,276,127.5z"/>
				<path class="st18" d="M285.7,133.1l-6.5-3.8c-0.5-0.3-0.4-0.7,0.1-1l0,0c0.5-0.3,1.3-0.3,1.8-0.1l6.5,3.8c0.5,0.3,0.4,0.7-0.1,1
					l0,0C286.9,133.3,286.1,133.4,285.7,133.1z"/>
			</g>
			<g>
				<path class="st11" d="M264.8,140.2c-2.1,1.2-5.4,1.2-7.5,0c-2.1-1.2-2.1-3.1,0-4.3c2.1-1.2,5.4-1.2,7.5,0
					C266.9,137.1,266.9,139,264.8,140.2z"/>
				<path class="st18" d="M258.8,137.9l2-1.2c0.4-0.2,0.9-0.1,1.1,0.2l0.9,1.7c0.2,0.3-0.3,0.6-0.8,0.5l-2.9-0.5
					C258.6,138.5,258.4,138.1,258.8,137.9z"/>
			</g>
			<g>
				<path class="st20" d="M260.9,88.7l2.5,1.5c0.5,0.3,1.2,0.3,1.7,0c0.5-0.3,0.5-0.7,0-1l-2.5-1.5c-0.5-0.3-1.2-0.3-1.7,0
					C260.4,88,260.4,88.4,260.9,88.7z"/>
				<path class="st21" d="M257.3,90.7l7.1,4.1c0.5,0.3,1.2,0.3,1.7,0c0.5-0.3,0.5-0.7,0-1l-7.1-4.1c-0.5-0.3-1.2-0.3-1.7,0
					C256.8,90,256.8,90.5,257.3,90.7z"/>
				<path class="st21" d="M275.3,96c0.5-0.3,0.5-0.7,0-1l-7.1-4.1c-0.5-0.3-1.2-0.3-1.7,0c-0.5,0.3-0.5,0.7,0,1l7.1,4.1
					C274.1,96.3,274.9,96.3,275.3,96z"/>
				<path class="st11" d="M280.9,98.3l-0.4-0.2l-2-1.2c-0.5-0.3-1.2-0.3-1.7,0c-0.5,0.3-0.5,0.7,0,1l2,1.2l0.4,0.2l2,1.2
					c0.5,0.3,1.2,0.3,1.7,0c0.5-0.3,0.5-0.7,0-1L280.9,98.3z"/>
			</g>
			<g>
				<path class="st11" d="M294.9,191.1l10.3,5.9c0.6,0.3,1.6,0.3,2.1,0c0.6-0.3,0.6-0.9,0-1.2l-10.3-5.9c-0.6-0.3-1.6-0.3-2.1,0
					C294.3,190.2,294.3,190.7,294.9,191.1z"/>
				<path class="st21" d="M290.4,192.4c-0.6,0.3-0.6,0.9,0,1.2l15.8,9.1c0.6,0.3,1.6,0.3,2.1,0c0.6-0.3,0.6-0.9,0-1.2l-15.8-9.1
					C292,192.1,291,192.1,290.4,192.4z"/>
				<path class="st11" d="M285.9,196.3l3.2,1.8c0.6,0.3,1.6,0.3,2.1,0c0.6-0.3,0.6-0.9,0-1.2l-3.2-1.8c-0.6-0.3-1.6-0.3-2.1,0
					C285.3,195.4,285.3,195.9,285.9,196.3z"/>
				<path class="st20" d="M281.4,198.9l8.9,5.2c0.6,0.3,1.6,0.3,2.1,0c0.6-0.3,0.6-0.9,0-1.2l-8.9-5.2c-0.6-0.3-1.6-0.3-2.1,0
					C280.8,198,280.8,198.5,281.4,198.9z"/>
				<path class="st11" d="M304.1,205.5c0.6-0.3,0.6-0.9,0-1.2l-8.9-5.2c-0.6-0.3-1.6-0.3-2.1,0c-0.6,0.3-0.6,0.9,0,1.2l8.9,5.2
					C302.5,205.9,303.5,205.9,304.1,205.5z"/>
				<path class="st21" d="M311.1,208.3l-0.5-0.3l-2.5-1.5c-0.6-0.3-1.6-0.3-2.1,0c-0.6,0.3-0.6,0.9,0,1.2l2.5,1.5l0.5,0.3l2.5,1.5
					c0.6,0.3,1.6,0.3,2.1,0c0.6-0.3,0.6-0.9,0-1.2L311.1,208.3z"/>
			</g>
			<path class="st11" d="M347,126.6l-0.4-0.2l-2-1.2c-0.5-0.3-1.2-0.3-1.7,0c-0.5,0.3-0.5,0.7,0,1l2,1.2l0.4,0.2l2,1.2
				c0.5,0.3,1.2,0.3,1.7,0c0.5-0.3,0.5-0.7,0-1L347,126.6z"/>
			<g>
				<path class="st11" d="M309.1,104.6l-0.4-0.2l-2-1.2c-0.5-0.3-1.2-0.3-1.7,0c-0.5,0.3-0.5,0.7,0,1l2,1.2l0.4,0.2l2,1.2
					c0.5,0.3,1.2,0.3,1.7,0c0.5-0.3,0.5-0.7,0-1L309.1,104.6z"/>
				<path class="st11" d="M317,109.1l-0.4-0.2l-2-1.2c-0.5-0.3-1.2-0.3-1.7,0c-0.5,0.3-0.5,0.7,0,1l2,1.2l0.4,0.2l0.6,0.4
					c0.5,0.3,1.2,0.3,1.7,0c0.5-0.3,0.5-0.7,0-1L317,109.1z"/>
			</g>
			<g>
				<path class="st14" d="M303.5,121.5l4-2.3l-1-0.3l0.6-0.4c0.7,0.2,1.2,0.3,1.5,0.3l0.6,0.4l-5,2.9L303.5,121.5z"/>
				<path class="st14" d="M305.5,122.6l0.6-0.3l3.1-0.4c0,0,0.2,0,0.4,0c0.2,0,0.3,0,0.4-0.1c0.1,0,0.2,0,0.3-0.1
					c0.1,0,0.3-0.1,0.4-0.1c0.1,0,0.2-0.1,0.3-0.1c0.2-0.1,0.3-0.2,0.3-0.3c0-0.1,0-0.2-0.2-0.3c-0.3-0.2-0.7-0.1-1.3,0.2l-0.2,0.1
					l-0.8-0.5l0.2-0.1c0.2-0.1,0.5-0.2,0.7-0.3c0.2-0.1,0.5-0.1,0.7-0.1c0.2,0,0.5,0,0.7,0.1c0.2,0.1,0.5,0.1,0.7,0.3
					c0.4,0.2,0.6,0.5,0.6,0.7c0,0.3-0.2,0.5-0.6,0.7c-0.1,0.1-0.3,0.2-0.4,0.2c-0.2,0.1-0.3,0.1-0.5,0.1c-0.2,0-0.3,0.1-0.5,0.1
					c-0.1,0-0.3,0-0.5,0.1c0,0,0,0-0.1,0c0,0,0,0,0,0c0,0,0,0-0.1,0l-2.6,0.3l1.5,0.9l-0.7,0.4L305.5,122.6z"/>
				<path class="st14" d="M309.2,124.2l0.8-0.5l0.8,0.5l-0.8,0.5L309.2,124.2z M311.2,123l0.8-0.5l0.8,0.5l-0.8,0.5L311.2,123z"/>
				<path class="st14" d="M311.2,126c-0.4-0.3-0.6-0.5-0.6-0.8c0-0.3,0.3-0.5,0.7-0.8l0.2-0.1l0.8,0.5l-0.1,0.1
					c-0.2,0.1-0.4,0.3-0.5,0.4c-0.1,0.1,0,0.2,0.2,0.3c0.1,0,0.2,0.1,0.2,0.1c0.1,0,0.2,0,0.2,0c0.1,0,0.2,0,0.2-0.1
					c0.1,0,0.2-0.1,0.2-0.1c0.1,0,0.2-0.1,0.3-0.1c0.3-0.2,0.4-0.3,0.5-0.4c0.1-0.1,0-0.3-0.2-0.4c0,0,0,0-0.1,0c0,0-0.1,0-0.1,0
					l0.7-0.4c0.1,0,0.1,0.1,0.1,0.1c0.2,0.1,0.4,0.2,0.6,0.2c0.2,0,0.4-0.1,0.7-0.2c0.2-0.1,0.4-0.2,0.4-0.3c0-0.1,0-0.2-0.2-0.3
					c-0.1,0-0.1-0.1-0.2-0.1c-0.1,0-0.2,0-0.2,0c-0.1,0-0.1,0-0.2,0c-0.1,0-0.2,0.1-0.2,0.1c-0.1,0-0.2,0.1-0.2,0.1l-0.2,0.1
					l-0.9-0.5l0.2-0.1c0.4-0.2,0.9-0.4,1.3-0.4c0.5,0,0.9,0.1,1.3,0.4c0.4,0.2,0.6,0.5,0.6,0.8c0,0.3-0.2,0.5-0.6,0.8
					c-0.3,0.2-0.6,0.3-0.9,0.3c-0.3,0-0.6,0-0.9-0.1c0.1,0.2,0.2,0.3,0.1,0.5c-0.1,0.2-0.3,0.4-0.6,0.6c-0.5,0.3-0.9,0.4-1.4,0.5
					C312.1,126.4,311.6,126.3,311.2,126z"/>
				<path class="st14" d="M315.6,128.1c-0.5,0-0.9-0.1-1.4-0.3c-0.4-0.2-0.6-0.5-0.6-0.8c0-0.3,0.3-0.5,0.7-0.8l2.2-1.3
					c0.5-0.3,0.9-0.4,1.4-0.4c0.5,0,0.9,0.1,1.4,0.3c0.4,0.2,0.6,0.5,0.6,0.8c0,0.3-0.3,0.5-0.7,0.8l-2.2,1.3
					C316.5,127.9,316.1,128,315.6,128.1z M315,127.3c0.3,0.2,0.7,0.1,1.2-0.2l2.2-1.2c0.1,0,0.1-0.1,0.2-0.1c0,0,0.1-0.1,0.1-0.1
					c0.1,0,0.1-0.1,0.1-0.1c0,0,0-0.1,0-0.1c0,0,0-0.1,0-0.1c0,0-0.1-0.1-0.1-0.1c-0.1,0-0.2-0.1-0.2-0.1c-0.1,0-0.2,0-0.2,0
					c-0.1,0-0.2,0-0.2,0.1c-0.1,0-0.2,0.1-0.2,0.1c-0.1,0-0.1,0.1-0.2,0.1l-2.2,1.2C314.8,126.9,314.7,127.2,315,127.3z"/>
			</g>
		</g>
		<path class="st22" d="M330.2,112.9c-0.6,0.3-1.5,0.3-2.1,0c-0.6-0.3-0.6-0.9,0-1.2c0.6-0.3,1.5-0.3,2.1,0
			C330.8,112,330.8,112.6,330.2,112.9z"/>
	</g>
</g>
<g id="Layer_2">
	<rect y="-0.3" class="st23" width="540" height="325.3"/>
</g>
</svg>
