<svg xmlns="http://www.w3.org/2000/svg" xmlns:xlink="http://www.w3.org/1999/xlink" width="1338.598" height="830.504" viewBox="0 0 1338.598 830.504">
  <defs>
    <linearGradient id="linear-gradient" x1="0.5" y1="1" x2="0.5" y2="-0.001" gradientUnits="objectBoundingBox">
      <stop offset="0" stop-color="#c7c7c7"/>
      <stop offset="1" stop-color="#fffcfc" stop-opacity="0.122"/>
      <stop offset="1" stop-color="#c7c7c7" stop-opacity="0.102"/>
    </linearGradient>
  </defs>
  <g id="Group_16" data-name="Group 16" transform="translate(-226.594 -198.578)">
    <rect id="Rectangle_55" data-name="Rectangle 55" width="33.598" height="101.96" transform="translate(413.149 520.132)" fill="#153653"/>
    <rect id="Rectangle_56" data-name="Rectangle 56" width="33.598" height="107.866" transform="translate(1317.33 514.827)" fill="#153653"/>
    <path id="Path_238" data-name="Path 238" d="M1444.7,555.546v22.988l-268.639,2.476-2.865.053-102.1.937-2.44.035-31.033.265h-.92l-189.172,1.751L537,586.934h-.265l-78.954.743-.849.018L106.1,590.912V564.388l82.491-49.512L354.1,513.5l3.537-.018,1.167-.018,3.537-.053,79.467-.654,3.554-.018,1.132-.018,3.537-.018,25.481-.212.672-.018,62.863-.53h.513l490.525-4.138,12.007-.088h1.2l9.16-.088,66.576-.548,3.537-.053,3.271-.035h1.7l20.707-.159,4.1-.053,5.5-.035,17.241-.159,27.355-.23,3.536-.035,6.154-.035h1.149l132.109-1.132Z" transform="translate(120.494 438.17)" fill="#234767"/>
    <path id="Path_240" data-name="Path 240" d="M411.68,656.57v43.305a10.84,10.84,0,0,1-6.189,9.8,10.609,10.609,0,0,1-4.421,1.061l-61.713,1.308a10.61,10.61,0,0,1-4.774-1.008,10.822,10.822,0,0,1-6.313-9.849V656.57Z" transform="translate(150.889 248.75)" fill="#3f3d56"/>
    <path id="Path_241" data-name="Path 241" d="M411.68,656.57v43.305a10.84,10.84,0,0,1-6.189,9.8,10.609,10.609,0,0,1-4.421,1.061l-61.713,1.308a10.61,10.61,0,0,1-4.774-1.008,10.822,10.822,0,0,1-6.313-9.849V656.57Z" transform="translate(150.889 248.75)" opacity="0.1"/>
    <path id="Path_242" data-name="Path 242" d="M413.68,656.57v43.305a10.84,10.84,0,0,1-6.189,9.8,10.608,10.608,0,0,1-4.421,1.061l-61.714,1.308a10.611,10.611,0,0,1-4.774-1.008,10.822,10.822,0,0,1-6.313-9.849V656.57Z" transform="translate(152.426 248.75)" fill="#113250"/>
    <rect id="Rectangle_57" data-name="Rectangle 57" width="83.41" height="55.701" transform="translate(1243.062 905.32)" fill="#3f3d56"/>
    <rect id="Rectangle_58" data-name="Rectangle 58" width="83.41" height="55.701" transform="translate(1243.062 905.32)" opacity="0.1"/>
    <rect id="Rectangle_59" data-name="Rectangle 59" width="83.41" height="55.701" transform="translate(1239.525 905.32)" fill="#113250"/>
    <path id="Path_243" data-name="Path 243" d="M245.2,265.82v10.132l-33.6-.866V265.82Z" transform="translate(201.549 254.295)" opacity="0.1"/>
    <path id="Path_244" data-name="Path 244" d="M602.233,290.609l-40.37,290a7.6,7.6,0,0,1-7.727,6.56l-323.244-8.382-6.136-.159a7.6,7.6,0,0,1-7.356-8.612l45.321-303.581a7.6,7.6,0,0,1,8.028-6.419L595.16,281.98a7.586,7.586,0,0,1,7.073,8.629Z" transform="translate(65.656 -55.932)" fill="#234767"/>
    <path id="Path_245" data-name="Path 245" d="M190.781,99.16,156.6,366.756l297.073,9.425L490.206,118.01Z" transform="translate(159.293 126.251)" fill="#fa5959" opacity="0.6"/>
    <rect id="Rectangle_60" data-name="Rectangle 60" width="361.917" height="306.498" rx="5.33" transform="translate(719.064 221.273)" fill="#234767"/>
    <rect id="Rectangle_61" data-name="Rectangle 61" width="328.903" height="255.218" transform="translate(736.145 241.909)" fill="#fed253" opacity="0.6"/>
    <path id="Path_246" data-name="Path 246" d="M756.528,262.82v6.7l-33.6.69V262.82Z" transform="translate(594.4 251.99)" opacity="0.1"/>
    <path id="Path_247" data-name="Path 247" d="M1067.907,567.469a5.446,5.446,0,0,1-5.3,5.8l-331.025,6.843a5.446,5.446,0,0,1-5.535-4.934l-28.452-295.8a5.446,5.446,0,0,1,5.163-5.959l328.514-16.339,3.537-.177a5.429,5.429,0,0,1,5.694,4.951Z" transform="translate(434.617 -58.317)" fill="#234767"/>
    <path id="Path_248" data-name="Path 248" d="M628.93,109.568,928.956,94.82,954.3,363.6l-297.657,7.073Z" transform="translate(522.181 122.917)" fill="#8ccf4d" opacity="0.6"/>
    <path id="Path_249" data-name="Path 249" d="M922.919,567.469a5.446,5.446,0,0,1-5.3,5.8L886.28,257.08l3.537-.177a5.429,5.429,0,0,1,5.694,4.951Z" transform="translate(579.605 -58.317)" opacity="0.1"/>
    <path id="Path_250" data-name="Path 250" d="M270.8,260.009,230.891,578.8l-6.136-.159a7.6,7.6,0,0,1-7.356-8.612l45.321-303.581A7.6,7.6,0,0,1,270.8,260.009Z" transform="translate(65.656 -55.942)" opacity="0.1"/>
    <rect id="Rectangle_62" data-name="Rectangle 62" width="33.598" height="30.202" transform="translate(413.149 591.89)" opacity="0.1"/>
    <path id="Path_251" data-name="Path 251" d="M334.34,483.65v8.788l-83.41,2.228V483.65Z" transform="translate(231.766 421.652)" opacity="0.1"/>
    <path id="Path_252" data-name="Path 252" d="M613.964,488.3V785.732a7.073,7.073,0,0,1-6.808,6.985l-338.893,9.018h-.088a7.073,7.073,0,0,1-6.985-6.985V488.3a7.073,7.073,0,0,1,6.985-6.985h338.8A7.073,7.073,0,0,1,613.964,488.3Z" transform="translate(99.352 114.106)" fill="#234767"/>
    <path id="Path_253" data-name="Path 253" d="M268.263,481.32V801.735h-.088a7.073,7.073,0,0,1-6.985-6.985V488.3a7.073,7.073,0,0,1,6.985-6.985Z" transform="translate(99.352 114.106)" opacity="0.1"/>
    <path id="Path_254" data-name="Path 254" d="M194.6,319.15H508.472V581.3L194.6,588.373Z" transform="translate(188.488 295.268)" fill="#d4dfec"/>
    <rect id="Rectangle_63" data-name="Rectangle 63" width="33.598" height="30.804" transform="translate(1317.33 591.89)" opacity="0.1"/>
    <path id="Path_255" data-name="Path 255" d="M762.34,483.65v11.335l-83.41-2.228V483.65Z" transform="translate(560.595 421.652)" opacity="0.1"/>
    <path id="Path_256" data-name="Path 256" d="M1021,488.3V794.75a7.073,7.073,0,0,1-7.073,6.985h0l-338.964-9.018a7.073,7.073,0,0,1-6.808-6.985V488.3a7.073,7.073,0,0,1,6.985-6.985H1013.94A7.073,7.073,0,0,1,1021,488.3Z" transform="translate(412.017 114.106)" fill="#234767"/>
    <path id="Path_257" data-name="Path 257" d="M870.763,488.3V794.75a7.073,7.073,0,0,1-7.073,6.985h0V481.32h0a7.073,7.073,0,0,1,7.073,6.985Z" transform="translate(562.249 114.106)" opacity="0.1"/>
    <path id="Path_258" data-name="Path 258" d="M911.972,319.15H598.1V581.3l313.872,7.073Z" transform="translate(498.494 295.268)" fill="#d4dfec"/>
    <path id="Path_259" data-name="Path 259" d="M816.464,488.3V785.732a7.073,7.073,0,0,1-6.808,6.985l-338.893,9.018h0a7.073,7.073,0,0,1-7.073-6.985V488.3a7.073,7.073,0,0,1,6.985-6.985h338.8A7.073,7.073,0,0,1,816.464,488.3Z" transform="translate(254.932 114.106)" fill="#234767"/>
    <path id="Path_260" data-name="Path 260" d="M397.1,319.15H710.972V581.3L397.1,588.373Z" transform="translate(344.067 295.268)" fill="#d4dfec"/>
    <path id="Path_261" data-name="Path 261" d="M1444.7,533.65v22.988l-268.639,2.476-2.865.053-102.1.937-2.44.035-31.033.265h-.92l-189.172,1.751L537,565.037h-.265l-78.954.743-.849.018L106.1,569.016V542.491l358.1-2.352h.849l72.482-.5h.336l500.568-3.307h.513l.3-.018h.831l8.47-.053h2.582l131.72-.884,7.78-.035,1.733-.018Z" transform="translate(120.494 460.067)" opacity="0.3"/>
    <circle id="Ellipse_22" data-name="Ellipse 22" cx="90.766" cy="90.766" r="90.766" transform="translate(809.83 440.559)" fill="#fbbebe"/>
    <path id="Path_262" data-name="Path 262" d="M383.74,1014.818a2.195,2.195,0,0,1,.177-.619c1.768-6.348,4.916-17.082,7.268-25.658.3-1.061.584-2.1.849-3.094,2.6-9.672,7.657-32.324,10.468-46.453.99-4.969,1.768-8.841,1.927-10.786.354-2.988,5.676-15.773,11.706-30.468,4.226-10.327,8.841-21.609,12.219-31.122a108.526,108.526,0,0,0,5.181-17.418,9.016,9.016,0,0,0,0-3.766,25.976,25.976,0,0,1-.849-6.189h0c-.407-10.963,2.865-28.293,7.922-35.56,6.189-8.842,10.61-41.838,10.61-41.838s9.16,1.326,10.61-6.242a10.879,10.879,0,0,0,.177-2.476,13.112,13.112,0,0,0-.159-1.963c-1.574-11.034,26.029-22.776,41.555-25.3a34.761,34.761,0,0,1,5.3-.5,48.165,48.165,0,0,0,11.052-2.546q2.475-.76,5.3-1.768c6.507-2.193,14.288-5.093,22.546-8.276,31.051-12.042,68.645-28.293,68.645-28.293.265-1.255.566-2.458.9-3.643a49,49,0,0,1,28.912-33.474h0v-3.537c0-6.1-.265-12.378-.53-18.638,0-1.22-.106-2.44-.177-3.66v-2c0-1.238-.124-2.476-.194-3.7l-.318-.248a29.014,29.014,0,0,1-6.9-7.427,27,27,0,0,1-2.511-5.3c-2.21-5.995-2.723-12.679-4.208-19.009l-.318-1.309a148.553,148.553,0,0,0-7.073-18.708c-3.908-9.584-6.914-19.451-9.9-29.442q-2.723-9.071-5.5-18.178l-2.794-9.266c-.53-1.768-1.061-3.537-1.468-5.3h0a23.476,23.476,0,0,1-.46-2.476h0a17.684,17.684,0,0,1,.424-8.152,56.777,56.777,0,0,1,2.334-5.3,13.918,13.918,0,0,0,.884-2.44h0a5.32,5.32,0,0,0,.141-.566,9.989,9.989,0,0,0,.195-1.91,32.648,32.648,0,0,0-.92-6.879.123.123,0,0,1,0-.088,4.509,4.509,0,0,0-.088-.477,45.076,45.076,0,0,1-.636-5.3,50.309,50.309,0,0,1,6.136-27.532l.336-.637a44.585,44.585,0,0,1,3.254-4.916h0a24.84,24.84,0,0,1,1.768-2.157c-2.476,2.37-6.543,1.326-8.841-1.22a6.383,6.383,0,0,1-.972-1.326,6.743,6.743,0,0,1-.407-.8c-.089-.212-.159-.442-.23-.672-1.238-4.332.919-8.948,3.749-12.466a32.693,32.693,0,0,1,10.15-8.311h0a6.819,6.819,0,0,1,.707-.371,30.272,30.272,0,0,1,4.668-1.874h0a26.627,26.627,0,0,1,2.882-.778l-6.56-.6-2.652-.248a25.622,25.622,0,0,1,22.988-19.292h1.91a20.748,20.748,0,0,1,2.776.23,7.851,7.851,0,0,1-4.686-7.657,25.482,25.482,0,0,0,16.25,5.411h.672a53.063,53.063,0,0,1-.6-5.782h0a58.652,58.652,0,0,1,0-7.887,14.925,14.925,0,0,0,11.989,4l-3.678-5.128a16.781,16.781,0,0,0,11.6,3.625l.849-.088a12.383,12.383,0,0,0,2.1-.407h.159c-.336-.424-.637-.866-.937-1.326l-.106-.212a17.106,17.106,0,0,1-1.768-3.7,11.662,11.662,0,0,1-.424-1.538h0a15.472,15.472,0,0,1,.8-9.637c5.711,4.774,11.971,11.3,19.451,6.366s7.727-13.987,19.451-13.068A18.036,18.036,0,0,1,733.7,358.87a11.936,11.936,0,0,1,13.563-3.095,12.113,12.113,0,0,1,6.861,12.184c4.863-1.22,10.1-2.423,14.765-.584s7.674,7.8,5.022,11.777a2.522,2.522,0,0,1-.248.354c-2.175,2.812-6.985,4.35-6.472,7.887l.743.53,2.3,1.662q13.527,9.761,26.348,20.512c4.385,3.678,9.054,8.1,9.354,13.846a15.284,15.284,0,0,1-.424,4.191h0c-.283,1.379-.672,2.759-.973,4.138a34.5,34.5,0,0,0-.6,10.7h0c.124,1.043.283,2.069.478,3.112,2.705,13.669,13.634,24.951,14.712,38.9v.99a31.444,31.444,0,0,1-.124,4.474c-.813,8.488-4.739,16.64-7.922,24.756-.194.5-.389.99-.566,1.485-6.136,15.915-9.672,32.873-12.378,49.8a177.253,177.253,0,0,1-3.537,17.842,47.266,47.266,0,0,1-9,18.443,28.678,28.678,0,0,1-5.941,5.3,33.013,33.013,0,0,1-4.686,2.493v.106c.194,1.079.354,2.157.548,3.236.106.566.195,1.132.3,1.768h0a.243.243,0,0,0,0,.106c1.485,8.364,3.183,16.551,4.969,24.332l.9,3.873c22.28,8.046,24.915,24.526,25.074,30.839a17.04,17.04,0,0,1,0,2.529s33.6.884,46.86,10.61a35.96,35.96,0,0,0,7.975,4.067,146.738,146.738,0,0,0,16.357,5.11c2.847.743,5.818,1.468,8.841,2.175,5.3,1.22,10.928,2.4,16.357,3.537,14.482,2.918,28.116,5.3,35.03,7.073,16.5,4.173,54.234,40.352,54.234,40.352s4.421,36.5,8.841,41.82,12.378,24.031,12.378,24.031l29.248,52.005,12.378,21.874h7.957c1.1,0,3.254,1.556,5.676,3.713,2.1,1.874,4.438,4.208,6.49,6.33l3.4,3.625,2.122,2.352s12.856.318,16.339,10.486c10.468-.3,23.324.389,32.324,4.421a25.008,25.008,0,0,1,3.537,1.91,15.349,15.349,0,0,1,7.3,10.009,14.761,14.761,0,0,1,.318,2.546c0,1.008,0,2.016,0,3.006-.637,13.386-9.354,24.526-17.365,32.024l.566,1.008s-.265.637-.778,1.768c-.142.336-.318.707-.513,1.132h0c-1.043,2.228-2.706,5.57-4.88,9.478a111.958,111.958,0,0,1-16.923,23.288l-.513.531-102.1.937-.3-.354-19.8-23.624-9.849-11.741-.3-.371-.283,2.812-.955,9.372-2.3,22.652-.124,1.132v.3l-.265,2.617.194-2.617h-.513l-189.207,1.768-310.548,3.431v1.485h-.248v-1.485l-79.131.849Z" transform="translate(193.507 11.665)" opacity="0.65" fill="url(#linear-gradient)"/>
    <path id="Path_263" data-name="Path 263" d="M687.578,634.6s-175.945,21.22-159.146,0c6.083-7.674,7.763-30.415,7.427-56.32-.106-7.869-.389-16.021-.8-24.137-1.945-38.9-6.631-76.921-6.631-76.921s153.841-72.5,136.159-15.031c-7.073,23.218-4.757,55.825.619,86.434,1.574,8.93,3.4,17.683,5.3,25.994A609.445,609.445,0,0,0,687.578,634.6Z" transform="translate(303.803 82.393)" fill="#fbbebe"/>
    <path id="Path_264" data-name="Path 264" d="M687.578,577.956s-175.945,21.22-159.146,0c6.083-7.674,7.763-30.415,7.427-56.32,26.825-11.459,60.953-2.918,60.953-2.918,35.932-7.162,58.972-5.765,73.7-.743a609.445,609.445,0,0,0,17.064,59.981Z" transform="translate(303.803 139.041)" opacity="0.1"/>
    <path id="Path_265" data-name="Path 265" d="M463.584,886.551v-1.485l310.548-3.377,189.207-1.768h.531l-.194,2.617.265-2.617h.336v-.3l2.422-23.784.92-9,.283-2.812.248-2.352,10.928-36.444L990,768.836l9.2-30.645,14.04-46.824s-7.957-18.567-12.378-23.872-8.841-41.555-8.841-41.555-37.735-35.949-54.234-40.087c-6.914-1.768-20.565-4.12-35.065-7.073-5.429-1.1-11-2.263-16.357-3.537-3.024-.69-5.995-1.415-8.841-2.14a155.429,155.429,0,0,1-16.357-5.057A36.6,36.6,0,0,1,853.21,564c-13-9.531-45.569-10.61-46.824-10.61h0a.75.75,0,0,1,0-.124V553.1a18.115,18.115,0,0,0,0-2.228,14.2,14.2,0,0,0-.159-2.476,2.233,2.233,0,0,0-.124-.884c-.088-.636-.195-1.308-.354-2.016a8.791,8.791,0,0,0-.212-.937,30.433,30.433,0,0,0-2.21-6.171c-.124-.283-.283-.584-.424-.867a32.258,32.258,0,0,0-3.006-4.651c-.23-.3-.477-.619-.743-.92a34.624,34.624,0,0,0-4.81-4.668c-.477-.371-.973-.76-1.485-1.114a8.257,8.257,0,0,0-.9-.636l-1.574-1.026-1.468-.849c-1.291-.707-2.652-1.4-4.138-2.051-.46-.212-.955-.407-1.45-.6s-1.273-.5-1.927-.743h-.106l-1.326-.53c-1.008-.336-2.034-.637-3.112-.937l-1.645-.424-1.768-.407-1.768-.371c-1.768-.354-3.66-.672-5.641-.92l-2.016-.248-2.069-.212-2.14-.177-3.041-.177-3.537-.124a220.521,220.521,0,0,0-46.42,4.938,127.791,127.791,0,0,0-32.269-2.975H673l-1.768.106H670.1l-2.281.212a16.957,16.957,0,0,0-2.3.265c-.76.106-1.556.195-2.316.318l-1.167.194c-1.149.194-2.316.407-3.537.654q-.584.106-1.167.265c-1.538.336-3.077.743-4.6,1.2-.76.212-1.521.46-2.281.725-.389.106-.76.248-1.132.389l-1.132.407-1.114.442-1.326.531c-.672.283-1.326.584-1.98.9-.371.159-.743.336-1.1.53s-.725.354-1.061.548a49.071,49.071,0,0,0-10.981,7.745l-.9.866-.884.9c-.3.3-.584.619-.866.937a42.119,42.119,0,0,0-3.218,3.979c-.283.371-.548.743-.813,1.132a47.2,47.2,0,0,0-3.041,5.163c-.23.424-.442.866-.654,1.291a57.828,57.828,0,0,0-3.537,9.283q-.5,1.768-.9,3.537s-37.435,16.516-68.486,28.47c-8.258,3.183-16.038,6.065-22.546,8.24-1.892.637-3.66,1.22-5.3,1.768a47.219,47.219,0,0,1-11.052,2.546,34.77,34.77,0,0,0-5.3.5c-14.27,2.317-38.726,12.378-41.4,22.475a6.525,6.525,0,0,0-.177,2.476s0,.124,0,.194c1.768,12.378-10.61,10.61-10.61,10.61s-4.421,32.713-10.61,41.555c-4.474,6.366-7.533,20.565-7.922,31.281h0a34.675,34.675,0,0,0,.778,9.956v.248c.707,2.37-.99,8.841-3.873,17.135-3.13,9.107-7.692,20.424-12.077,31.1-6.613,16.127-12.838,30.768-13.227,33.986-.159,1.432-.619,4-1.255,7.3-2.582,13.474-8.311,39.132-11.14,49.512-2.1,7.745-5.163,18.355-7.268,25.64a2.484,2.484,0,0,1-.177.619l79.273-.778v1.485h.141Z" transform="translate(193.837 140.551)"/>
    <path id="Path_266" data-name="Path 266" d="M445.44,607.57s100.793,52.165,137.043,45.976Z" transform="translate(240.91 211.103)" opacity="0.1"/>
    <path id="Path_267" data-name="Path 267" d="M561.44,595.57s98.14,31.829,130.854,36.25S561.44,595.57,561.44,595.57Z" transform="translate(330.032 201.884)" opacity="0.1"/>
    <path id="Path_268" data-name="Path 268" d="M705.361,552.922c-51.281,9.443-147.829,7.409-189.561,5.977,15.3-54.817,89.882-36.179,89.882-36.179C698,504.293,705.078,542.524,705.361,552.922Z" transform="translate(294.967 142.113)" opacity="0.1"/>
    <path id="Path_269" data-name="Path 269" d="M705.361,550.922c-51.281,9.443-147.829,7.409-189.561,5.977,15.3-54.817,89.882-36.179,89.882-36.179C698,502.293,705.078,540.524,705.361,550.922Z" transform="translate(294.967 140.576)"/>
    <path id="Path_270" data-name="Path 270" d="M776.94,673s60.4-9.284,61.59,17.241-30.8,45.056-30.8,45.056Z" transform="translate(495.599 260.166)" fill="#fbbebe"/>
    <path id="Path_271" data-name="Path 271" d="M664.763,548.629a83.153,83.153,0,0,1-7.957,3.077c-19.062,6.578-38.284,13.209-58.354,15.614s-41.13.283-58.637-9.726a50.857,50.857,0,0,1-5.3-3.448c-1.945-38.9-6.631-76.921-6.631-76.921s153.841-72.5,136.159-15.031C657,485.413,659.388,518.02,664.763,548.629Z" transform="translate(304.248 82.393)" opacity="0.1"/>
    <path id="Path_272" data-name="Path 272" d="M586.784,374.818a16.746,16.746,0,0,1-14.712-3.094l3.678,5.11a14.978,14.978,0,0,1-11.989-3.979,60.269,60.269,0,0,0,.566,13.7,25.675,25.675,0,0,1-16.9-5.3,7.816,7.816,0,0,0,4.668,7.621,25.357,25.357,0,0,0-27.585,18.938l9.23.849a32.66,32.66,0,0,0-18.461,11.264c-2.829,3.537-4.986,8.063-3.749,12.378s7.215,7.073,10.468,4a49.406,49.406,0,0,0-10.787,40.3,25.586,25.586,0,0,1,.813,9.3c-.584,2.918-2.423,5.446-3.342,8.293-1.768,5.163-.088,10.769,1.485,15.915l8.293,27.267c3.006,9.849,5.995,19.716,9.92,29.248a145.146,145.146,0,0,1,7.073,18.585c2.228,8.558,2.316,17.93,7.073,25.41a35.244,35.244,0,0,0,12.7,11.193c17.488,10.009,38.62,12.13,58.636,9.726s39.221-9.036,58.265-15.614a54.817,54.817,0,0,0,12.1-5.305c13.174-8.629,16.109-26.277,18.567-41.82,2.741-17.329,6.4-34.623,12.891-50.927,3.855-9.708,8.841-19.557,7.993-29.955-1.079-13.81-12.007-25-14.712-38.584a33.6,33.6,0,0,1,.124-13.74,31.227,31.227,0,0,0,1.4-8.311c-.3-5.694-4.969-10.079-9.354-13.74q-14.27-11.918-29.46-22.528c-.513-3.537,4.3-5.057,6.472-7.851,3.077-3.943-.106-10.2-4.774-12.042s-9.9-.637-14.765.583a11.653,11.653,0,0,0-20.424-9.036,18.037,18.037,0,0,0-14.889-10.751c-11.724-.919-11.954,8.046-19.451,12.979s-13.687-1.574-19.451-6.313A16.41,16.41,0,0,0,586.784,374.818Z" transform="translate(288.915 14.638)" fill="#233b50"/>
    <path id="Path_273" data-name="Path 273" d="M877.048,775.108s-1.574,3.749-4.474,9.177a122.008,122.008,0,0,1-15.915,23.288l-.478.513h-2.865l-102.1.937h-2.44l-.3-.354-19.8-23.5-7.462-8.859-.3-.371-.637-.743-.354-.424-.46-.548L704.94,757l5.3-22.1,9.036-37.24.23-.9,1.768-7.073,1.255-5.3,4.208-17.294,14.429-59.5,25.64,13.262,27.037,47.744,14.518,25.64h7.957c1.5,0,4.951,2.9,8.417,6.242,1.238,1.185,2.476,2.44,3.537,3.537,3.148,3.254,5.641,6.047,5.641,6.047s12.891.283,16.357,10.433a12.358,12.358,0,0,1,.442,1.5,71.272,71.272,0,0,0,4.474,11.6c2.281,4.969,5.146,10.61,8.046,16.251,5.393,10.344,10.875,20.194,12.891,23.766l.248.442Z" transform="translate(440.282 211.111)"/>
    <path id="Path_274" data-name="Path 274" d="M937.177,666.111,937,668.64v.177l-.3,4.067-2.352,32.731L931.5,745.048l-.813,11.1-1.768,23.766v.3l-189.207,1.768-310.495,3.36v1.485h-.248v-1.981l.8-25.393,1.521-49.618,1.308-42.068.124-4.191A18.62,18.62,0,0,1,452.913,645.6c8.346.707,19.186,1.574,32.148,2.493l5.3.389c74.852,5.2,213.185,11.918,352.774,3.537,2.935-.159,5.888-.336,8.841-.548,21.644-1.362,43.27-3.112,64.684-5.3a18.62,18.62,0,0,1,20.512,19.858Z" transform="translate(228.256 240.269)" opacity="0.1"/>
    <path id="Path_275" data-name="Path 275" d="M429.08,783.736v-1.485l310.548-3.377,189.207-1.768h.531v-.3l1.768-23.766.76-10.61,2.9-39.981,2.281-31.652v-.778a18.78,18.78,0,0,0-.195-4.368.526.526,0,0,0,0-.177,18.374,18.374,0,0,0-3.537-8.2,18.638,18.638,0,0,0-16.657-7.073c-21.414,2.193-43.04,3.943-64.684,5.305-2.953.212-5.906.389-8.841.548-139.589,8.293-277.923,1.574-352.774-3.536l-5.3-.389c-12.962-.92-23.8-1.768-32.148-2.493a18.638,18.638,0,0,0-19.876,15.084,19.459,19.459,0,0,0-.318,2.9l-1.2,39.185-1.645,49.636-.778,25.393v1.981Z" transform="translate(228.341 243.366)" fill="#215380"/>
    <path id="Path_276" data-name="Path 276" d="M937.6,669.636l-2.175,27.108-3.236,40.406-.813,10.115-1.768,22.652-.106,1.132v.3h0l-.265,2.617.195-2.617h-.513l-189.207,1.768-310.6,3.36v-.5l.866-25.393,1.768-49.618,1.132-32.979a11.247,11.247,0,0,1,5.411-9.284,11.052,11.052,0,0,1,6.684-1.591c3.713.3,8.276.654,13.6,1.043,8.647.636,19.31,1.379,31.723,2.157,22.988,1.45,51.829,3.006,84.878,4.279,91.951,3.537,216.085,4.721,334-5.605,5.3-.46,10.787-.973,16.145-1.485a11.069,11.069,0,0,1,6.154,1.167,9.13,9.13,0,0,1,1.521.955,10.857,10.857,0,0,1,3.537,4.35,6.3,6.3,0,0,1,.442,1.079A11.1,11.1,0,0,1,937.6,669.636Z" transform="translate(228.364 249.141)" opacity="0.25"/>
    <path id="Path_277" data-name="Path 277" d="M413.68,677.87v5.641a10.84,10.84,0,0,1-6.189,9.8l-70.909,1.362a10.822,10.822,0,0,1-6.313-9.849v-5.3Z" transform="translate(152.426 265.114)" opacity="0.1"/>
    <path id="Path_278" data-name="Path 278" d="M338.743,522.231,246.35,524V508.668l92.393-1.768Z" transform="translate(228.247 439.515)" fill="#3f3d56"/>
    <path id="Path_279" data-name="Path 279" d="M338.743,522.231,246.35,524V508.668l92.393-1.768Z" transform="translate(228.247 439.515)" opacity="0.1"/>
    <path id="Path_280" data-name="Path 280" d="M340.743,522.231,248.35,524V508.668l92.393-1.768Z" transform="translate(229.784 439.515)" fill="#113250"/>
    <g id="Group_15" data-name="Group 15" transform="translate(797.548 375.981)" opacity="0.1">
      <path id="Path_281" data-name="Path 281" d="M554.469,364.894a17.242,17.242,0,0,1-3.342-7.674,16.781,16.781,0,0,0,.743,8.134A15.911,15.911,0,0,0,554.469,364.894Z" transform="translate(-475.594 -357.22)"/>
      <path id="Path_282" data-name="Path 282" d="M540.514,371.043a62.151,62.151,0,0,1-.654-6.543c0,2.175,0,4.368,0,6.56Z" transform="translate(-484.096 -351.627)"/>
      <path id="Path_283" data-name="Path 283" d="M621.783,408.024a32.418,32.418,0,0,1,.636-4.686,31.83,31.83,0,0,0,1.415-8.293,10.9,10.9,0,0,0-.283-1.874c-.3,1.627-.778,3.254-1.132,4.863a33.842,33.842,0,0,0-.636,9.991Z" transform="translate(-421.249 -329.6)"/>
      <path id="Path_284" data-name="Path 284" d="M600.946,374.565l1.927,1.4a34.841,34.841,0,0,0,4.545-3.926,6.49,6.49,0,0,0,.672-6.437,5.3,5.3,0,0,1-.672,1.132C605.243,369.526,600.434,371.064,600.946,374.565Z" transform="translate(-437.193 -350.782)"/>
      <path id="Path_285" data-name="Path 285" d="M519.428,380.29a21.784,21.784,0,0,0-1.538,4.032,32.113,32.113,0,0,1,8.841-3.342Z" transform="translate(-500.975 -339.495)"/>
      <path id="Path_286" data-name="Path 286" d="M534,370.355a26.236,26.236,0,0,1-3.324-2.175,7.513,7.513,0,0,0,.159,2.087,20.978,20.978,0,0,1,3.165.088Z" transform="translate(-491.163 -348.799)"/>
      <path id="Path_287" data-name="Path 287" d="M724.048,428.33c-.725,8.576-4.721,16.834-7.957,24.968-6.49,16.3-10.15,33.6-12.891,50.945-2.458,15.543-5.3,33.191-18.567,41.8a53.048,53.048,0,0,1-12.077,5.3c-19.062,6.6-38.284,13.209-58.354,15.614s-41.131.3-58.637-9.708a35.367,35.367,0,0,1-12.7-11.193c-4.721-7.48-4.81-16.852-7.073-25.41a145.387,145.387,0,0,0-7.073-18.6c-3.908-9.513-6.914-19.451-9.9-29.23q-4.155-13.633-8.293-27.285a50.946,50.946,0,0,1-2.016-8.4c-.69,4.527.654,9.266,2.016,13.7q4.138,13.669,8.293,27.285c2.988,9.849,5.995,19.716,9.9,29.23a145.376,145.376,0,0,1,7.073,18.6c2.228,8.558,2.316,17.93,7.073,25.41a35.366,35.366,0,0,0,12.7,11.193c17.506,10.008,38.62,12.113,58.637,9.708s39.221-9.018,58.354-15.614a53.045,53.045,0,0,0,12.078-5.3c13.174-8.612,16.109-26.259,18.567-41.8,2.741-17.347,6.4-34.641,12.891-50.945,3.855-9.69,8.842-19.54,7.993-29.955C724.084,428.542,724.048,428.436,724.048,428.33Z" transform="translate(-508.324 -302.587)"/>
      <path id="Path_288" data-name="Path 288" d="M511.314,431.129v-.195a24.755,24.755,0,0,0-.813-9.283,47.016,47.016,0,0,1-.69-5.871,48.367,48.367,0,0,0,.69,11.176C510.784,428.335,511.1,429.732,511.314,431.129Z" transform="translate(-507.237 -312.229)"/>
      <path id="Path_289" data-name="Path 289" d="M516.374,404.541a49.059,49.059,0,0,1,4.615-6.49c-3.236,3.095-9.213.336-10.468-3.961a10.31,10.31,0,0,0,0,5.3,7.763,7.763,0,0,0,5.853,5.146Z" transform="translate(-506.904 -328.893)"/>
    </g>
    <path id="Path_290" data-name="Path 290" d="M764.522,656.57s5.605,20.335,0,38.018S764.522,656.57,764.522,656.57Z" transform="translate(484.145 248.75)" opacity="0.1"/>
    <path id="Path_291" data-name="Path 291" d="M779,668.3s2.352,25.817-2.953,30.4S779,668.3,779,668.3Z" transform="translate(493.544 257.762)" opacity="0.1"/>
    <line id="Line_1" data-name="Line 1" y1="1.768" x2="179.676" transform="translate(390.851 654.576)" fill="none" stroke="#000" stroke-miterlimit="10" stroke-width="2"/>
    <line id="Line_2" data-name="Line 2" y1="1.751" x2="179.676" transform="translate(390.851 676.644)" fill="none" stroke="#000" stroke-miterlimit="10" stroke-width="2"/>
    <line id="Line_3" data-name="Line 3" y1="1.768" x2="179.676" transform="translate(390.851 698.695)" fill="none" stroke="#000" stroke-miterlimit="10" stroke-width="2"/>
  </g>
</svg>
