<svg xmlns="http://www.w3.org/2000/svg" xmlns:xlink="http://www.w3.org/1999/xlink" width="1276.141" height="804.506" viewBox="0 0 1276.141 804.506">
  <defs>
    <linearGradient id="linear-gradient" x1="0.5" y1="1" x2="0.5" gradientUnits="objectBoundingBox">
      <stop offset="0" stop-color="gray" stop-opacity="0.251"/>
      <stop offset="0.54" stop-color="gray" stop-opacity="0.122"/>
      <stop offset="1" stop-color="gray" stop-opacity="0.102"/>
    </linearGradient>
    <linearGradient id="linear-gradient-2" x1="-4.28" y1="0.935" x2="-4.28" y2="-0.076" xlink:href="#linear-gradient"/>
    <linearGradient id="linear-gradient-3" x1="0.5" y1="1" x2="0.5" y2="0" xlink:href="#linear-gradient"/>
  </defs>
  <g id="Group_12" data-name="Group 12" transform="translate(-219.089 -122.952)">
    <path id="Path_2" data-name="Path 2" d="M973.3,685.525s-16.171-10.671-32.2-3.092c0,0,4.934,9.513,25.224,8.605Z" transform="translate(468.143 162.333)"/>
    <path id="Path_3" data-name="Path 3" d="M969.654,684.56s4.921,18.737-7.408,31.487c0,0-7.421-7.724-.066-26.645Z" transform="translate(473.773 163.863)"/>
    <path id="Path_4" data-name="Path 4" d="M991.334,673.7s-1.2-15.934-37.184-10.658c0,0-.158,10.289,12.474,15.158S985.032,678.968,991.334,673.7Z" transform="translate(472.264 156.731)"/>
    <path id="Path_5" data-name="Path 5" d="M986.623,670.81s15.21,4.882,1.645,38.631c0,0-10.026-2.237-11.842-15.671S980.03,675.692,986.623,670.81Z" transform="translate(479.186 159.521)"/>
    <path id="Path_6" data-name="Path 6" d="M1007.914,659.313s2.066-26.224-34.71-23.526c0,0-2.631,23.684,28.224,29.842Z" transform="translate(478.263 148.4)"/>
    <path id="Path_38" data-name="Path 38" d="M1249.551,174.239V856.369c0,20.276-19.566,36.842-43.724,36.842H280.344c-24.158,0-43.724-16.5-43.724-36.842V174.239c0-20.316,19.566-41.039,43.724-41.039l925.431,2.25C1229.933,135.45,1249.551,153.989,1249.551,174.239Z" transform="translate(245.679 -10.248)" fill="#fff"/>
    <path id="Path_39" data-name="Path 39" d="M1249.551,174.45v31.579H236.62V174.45a41.25,41.25,0,0,1,41.289-41.25h930.4a41.25,41.25,0,0,1,41.237,41.25Z" transform="translate(245.679 -10.248)" fill="#234767"/>
    <circle id="Ellipse_1" data-name="Ellipse 1" cx="14.579" cy="14.579" r="14.579" transform="translate(516.798 144.781)" fill="#fa5959" opacity="0.8"/>
    <circle id="Ellipse_2" data-name="Ellipse 2" cx="14.579" cy="14.579" r="14.579" transform="translate(559.206 144.781)" fill="#fed253" opacity="0.8"/>
    <circle id="Ellipse_3" data-name="Ellipse 3" cx="14.579" cy="14.579" r="14.579" transform="translate(601.614 144.781)" fill="#8ccf4d" opacity="0.8"/>
    <g id="Group_1" data-name="Group 1" transform="translate(866.061 368.254)" opacity="0.2">
      <path id="Path_40" data-name="Path 40" d="M741.069,324.064v73.684c0,2.2-4.118,3.947-9.21,3.947H537.491c-5.079,0-9.211-1.776-9.211-3.947V324.064c0-2.2,4.105-4.434,9.211-4.434H731.858C736.964,319.617,741.069,321.854,741.069,324.064Z" transform="translate(-528.28 -319.63)"/>
    </g>
    <rect id="Rectangle_1" data-name="Rectangle 1" width="101.263" height="3.579" transform="translate(959.468 394.556)"/>
    <path id="Path_41" data-name="Path 41" d="M566.09,333.66A24.013,24.013,0,0,0,552.854,377.7v-1.592a5.461,5.461,0,0,1,4.8-5.408,9.526,9.526,0,0,0,16.71,0,5.46,5.46,0,0,1,4.8,5.408v1.7A24.013,24.013,0,0,0,566.09,333.66Zm9.421,30.447a9.513,9.513,0,0,1-18.987,0,10.421,10.421,0,0,1,5.46-13.96,3.236,3.236,0,0,1-.513-1.724,3.171,3.171,0,0,1,3.184-3.171h.224a3.171,3.171,0,0,0-2.947,3.158,3.21,3.21,0,0,0,.421,1.579h.092a3.421,3.421,0,0,1,0-.632,3.092,3.092,0,0,1,.605-1.842,3.158,3.158,0,0,1,3.026-2.237h.224a3.145,3.145,0,0,0-2.421,1.421,3.079,3.079,0,0,1,1.75-.526,3.171,3.171,0,0,1,3.171,3.171,3.209,3.209,0,0,1,0,.355,10.434,10.434,0,0,1,7.737,10.079A10.618,10.618,0,0,1,575.511,364.107Z" transform="translate(342.141 53.054)" opacity="0.2"/>
    <rect id="Rectangle_2" data-name="Rectangle 2" width="101.263" height="3.579" transform="translate(959.468 403.267)" opacity="0.2"/>
    <rect id="Rectangle_3" data-name="Rectangle 3" width="101.263" height="3.579" transform="translate(959.468 411.977)" opacity="0.2"/>
    <rect id="Rectangle_4" data-name="Rectangle 4" width="101.263" height="3.579" transform="translate(959.468 420.701)" opacity="0.2"/>
    <g id="Group_2" data-name="Group 2" transform="translate(637.89 512.556)" opacity="0.2">
      <path id="Path_42" data-name="Path 42" d="M567.659,433.734v73.684c0,2.184-4.105,3.947-9.211,3.947H364.081c-5.079,0-9.211-1.789-9.211-3.947V433.734c0-2.2,4.105-4.434,9.211-4.434H558.475C563.554,429.3,567.659,431.537,567.659,433.734Z" transform="translate(-354.87 -429.3)"/>
    </g>
    <rect id="Rectangle_5" data-name="Rectangle 5" width="101.263" height="3.579" transform="translate(731.285 538.871)"/>
    <path id="Path_43" data-name="Path 43" d="M392.685,443.33a24.013,24.013,0,0,0-13.237,44.052v-1.605a5.447,5.447,0,0,1,4.8-5.395,9.526,9.526,0,0,0,16.711,0,5.447,5.447,0,0,1,4.8,5.395v1.711a24.013,24.013,0,0,0-13.079-44.158Zm9.408,30.447a9.513,9.513,0,0,1-18.987,0,10.462,10.462,0,0,1,5.463-13.961,3.145,3.145,0,0,1-.5-1.71,3.184,3.184,0,0,1,3.171-3.184h.237a3.171,3.171,0,0,0-2.539,4.737h.105a3.182,3.182,0,0,1,0-.618,4.658,4.658,0,0,1,3.632-4.092h.118a3.184,3.184,0,0,0-2.421,1.421,3.145,3.145,0,0,1,1.737-.526,3.184,3.184,0,0,1,3.184,3.184,3.254,3.254,0,0,1,0,.355,10.421,10.421,0,0,1,6.789,14.474Z" transform="translate(287.376 87.686)" opacity="0.2"/>
    <rect id="Rectangle_6" data-name="Rectangle 6" width="101.263" height="3.579" transform="translate(731.285 547.582)" opacity="0.2"/>
    <rect id="Rectangle_7" data-name="Rectangle 7" width="101.263" height="3.579" transform="translate(731.285 556.292)" opacity="0.2"/>
    <rect id="Rectangle_8" data-name="Rectangle 8" width="101.263" height="3.579" transform="translate(731.285 565.003)" opacity="0.2"/>
    <g id="Group_3" data-name="Group 3" transform="translate(585.43 278.885)" opacity="0.2">
      <path id="Path_44" data-name="Path 44" d="M527.763,256.144v73.684c0,2.184-4.105,3.947-9.211,3.947H324.211c-5.066,0-9.211-1.789-9.211-3.947V256.144c0-2.2,4.118-4.434,9.211-4.434H518.578C523.657,251.71,527.763,253.947,527.763,256.144Z" transform="translate(-315 -251.71)"/>
    </g>
    <rect id="Rectangle_9" data-name="Rectangle 9" width="101.263" height="3.579" transform="translate(678.798 305.201)"/>
    <rect id="Rectangle_10" data-name="Rectangle 10" width="101.263" height="3.579" transform="translate(678.798 313.912)" opacity="0.2"/>
    <rect id="Rectangle_11" data-name="Rectangle 11" width="101.263" height="3.579" transform="translate(678.798 322.622)" opacity="0.2"/>
    <rect id="Rectangle_12" data-name="Rectangle 12" width="101.263" height="3.579" transform="translate(678.798 331.333)" opacity="0.2"/>
    <path id="Path_45" data-name="Path 45" d="M352.739,265.74a24.026,24.026,0,0,0-13.158,44.053v-4.066a5.461,5.461,0,0,1,4.8-5.408,9.526,9.526,0,0,0,16.71,0,5.447,5.447,0,0,1,4.8,5.408v4.158a24.013,24.013,0,0,0-13.158-44.145Zm10.526,29.316a1.619,1.619,0,0,1-.316.408,1.316,1.316,0,0,1-.7.237h-.487a9.539,9.539,0,0,1-18.671-2.711,9.4,9.4,0,0,1,1.251-4.686l-.106-.064a3.171,3.171,0,0,1,.316-4.408,6.343,6.343,0,0,1,1.974-.724,8.815,8.815,0,0,0,5-3.829,10.528,10.528,0,0,1,0,1.447,2.118,2.118,0,0,1,3.013-.105,6.057,6.057,0,0,0,.855.974,2.631,2.631,0,0,0,1.066.3l2.395.3a4.579,4.579,0,0,1,2.724.987,4.316,4.316,0,0,1,.908,1.605,24,24,0,0,1,1.566,5.066,8.118,8.118,0,0,1-.724,5.171Z" transform="translate(274.796 31.606)" opacity="0.2"/>
    <g id="Group_4" data-name="Group 4" transform="translate(919.166 627.475)" opacity="0.2">
      <path id="Path_46" data-name="Path 46" d="M781.442,521.061v73.684c0,2.2-4.105,3.947-9.211,3.947H577.85c-5.079,0-9.21-1.776-9.21-3.947V521.061c0-2.2,4.105-4.421,9.21-4.421H772.258C777.337,516.575,781.442,518.8,781.442,521.061Z" transform="translate(-568.64 -516.639)"/>
    </g>
    <rect id="Rectangle_13" data-name="Rectangle 13" width="101.263" height="3.579" transform="translate(1012.573 653.713)"/>
    <rect id="Rectangle_14" data-name="Rectangle 14" width="101.263" height="3.579" transform="translate(1012.573 662.424)" opacity="0.2"/>
    <rect id="Rectangle_15" data-name="Rectangle 15" width="101.263" height="3.579" transform="translate(1012.573 671.147)" opacity="0.2"/>
    <rect id="Rectangle_16" data-name="Rectangle 16" width="101.263" height="3.579" transform="translate(1012.573 679.858)" opacity="0.2"/>
    <path id="Path_47" data-name="Path 47" d="M606.45,530.62a24.013,24.013,0,0,0-13.237,44.039v-4.066a5.46,5.46,0,0,1,4.8-5.395,9.526,9.526,0,0,0,16.71,0,5.448,5.448,0,0,1,4.8,5.395v4.171A24.013,24.013,0,0,0,606.45,530.62Zm10.526,29.3a1.471,1.471,0,0,1-.316.421,1.315,1.315,0,0,1-.7.237h-.5a9.526,9.526,0,1,1-17.408-7.395h-.105a3.171,3.171,0,0,1,.316-4.408,6.341,6.341,0,0,1,1.974-.724,8.8,8.8,0,0,0,5-3.816,10.519,10.519,0,0,1,0,1.447,2.118,2.118,0,0,1,3.013-.105,5.44,5.44,0,0,0,.855.961,2.512,2.512,0,0,0,1.066.316l2.395.3a4.5,4.5,0,0,1,2.724.987,4.313,4.313,0,0,1,.908,1.605,23.76,23.76,0,0,1,1.566,5.066,8.079,8.079,0,0,1-.75,5.105Z" transform="translate(354.886 115.251)" opacity="0.2"/>
    <path id="Path_48" data-name="Path 48" d="M612.517,759.064l-28.868-41.855s-.539-10.368-2.434-12.789-.408-7.8-.408-7.8,2.026-2.961.276-3.237-.276-6.868-.276-6.868l-.132-10.526s1.618-10.105.276-12.526a3.947,3.947,0,0,1,.132-4.3s1.618-5.789,0-7.276-1.224-10.526-.816-17.632-2.829-11.171-2.829-12.25-10.658-11.566-10.658-12.513-6.75-4.842-10.8-5.921-6.066-1.882-5.934-2.421-6.342-2.632-6.342-2.632-5.658-.408-7.829-3.224-8.75-3.658-8.947-3.671l-.118-.566-.118-.605c.5-.855.974-1.737,1.408-2.632.132-.276.25-.539.368-.816a11.553,11.553,0,0,0,6.645-2.066,9.013,9.013,0,0,0,3.224-6.461,14.25,14.25,0,0,0-1.566-7.171c-1.184-2.421-2.921-4.934-2.329-7.566.263-1.132.947-2.132,1.316-3.237a8.552,8.552,0,0,0-.974-6.381c-1.013-1.947-2.434-3.671-3.579-5.566a21.605,21.605,0,0,1-2.842-7.895,12.16,12.16,0,0,0-1.053-4.289,8.211,8.211,0,0,0-2.368-2.395,23.684,23.684,0,0,0-14.474-4.395c-3.671.132-7.342,1.118-10.987.671a40.253,40.253,0,0,1-6.408-1.671c-4.526-1.316-9.75-1.895-13.684.7s-5.513,7.684-8.184,11.671c-2.368,3.513-5.816,6.474-7.618,10.211v-.224a12.971,12.971,0,0,0-1,2.724,19.394,19.394,0,0,0,.592,8.921,6.21,6.21,0,0,0,2.184,3.947c1.316.855,3.158.658,4.724.934-.066.25-.132.513-.184.763a30.266,30.266,0,0,0-.671,6.408A30.842,30.842,0,0,0,491.254,604.2v.816a21.537,21.537,0,0,1-.132,2.316h0s-13.566-2.789-17.2-.895-10.8,3.355-11.842,4.434-3.776.276-6.211,6.579-2.7,12.789-5.789,15.789-4.724,4.987-4.868,7.145.408,2.632-.8,3.355-2.974,3.5-2.434,4.579a3.816,3.816,0,0,1-1.487,4.039,4.487,4.487,0,0,0-1.882,4.039s-.816,2.961-2.7,3.632-3.105,5.118-3.105,5.118l-6.118,7.039-12.132-13.421a5.118,5.118,0,0,0-7.211-.368l-5.974,5.3a11.762,11.762,0,0,0-5.961,3.553,15.459,15.459,0,0,0-3.079,4.592l-3.263,2.934a8.263,8.263,0,0,0-.842,9.145L396,692.512v.079a13.592,13.592,0,0,0-7.513,3.053C376.9,705.88,376.754,715.3,378.518,719.6s16.46,20.868,16.46,20.868,8.539,11.105,20.868,17.013h0l-.092.092c-.25.263-.487.539-.724.842l-.2.263a1.872,1.872,0,0,0-.184.263l-.224.316-.171.263-.237.395-.145.25-.276.526s-.066.118-.092.171-.224.487-.329.737l-.118.276a1.473,1.473,0,0,1-.211.526l-.118.355a2.227,2.227,0,0,1-.171.526l-.118.382q-.079.276-.158.592a1.764,1.764,0,0,1-.092.355c-.026.118-.145.645-.211.974a3.288,3.288,0,0,0,0,.382,5.926,5.926,0,0,0-.118.7,1.279,1.279,0,0,1-.066.487,3.184,3.184,0,0,0-.092.671,3.322,3.322,0,0,0,0,.513v2.553c-.276,15.789.645,18.039.645,18.039A8.737,8.737,0,0,0,419.5,794.3a9.439,9.439,0,0,0,2.316-.118c7.013-1.224,23.474-4.039,29.276-2.961,3.487.645,9.947-.316,14.539-1.184l1.211-.237.842,2.632,2.632-.737,2.263,1.316,1.434.816c2.632,9.026,13.474,5.947,13.474,5.947l2.566,1.487,26.039.671a52.341,52.341,0,0,0,9.211,4.421,8.275,8.275,0,0,0,1.316.29,58.4,58.4,0,0,0,7.25.131c2,0,3.539-.131,3.539-.131s-.263-7.066-.645-14.987a212.412,212.412,0,0,0,24.118-1.974c13.908-2.447,19.737-15.092,21.842-21.842a61.709,61.709,0,0,1,1.316,8.382,61.125,61.125,0,0,0,2.158,7.263,24.272,24.272,0,0,0,2.974,5.395c10.25-3.5,4.039-8.75,1.882-11.04s1.487-4.171,1.487-4.171,2.842-1.895,2.632-3.645-.408-3.632,8.776-3.5S612.517,759.064,612.517,759.064ZM470.044,673.117c.118.776,1.395,9.066,2.553,11.25a14.342,14.342,0,0,1,.3,4.434c-5.434-.434-11.092-.671-11.092-.671a1.315,1.315,0,0,1,.289.7l-.855-.2-1.25-.3L470.017,673.1ZM450.2,704.7l9.408,1.5.789.118a33.587,33.587,0,0,0-.487,4.447c0,.132.211.3.513.5a14.135,14.135,0,0,0-.184,2.224c.158.75,4.553,2.355,9.605,3.7-.079.263-.145.526-.211.763h0c-4.461-2.342-11.474-3.434-12.289-5.171s-24.684-10.092-24.684-10.092-.882-.46-2.382-1.184l6.289,1.184,1.724-.171a94.039,94.039,0,0,0,11.908,2.171Z" transform="translate(290.228 114.254)" fill="url(#linear-gradient)"/>
    <path id="Path_49" data-name="Path 49" d="M573.617,720.071s-3.75,22.605-22.737,25.947-82.368,2.632-82.368,2.632-36.237-5.263-49.342-35.829-21.539-42.8-10.3-43.329,71.816,20.46,75.289,20.724S576.959,643.716,573.617,720.071Z" transform="translate(298.418 159.102)" fill="#234767"/>
    <path id="Path_50" data-name="Path 50" d="M573.617,720.071s-3.75,22.605-22.737,25.947-82.368,2.632-82.368,2.632-36.237-5.263-49.342-35.829-21.539-42.8-10.3-43.329,71.816,20.46,75.289,20.724S576.959,643.716,573.617,720.071Z" transform="translate(298.418 158.102)" opacity="0.05"/>
    <path id="Path_51" data-name="Path 51" d="M403.789,735.21a8.671,8.671,0,0,0,7.066,5.395,9.211,9.211,0,0,0,2.289-.132c6.947-1.2,23.263-3.947,29.013-2.934,3.461.645,9.868-.316,14.474-1.171,3.026-.566,5.263-1.105,5.263-1.105s-5.342-17.789-6.013-18.316-24.118-14.632-24.118-14.632L413.223,701h0a9.75,9.75,0,0,0-6.276,3.7c-1.961,2.368-3.645,6.25-3.75,12.618C402.868,732.987,403.789,735.21,403.789,735.21Z" transform="translate(298.259 169.055)" fill="#3f3d56"/>
    <path id="Path_52" data-name="Path 52" d="M403.784,735.21a8.671,8.671,0,0,0,7.066,5.395,75.851,75.851,0,0,1-5.026-7.342l.092-12.974a22.868,22.868,0,0,1,7.3-19.289h0s-9.763.671-10.026,16.316S403.784,735.21,403.784,735.21Z" transform="translate(298.264 169.055)" opacity="0.05"/>
    <path id="Path_53" data-name="Path 53" d="M467.316,715.229l17.25-13.5,27.145-26.75-7.355-.329c-1.105.7-4.184,2.908-4.3,5.592-.132,3.263-7.329.224-11.079,2.092s-22.066,25.316-25.25,25.171-5.75-1.632-7.079.645a1.308,1.308,0,0,1-.105.145Z" transform="translate(315.126 160.734)" opacity="0.1"/>
    <path id="Path_54" data-name="Path 54" d="M406,704.724l1.868.855c13.158,5.618,29.276,17.382,30.487,19.526.737,1.316,10.118,7,17.355,11.263,3.026-.566,5.263-1.105,5.263-1.105s-5.342-17.789-6.013-18.316-24.105-14.632-24.105-14.632L412.316,701h0A9.75,9.75,0,0,0,406,704.724Z" transform="translate(299.166 169.055)" opacity="0.1"/>
    <path id="Path_55" data-name="Path 55" d="M378.536,681.186c1.737,4.276,16.316,20.724,16.316,20.724s9.21,12.039,22.368,17.658,29.289,17.382,30.487,19.526c.776,1.316,11.224,7.658,18.579,11.987l1.658.96,3.645,2.118,1.934,1.105s4.474-3.592,8.934-7.21,8.789-7.158,8.855-7.355c.132-.408,1.868-4.947,1.46-5.263-.211-.132-1.118-1.987-2.816-4.132a18.961,18.961,0,0,0-6.8-5.632,19.316,19.316,0,0,1-8.829-9.211s-.592-.421-1.474-.987a17.9,17.9,0,0,0-6.013-2.632c-2.947-.368-8.421-6.382-8.421-6.382a16.487,16.487,0,0,1-5.263-5.487c-1.408-2.934-22.145-17.105-24.066-18.421L479.4,714.778l12.039,7.724,17.25-13.5,27.145-26.75-8.961-.395c-13.158-.579-36.618-1.474-39.579-.8a22.367,22.367,0,0,1-7.355.474s-6.684.3-11.092-2.026-11.382-3.421-12.184-5.145-24.474-10.026-24.474-10.026-32.224-17.105-43.724-6.947S376.773,676.91,378.536,681.186Z" transform="translate(290.236 154.264)" fill="#306492"/>
    <path id="Path_56" data-name="Path 56" d="M457.31,609.626l4.145,13.776,5.342,31.026,19.658,1.316,5.7-9.447,5.671-9.408s3.539-12.539,6.092-24.671c2.25-10.724,3.711-21.145,1.316-22.276-2.171-1-3.592-4.618-4.526-8.5-.118-.474-.224-.961-.316-1.447a75.687,75.687,0,0,1-1.316-9.974s-41.2-2.145-35.447,14.842a26.816,26.816,0,0,1,1.553,9.026,21.5,21.5,0,0,1-.132,2.3A19.25,19.25,0,0,1,457.31,609.626Z" transform="translate(315.369 127.666)" fill="#ee8e9e"/>
    <path id="Path_57" data-name="Path 57" d="M450.8,601.035l1.474,23.408,3.342,19.921,3.75,9.21,3.342,50.474s32.237,3.737,40.079,0a3.434,3.434,0,0,0,1.421-1.105c9.474-14.3,6.368-55.724,6.368-55.724l3.645-26.789-2.408-13.882L506,605.93l-4.487-.474s-1.013,1.237-2.461,3.171c-3.947,5.263-11.263,15.526-10.776,19.829.671,5.882-.8,11.842-3.079,12.829s-4.145,2.553-4.539.947a7.237,7.237,0,0,1-.408-4.276c.408-2.276-1.737-9.211-1.737-9.211s-3.605-8.158-3.342-11.632-.395-7.487-1.474-8.421-2.539-1.882-1.316-6.158-5.263-12.605-5.263-12.605Z" transform="translate(313.313 133.98)" fill="#e3e8f4"/>
    <path id="Path_58" data-name="Path 58" d="M483.184,663.089l1.316,39.987,7.724,4.289a3.342,3.342,0,0,0,1.421-1.118c9.474-14.3,6.368-55.724,6.368-55.724l3.605-26.75-2.408-13.882-5.816-.618c2.25-10.724,3.724-21.132,1.316-22.263-2.171-1.013-3.605-4.618-4.526-8.5h0L488,606.786s.355,2.539.474,5.171a14.645,14.645,0,0,1-.342,4.987c-.934,2.408-.263,6.684-.263,6.684-2.408,4.25-3.618,12.118-4.2,19.737C482.881,653.47,483.184,663.089,483.184,663.089Z" transform="translate(323.522 130.374)" opacity="0.1"/>
    <path id="Path_59" data-name="Path 59" d="M492.129,578s6.737.842,8.868,3.645,7.763,3.21,7.763,3.21,6.421,2.145,6.276,2.632,1.882,1.316,5.895,2.408,10.7,4.947,10.7,5.895,10.526,11.355,10.526,12.434,3.2,5.079,2.8,12.171-.8,16.039.8,17.513,0,7.224,0,7.224a3.947,3.947,0,0,0-.132,4.276c1.316,2.408-.276,12.434-.276,12.434l.145,10.434s-1.474,6.579.263,6.816-.263,3.211-.263,3.211-1.474,5.355.395,7.763,2.408,12.7,2.408,12.7l28.618,41.592s.395,7.618-8.7,7.487-8.961,1.737-8.684,3.474S557,758.934,557,758.934s-3.618,1.868-1.474,4.145,8.289,7.487-1.868,10.961a24.188,24.188,0,0,1-2.947-5.342,62.293,62.293,0,0,1-2.145-7.224s-.934-10.171-2.8-11.5-1.605-7.763-1.605-7.763,2.632-5.263-1.066-7.355-58.039-32.224-58.039-32.224l-1.316-39.987s-.934-29.552,4.684-39.474c0,0-.671-4.276.263-6.684s-.132-10.171-.132-10.171Z" transform="translate(323.695 130.213)" fill="#3f3d56"/>
    <path id="Path_60" data-name="Path 60" d="M475.2,590.593s-13.447-2.776-17.105-.908-10.7,3.342-11.763,4.421-3.75.263-6.158,6.579-2.632,12.7-5.75,15.645-4.684,4.947-4.816,7.079.408,2.632-.8,3.342-2.934,3.487-2.408,4.553,27.816,24.605,27.816,24.605,1.316,8.96,2.539,11.237-1.316,33.566-4.013,35.7,18.105,1.934,18.105,1.934.947-20.526,1.75-21.605-.539-23-.539-23-.132-18.724,1.605-23.684,1.539-21.395,1.539-21.395,1.539-9.868,3.408-12.171S475.2,590.593,475.2,590.593Z" transform="translate(305.575 133.699)" opacity="0.1"/>
    <path id="Path_61" data-name="Path 61" d="M474.893,590.28s-13.447-2.763-17.105-.895-10.7,3.342-11.763,4.408-3.75.276-6.145,6.579-2.632,12.71-5.75,15.645-4.684,4.947-4.816,7.092.395,2.632-.8,3.342-2.947,3.474-2.408,4.553,27.816,24.605,27.816,24.605,1.316,8.96,2.539,11.224-1.316,33.566-4.013,35.71,18.053,1.934,18.053,1.934.934-20.526,1.737-21.592-.539-23-.539-23-.132-18.724,1.605-23.684,1.553-21.395,1.553-21.395,1.526-9.868,3.395-12.171S474.893,590.28,474.893,590.28Z" transform="translate(305.483 133.604)" fill="#3f3d56"/>
    <path id="Path_62" data-name="Path 62" d="M462.212,584.883a26.815,26.815,0,0,1,1.553,9.026,30.632,30.632,0,0,0,35.184-13.895,75.694,75.694,0,0,1-1.316-9.974S456.462,567.9,462.212,584.883Z" transform="translate(316.743 127.672)" opacity="0.1"/>
    <path id="Path_63" data-name="Path 63" d="M446.64,572.588a30.553,30.553,0,1,0,.658-6.369,30.552,30.552,0,0,0-.658,6.369Z" transform="translate(312 118.835)" fill="#ee8e9e"/>
    <path id="Path_64" data-name="Path 64" d="M438.139,619.11l-7.355,2.276a3.789,3.789,0,0,1-1.474,3.947,4.461,4.461,0,0,0-1.868,3.947s-.8,2.947-2.632,3.618-3.066,5.079-3.066,5.079l-6.158,7.092s-2.276,1.868-1.868,2.8-2.408,1.2-2.408,1.2l1.474,23.816,12.7,2.395,7.895-.8,6.421-2.395,5.618-3.355,2.539-6.579,11.224-17.105Z" transform="translate(300.843 143.195)" fill="#3f3d56"/>
    <path id="Path_65" data-name="Path 65" d="M420.559,646.9s-16.316-23.539-28.487-10.829,4.947,33.289,8.961,32.618,23.145-1.737,23.145-1.737Z" transform="translate(293.41 147.363)" fill="#ee8e9e"/>
    <path id="Path_66" data-name="Path 66" d="M447.14,566.209a3.712,3.712,0,0,1,2.25,1.013c1.026,1.092,1.079,3.026,2.434,3.711a2.842,2.842,0,0,0,1.592.184c3.553-.513,5.605-4.526,9.026-5.632a9.211,9.211,0,0,1,5.987.513,4.552,4.552,0,0,1,1.974,1.316c1.145,1.487.342,3.658.868,5.447.737,2.487,3.7,3.474,6.276,3.789s5.461.513,7.171,2.447a6.579,6.579,0,0,1,1.316,5.171,4.131,4.131,0,0,0,0,1.921c.711,2,4.184,1.711,5.092.119.658-1.145.461-2.105,2.013-2.421a6.579,6.579,0,0,1,3.276.566,23.829,23.829,0,0,0,8.474,1.316,30.631,30.631,0,1,0-57.684-19.395Z" transform="translate(312.158 118.846)" opacity="0.1"/>
    <path id="Path_67" data-name="Path 67" d="M487.776,589.186a4.131,4.131,0,0,1,0-1.921,6.579,6.579,0,0,0-1.316-5.171c-1.711-1.934-4.605-2.118-7.171-2.447s-5.539-1.316-6.276-3.789c-.526-1.79.276-3.947-.868-5.447a4.408,4.408,0,0,0-1.974-1.316,9.211,9.211,0,0,0-5.987-.526c-3.421,1.105-5.474,5.118-9.026,5.632a2.857,2.857,0,0,1-1.592-.184c-1.316-.684-1.408-2.632-2.434-3.711-1.632-1.724-4.711-.618-6.7-1.895a6.092,6.092,0,0,1-2.158-3.947,19.172,19.172,0,0,1-.592-8.868c1.158-4.974,5.605-8.382,8.447-12.631,2.632-3.947,4.132-8.961,8.105-11.592s9.079-2.026,13.566-.7a37.96,37.96,0,0,0,6.355,1.671c3.605.447,7.237-.539,10.881-.658a23.316,23.316,0,0,1,14.368,4.368,7.893,7.893,0,0,1,2.342,2.369,11.946,11.946,0,0,1,1.053,4.263,21.632,21.632,0,0,0,2.816,7.816c1.132,1.881,2.539,3.592,3.553,5.539a8.461,8.461,0,0,1,.961,6.329c-.342,1.105-1.013,2.092-1.316,3.224-.592,2.632,1.132,5.105,2.3,7.513a14.184,14.184,0,0,1,1.566,7.132,9,9,0,0,1-3.211,6.408A11.473,11.473,0,0,1,506.7,588.7a24.119,24.119,0,0,1-8.645-1.316,6.58,6.58,0,0,0-3.263-.566c-1.566.316-1.316,1.316-2.026,2.421C491.96,590.9,488.487,591.186,487.776,589.186Z" transform="translate(310.35 114.909)" fill="#3f3d56"/>
    <path id="Path_68" data-name="Path 68" d="M467,715.855l17.25-13.5L511.4,675.6l-8.961-.395a5.842,5.842,0,0,0-1.895,3.645c-.132,3.276-7.329.237-11.079,2.105s-22.066,25.316-25.25,25.158-5.75-1.618-7.079.645l-.105.158a3.8,3.8,0,0,1-2.039,1.211Z" transform="translate(314.637 160.911)" opacity="0.1"/>
    <path id="Path_69" data-name="Path 69" d="M437.69,717.161l8.671,27.631,1.316,4.342L451.808,748l9.105-2.5,40.526-11.132a35.158,35.158,0,0,0,14.592-3.947,44.118,44.118,0,0,1,25.184-5.5c5.355.5,11.316-1.8,16.263-10.947,0,0,11.224-33.158-17.105-42.645s-29.71,5.04-29.71,5.04l-.382.237c-1.105.7-4.184,2.908-4.3,5.592-.132,3.263-7.329.224-11.079,2.092s-22.039,25.421-25.224,25.276-5.75-1.632-7.079.645a1.3,1.3,0,0,1-.105.145c-.987,1.316-3.947,1.684-5.934,1.737H454.7l-.25.079-2.053.605Z" transform="translate(309.174 158.67)" fill="#306492"/>
    <path id="Path_70" data-name="Path 70" d="M439.4,668.721l4.171.671,1.737-17.25s-1.908-.289-4.3-.842C441.637,653.695,440.189,663.01,439.4,668.721Z" transform="translate(309.713 153.36)" opacity="0.1"/>
    <path id="Path_71" data-name="Path 71" d="M548.6,603.38s12.434-3.605,9.368,31.7-26.079,57.631-26.079,57.631-26.487,11.632-38.382,9.763-20.566-2.276-20.566-2.276a30.434,30.434,0,0,0-12.039-3.211c-6.684-.263-20.724-4.408-21.053-5.75s3.487-20.987,1.882-22.46c0,0,18.724.763,20.592,2.118s4.539.382,6.579,0,8.158-5.724,20.329-1.053c0,0,4.145.408,5.75-.671a5.763,5.763,0,0,1,4.184-.263,11.5,11.5,0,0,0,2.895-1.474c.408-.526,3.618,0,3.618,0a1.421,1.421,0,0,0,2-.934,8.762,8.762,0,0,1,1.868-2.934s3.618-20.329,10.434-27.947a4.368,4.368,0,0,0,1.474-3.882C520.92,629.591,532.552,599.064,548.6,603.38Z" transform="translate(309.851 138.096)" opacity="0.1"/>
    <path id="Path_72" data-name="Path 72" d="M448.85,702.208l17.658,21.382.118-.132c.132-.395,1.868-4.947,1.461-5.263s-3.474-6.96-9.632-9.763a18.329,18.329,0,0,1-7.553-6.882Z" transform="translate(312.698 169.228)" opacity="0.1"/>
    <path id="Path_73" data-name="Path 73" d="M449.091,735.836l1.934,1.105s4.474-3.592,8.934-7.21,8.789-7.158,8.855-7.355c.132-.408,1.868-4.947,1.461-5.263-.211-.132-1.118-1.987-2.816-4.132-11.974-3.355-4.342,4.961-3.329,5.342,0,0-14.579-3.342-15.382,12.526A18.946,18.946,0,0,0,449.091,735.836Z" transform="translate(312.654 172.587)" opacity="0.1"/>
    <path id="Path_74" data-name="Path 74" d="M463.589,742.551l2.553,1.474,25.8.671a52.117,52.117,0,0,0,9.132,4.395,8.476,8.476,0,0,0,1.316.289,60.181,60.181,0,0,0,7.2.131c1.974,0,3.5-.131,3.5-.131s-1.224-32.553-2.145-35.974c-.434-1.645-2.632-1.316-4.737-.46a30.519,30.519,0,0,0-4.618,2.342s-10.961,1.053-12.711,2-6.684-.539-9.763,0-8.553-3.618-8.553-3.618c-14.974-4.947-6.579,4.276-5.487,4.684,0,0-14.566-3.342-15.368,12.526S463.589,742.551,463.589,742.551Z" transform="translate(312.958 172.596)" fill="#3f3d56"/>
    <path id="Path_75" data-name="Path 75" d="M488.613,729.979c.276,6.737,5.526,15.105,8.671,19.526,1.974,0,3.5-.132,3.5-.132s-1.224-32.553-2.145-35.974c-.434-1.645-2.632-1.316-4.737-.46C491.31,717.8,488.389,724.545,488.613,729.979Z" transform="translate(325.25 172.602)" fill="#565387"/>
    <path id="Path_76" data-name="Path 76" d="M488.613,729.979c.276,6.737,5.526,15.105,8.671,19.526,1.974,0,3.5-.132,3.5-.132s-1.224-32.553-2.145-35.974c-.434-1.645-2.632-1.316-4.737-.46C491.31,717.8,488.389,724.545,488.613,729.979Z" transform="translate(325.25 172.602)" opacity="0.1"/>
    <path id="Path_77" data-name="Path 77" d="M485.365,730.874c1.776,6.5,1.75,13.8,4.579,18.211a8.469,8.469,0,0,0,1.316.289,60.169,60.169,0,0,0,7.2.132c1.974,0,3.5-.132,3.5-.132s-1.224-32.553-2.145-35.974c-.434-1.645-2.632-1.316-4.737-.46a30.531,30.531,0,0,0-4.618,2.342S483.088,722.545,485.365,730.874Z" transform="translate(324.091 172.602)" opacity="0.05"/>
    <path id="Path_78" data-name="Path 78" d="M417.59,676.26s12.816,4.158,23.684,18.934Z" transform="translate(302.826 161.242)" opacity="0.1"/>
    <g id="Group_5" data-name="Group 5" transform="translate(751.789 667.91)" opacity="0.1">
      <path id="Path_79" data-name="Path 79" d="M496.886,554.3l-.079.289a9,9,0,0,1-.447,1.118,7.891,7.891,0,0,1,.526-1.408Z" transform="translate(-424.088 -545.182)"/>
      <path id="Path_80" data-name="Path 80" d="M441.705,550a12.027,12.027,0,0,1,.987-2.632c-.066.224-.132.461-.184.7a19.186,19.186,0,0,0,.592,8.868,6.092,6.092,0,0,0,2.158,3.947c1.987,1.316,5.066.171,6.684,1.882,1.039,1.092,1.092,3.039,2.434,3.711a2.631,2.631,0,0,0,1.605.184c3.553-.5,5.605-4.513,9.026-5.618a9.027,9.027,0,0,1,5.974.513,4.408,4.408,0,0,1,1.987,1.316c1.145,1.474.342,3.658.868,5.447.737,2.474,3.7,3.461,6.263,3.789s5.461.5,7.184,2.447a6.474,6.474,0,0,1,1.316,5.171,4.25,4.25,0,0,0,0,1.908c.711,2.013,4.184,1.711,5.092.132.658-1.158.461-2.105,2.013-2.434a6.71,6.71,0,0,1,3.276.566,24.092,24.092,0,0,0,8.645,1.316,11.659,11.659,0,0,0,6.776-2.053,8.094,8.094,0,0,0,2.079-2.539,8.553,8.553,0,0,1-2.882,4.54,11.473,11.473,0,0,1-6.776,2.053,24.081,24.081,0,0,1-8.645-1.316,6.58,6.58,0,0,0-3.276-.566c-1.553.316-1.316,1.316-2.013,2.421-.908,1.592-4.382,1.882-5.092-.118a4.3,4.3,0,0,1,0-1.921,6.474,6.474,0,0,0-1.316-5.171c-1.724-1.934-4.605-2.118-7.184-2.447s-5.526-1.316-6.263-3.789c-.526-1.789.276-3.947-.868-5.447a4.408,4.408,0,0,0-1.974-1.316,9.211,9.211,0,0,0-5.987-.526c-3.421,1.105-5.474,5.118-9.026,5.632a2.9,2.9,0,0,1-1.605-.184c-1.316-.684-1.395-2.632-2.434-3.711-1.618-1.724-4.7-.618-6.684-1.895a6.092,6.092,0,0,1-2.158-3.947A19.171,19.171,0,0,1,441.705,550Z" transform="translate(-441.433 -547.37)"/>
    </g>
    <path id="Path_81" data-name="Path 81" d="M500.9,632.259c-2.447,3.3-5.263,6.368-7.408,9.868a18.724,18.724,0,0,0-3.25,11.671c2.237-2.3,3.263-5.487,4.684-8.368,2.395-4.895,5.974-9.039,8.987-13.526.579-.855,4.276-5.816,2.408-6.053C504.777,625.654,501.777,631.128,500.9,632.259Z" transform="translate(325.757 145.322)" opacity="0.1"/>
    <path id="Path_82" data-name="Path 82" d="M482.06,589.947l26.8,50.684c.8,1.5-1.382,4.224-4.868,6.079L370.218,717.46c-3.487,1.842-6.974,2.118-7.763.605l-26.8-50.671c-.8-1.513,1.211-4.553,4.7-6.395l133.776-70.75C477.625,588.395,481.27,588.434,482.06,589.947Z" transform="translate(276.896 133.634)" fill="#fff"/>
    <path id="Path_83" data-name="Path 83" d="M482.06,589.947l26.8,50.684c.8,1.5-1.382,4.224-4.868,6.079L370.218,717.46c-3.487,1.842-6.974,2.118-7.763.605l-26.8-50.671c-.8-1.513,1.211-4.553,4.7-6.395l133.776-70.75C477.625,588.395,481.27,588.434,482.06,589.947Z" transform="translate(276.896 133.634)" fill="#cf555b" opacity="0.5"/>
    <rect id="Rectangle_17" data-name="Rectangle 17" width="78.829" height="2.776" transform="translate(684.73 782.165) rotate(-27.87)"/>
    <rect id="Rectangle_18" data-name="Rectangle 18" width="78.829" height="2.776" transform="translate(687.904 788.171) rotate(-27.87)" opacity="0.2"/>
    <rect id="Rectangle_19" data-name="Rectangle 19" width="78.829" height="2.776" transform="translate(691.071 794.152) rotate(-27.87)" opacity="0.2"/>
    <rect id="Rectangle_20" data-name="Rectangle 20" width="78.829" height="2.776" transform="translate(694.245 800.158) rotate(-27.87)" opacity="0.2"/>
    <path id="Path_84" data-name="Path 84" d="M363.92,644.743a18.684,18.684,0,0,0,6.921,35.118l-1.474-2.789a4.25,4.25,0,0,1,1.316-5.474,7.408,7.408,0,0,0,11.5-6.079,4.263,4.263,0,0,1,5.263,1.974l1.513,2.868a18.684,18.684,0,0,0-25.066-25.618Zm17.934,16.329a1,1,0,0,1-.066.395,1.107,1.107,0,0,1-.395.421l-.329.184a7.421,7.421,0,1,1-14.684,1.316h-.092a2.487,2.487,0,0,1-1.382-3.158A4.75,4.75,0,0,1,366,659.019a6.855,6.855,0,0,0,2.053-4.447,7.89,7.89,0,0,1,.487,1.013,1.658,1.658,0,0,1,2.026-1.171,5.557,5.557,0,0,0,.947.355,2.159,2.159,0,0,0,.855-.171l1.75-.671a2.631,2.631,0,0,1,3.447.474,19.081,19.081,0,0,1,2.921,2.908,6.3,6.3,0,0,1,1.368,3.763Z" transform="translate(282.733 150.602)" opacity="0.2"/>
    <path id="Path_85" data-name="Path 85" d="M404.66,649.151c-.132,17.645,36.381,21.395,36.381,21.395l9.329,1.474,4.171.671,1.737-17.25s-1.908-.29-4.3-.842c-3.526-.829-8.105-2.25-9.066-4.25C441.3,647.006,404.792,631.493,404.66,649.151Z" transform="translate(298.743 150.062)" fill="#ee8e9e"/>
    <path id="Path_86" data-name="Path 86" d="M548.361,601.317s12.434-3.605,9.368,31.7-26.079,57.631-26.079,57.631-26.487,11.632-38.382,9.763-20.592-2.276-20.592-2.276a30.434,30.434,0,0,0-12.039-3.211c-6.684-.263-20.724-4.408-21.053-5.75s3.487-21.052,1.882-22.46c0,0,18.724.763,20.592,2.118s4.539.382,6.579,0,8.158-5.737,20.329-1.053c0,0,4.145.408,5.75-.671a5.763,5.763,0,0,1,4.184-.263,11.5,11.5,0,0,0,2.895-1.474c.408-.526,3.618,0,3.618,0a1.408,1.408,0,0,0,2-.934,8.893,8.893,0,0,1,1.868-2.947s3.618-20.316,10.434-27.947a4.329,4.329,0,0,0,1.474-3.868C520.677,627.527,532.321,597.08,548.361,601.317Z" transform="translate(309.765 137.449)" fill="#3f3d56"/>
    <path id="Path_87" data-name="Path 87" d="M965.842,270.4v73.684c0,2.2-4.105,3.947-9.211,3.947H762.211c-5.079,0-9.21-1.776-9.21-3.947V270.4c0-2.2,4.105-4.434,9.21-4.434H956.657C961.736,266.009,965.842,268.207,965.842,270.4Z" transform="translate(408.744 31.679)" fill="#fff"/>
    <g id="Group_7" data-name="Group 7" transform="translate(1139.007 311.056)" opacity="0.1">
      <path id="Path_88" data-name="Path 88" d="M948.522,280.594v73.684c0,2.184-4.118,3.947-9.211,3.947H744.93c-5.079,0-9.21-1.789-9.21-3.947V280.594c0-2.2,4.105-4.434,9.21-4.434H939.338C944.4,276.16,948.522,278.4,948.522,280.594Z" transform="translate(-735.72 -276.16)"/>
    </g>
    <path id="Path_89" data-name="Path 89" d="M965.842,270.4v73.684c0,2.2-4.105,3.947-9.211,3.947H762.211c-5.079,0-9.21-1.776-9.21-3.947V270.4c0-2.2,4.105-4.434,9.21-4.434H956.657C961.736,266.009,965.842,268.207,965.842,270.4Z" transform="translate(408.744 31.679)" fill="#fff"/>
    <g id="Group_8" data-name="Group 8" transform="translate(1161.744 297.649)" opacity="0.61">
      <path id="Path_90" data-name="Path 90" d="M965.842,270.4v73.684c0,2.2-4.105,3.947-9.211,3.947H762.211c-5.079,0-9.21-1.776-9.21-3.947V270.4c0-2.2,4.105-4.434,9.21-4.434H956.657C961.736,266.009,965.842,268.207,965.842,270.4Z" transform="translate(-753 -265.97)" fill="#d2b656"/>
    </g>
    <rect id="Rectangle_21" data-name="Rectangle 21" width="101.263" height="3.579" transform="translate(1255.191 323.964)"/>
    <rect id="Rectangle_22" data-name="Rectangle 22" width="101.263" height="3.579" transform="translate(1255.191 332.675)" opacity="0.2"/>
    <rect id="Rectangle_23" data-name="Rectangle 23" width="101.263" height="3.579" transform="translate(1255.191 341.385)" opacity="0.2"/>
    <rect id="Rectangle_24" data-name="Rectangle 24" width="101.263" height="3.579" transform="translate(1255.191 350.096)" opacity="0.2"/>
    <path id="Path_91" data-name="Path 91" d="M790.865,280a24.013,24.013,0,0,0-13.276,44.052v-4.066a5.474,5.474,0,0,1,4.8-5.408,9.526,9.526,0,0,0,16.71,0,5.474,5.474,0,0,1,4.8,5.408v4.171A24.013,24.013,0,0,0,790.865,280Zm10.526,29.3a1.039,1.039,0,0,1-1.013.645,3.02,3.02,0,0,1-.487,0,9.526,9.526,0,0,1-18.658-2.711,9.422,9.422,0,0,1,1.237-4.684l-.105-.066a3.184,3.184,0,0,1,.316-4.408,6.462,6.462,0,0,1,1.974-.724,8.75,8.75,0,0,0,5-3.816,8.952,8.952,0,0,1,0,1.447,2.118,2.118,0,0,1,3.013-.105c.3.3.5.724.868.961a2.276,2.276,0,0,0,1.066.3l2.382.316a3.368,3.368,0,0,1,3.631,2.632,23.039,23.039,0,0,1,1.566,5.066,8,8,0,0,1-.763,5.158Z" transform="translate(413.103 36.109)" opacity="0.2"/>
    <path id="Path_92" data-name="Path 92" d="M1032.34,861.645c-1.816-6.579-3-12.342-3-12.342s.079-7.224-3.368-12.513l-.066-1.8h0l-.526-13.368a45.049,45.049,0,0,1,3.105-7.105c2.237-4.276-.75-19.539-.75-19.539s-9.737-21.3-8.092-35.105-20.618-60.25-20.618-60.25a60.529,60.529,0,0,1,1.408-13.526,10.768,10.768,0,0,0,.145-2.842,2.963,2.963,0,0,0,0-.342v.105c-.658-9.039-8.46-25.724-8.46-25.724l-.289-32.381s3.842-19.25-4.605-44.552c-2.947-8.829-4.882-15.921-6.145-21.395-.145-.618-.289-1.211-.408-1.789,15.25-2.921,26.881-5.263,26.881-5.263s-10.316-36.842-16.579-43.158-11.842-26.566-11.842-26.566-4.132-26.171.618-34.039,4.934-21.263,4.934-21.263,11.21-8.829,12.513-12.605,3.382-12.25,3.211-16.658-1.763-8.329-1.316-10.671-3.8-11.039-2.039-15.3a11.346,11.346,0,0,0,.618-4.066v-.171a56.754,56.754,0,0,0-1.434-10.868,30.973,30.973,0,0,0-11.658-5.671l-.29-.987-.75-2.632c-.395-.237-.776-.447-1.158-.632v-.947l-.25-3.776,1.474-8.566c2.987-14.908-16.816-16.355-16.816-16.355a10.288,10.288,0,0,0-5.763-4.671c-4.026-1.316.184,22.25,2.105,23.684,1.434,1.079,6.026,8.316,8.237,11.842h0l.368.579a8.967,8.967,0,0,0-.868.987l.947,5.092.145.789a20.628,20.628,0,0,0-2.934,5.474s3.75,3.816,3.2,8.263,1.487,9.895,1.592,10.184c-.224-.237-2.868-2.882-5.368-2.105s-9.513,3.158-9.513,3.158-5.263,1.132-4.724,2.276-3.355,6.421-3.355,6.421l-14.737-12.921c-.158-.395-.316-.789-.461-1.2a33.731,33.731,0,0,1-1.46-5.855,32.007,32.007,0,0,0,4.487-1.618,9.828,9.828,0,0,0,3.842-2.632c1.316-1.75,1.552-4.079,2.052-6.211.961-4.184,3.237-7.961,4.816-11.961a38.25,38.25,0,0,0,1.934-21.131,14.027,14.027,0,0,0-2.421-6.092c-2.447-3.105-6.7-4.25-9.855-6.671s-5.263-6.237-8.921-8.013c-3.289-1.605-7.21-1.316-10.816-.513a57.724,57.724,0,0,0-19.868,8.092c-2.013,1.316-4.237,2.816-6.579,2.474-2.053-.289-3.605-1.868-4.987-3.382a1.088,1.088,0,0,1,0-.2l-.171-.171a25.119,25.119,0,0,0-1.789,10.711,7.381,7.381,0,0,0,.131,1.7v.592a3.179,3.179,0,0,1,0,.5h0a3.012,3.012,0,0,1-.079.763,5.474,5.474,0,0,1-1.316,1.96,11.839,11.839,0,0,0-1.105,1.632,2.014,2.014,0,0,1,.171-.592,8.315,8.315,0,0,0-1.316,4.539,4.474,4.474,0,0,0,1.184,3.171,15.463,15.463,0,0,0,2.395,1.776,25.694,25.694,0,0,0-.25,4.737,27.513,27.513,0,0,0,14.289,22.934c.184.395.355.789.539,1.2,2,4.711,3.579,10.224,3.171,15.395a8.055,8.055,0,0,1-.132,1.132c-.053.368-.342.408-.487.618h0s-23.46,1.132-29.171-3.658-13.474,12.75-13.474,12.75-8.342,1.961-10.092.395-11.553.211-11.553.211a21.158,21.158,0,0,0-14.855-4.789,43.537,43.537,0,0,0-11-5.566h0l-.276-.079h0a12.079,12.079,0,0,0-5.263-.474s-11.908-9.092-15.474-14.079-20.316-23.355-20.395-23.447l-.092-.908-.289-2.763a9.925,9.925,0,0,1-1.434.184l-.355-.947a50.655,50.655,0,0,0-3.711-7.684s-.131-3.5.855-4.408-.947-13.658-.947-13.658-11.329-23.908-19.947-5.395c0,0-17.105,12.421-1.855,25.513,0,0,6.013,2.632,6.934,4.868.605,1.447,2.763,5.474,4.211,8.145.237.447.46.842.645,1.2l-.158.145.3,2.276.118.882c-2.71,1.684-4.539,3.329-4.039,4.5a25.43,25.43,0,0,1,1.921,6.211s21.421,24.8,24.487,35.645c0,0,56.052,30.46,74.171,32.092l-2.369,16.368a129.776,129.776,0,0,0-.211,13.289c.369,3.487-1.421,19.395-1.421,19.395s-2.237,23.381-4.75,26.75-1.513,17.289-1.513,17.289a117.563,117.563,0,0,1-2.842,19.921c-2.3,8.934,0,19.8,0,19.8s-8.329,21.289,13,6.25c0,0,10.711-1.079,23.053-1.974V569.2c0,1.592.079,3.316.132,5.132.289,12,.855,28.526,1.882,41.013,1.829,22.066,10.237,65.487,10.237,65.487l.842,21.974a30.184,30.184,0,0,0-.381,6.3,40.789,40.789,0,0,0,6.71,21.829L897,745.514s4.316,9.513,4.618,15.276a7.911,7.911,0,0,1-.119,1.408,9.738,9.738,0,0,0-.105,2.25c0,6.658,4.658,22.434,4.658,22.434s.855,16.039,3.289,16.882c2.092.71-2.382,9.355-3.724,11.842a4.716,4.716,0,0,1-.105-.461c-.171.329-.276.5-.276.5a11.435,11.435,0,0,0-.592,4.092,5.816,5.816,0,0,0,2.882,5.539c4.671,2.632,7.21,4.842,3.381,5.921a40.817,40.817,0,0,0-4.21,1.066c0-.184-.158-.368-.224-.539A2.632,2.632,0,0,0,905,834.593a12.1,12.1,0,0,0,1.645,5.395c4.184,8.46,6.974,11.618,6.974,11.618l1.829-.276a9.576,9.576,0,0,1-.987,2.026,7.8,7.8,0,0,1-2.631,2.513,8.3,8.3,0,0,1-3.237,1.316,9.211,9.211,0,0,0-6.684,3.579c-2.276,3.184-3.619,7.474,1.316,11l17.421,5.263s29.71,2.711,27.881-3.868-3-12.342-3-12.342a26.317,26.317,0,0,0-2.855-11.671,14.484,14.484,0,0,0-1.105-1.7l1.039-.158s1.592-14.737,4.369-17.645c.645-.658.776-1.158.605-1.539.263-.816-.5-1.316-1.487-1.474a2.108,2.108,0,0,1-.184.579,14.746,14.746,0,0,0-2.882-.21s-1.316-7.632,1.763-10.526a2.947,2.947,0,0,0,.513-2.3,12.464,12.464,0,0,0-.447-3.105.8.8,0,0,0-.092.184c-1.855-6.908-7.605-17.776-7.605-17.776s-.5-6.974,1.316-9.829-1.71-37.921-1.71-37.921.079-17.013-2.395-24.829,1.987-17.316,1.987-17.316a2.455,2.455,0,0,0-.079-.513v-.118s-.145-1.039-.382-2.632a.87.87,0,0,1,0,.171c-.645-4.474-1.882-12.579-2.632-16.329-1.171-5.263-.947-30.947-.947-30.947l3.947-11.105,8.421,18.552,9.145,24.816s4.25,5.145,4.553,10.526v.789a14.464,14.464,0,0,0,0,1.684,14.972,14.972,0,0,0,2.829,8.842s2.632,11.842,6.105,14.684,3.711,8.711,3.711,8.711,4.75,17.105,6.789,20.013c1.71,2.487,2.066,9.487,2.131,11.632h0v.632s.816,6.132.987,11.3V776a18.718,18.718,0,0,1-.342,4.2c0,.079,0,.158,0,.25v-.868a44.233,44.233,0,0,0-.816,10.763c.131,6.2,1.316,13.487,5.263,17.645,6.776,7.2,10.829,6.105,10.829,6.105s-2.763,9.421-6.579,11.434a2.779,2.779,0,0,0-.408.276,3.721,3.721,0,0,0-.105-.526,4.5,4.5,0,0,0-1,3.5c-.118,4.105,2.724,10.658,5.263,13.618a7.657,7.657,0,0,0,3.316,1.763,6.43,6.43,0,0,1-.579.408,12.414,12.414,0,0,1-1.316.671,6.443,6.443,0,0,1-1.947.579,9.276,9.276,0,0,0-6.684,3.579c-2.263,3.184-3.618,7.461,1.316,11l17.421,5.263S1034.222,868.224,1032.34,861.645Z" transform="translate(403.837 43.172)" fill="url(#linear-gradient-2)"/>
    <path id="Path_93" data-name="Path 93" d="M880.888,747.025l-16.868-5.263c-4.724-3.539-3.421-7.829-1.224-11.013a8.882,8.882,0,0,1,6.46-3.566,7.9,7.9,0,0,0,3.132-1.316,7.37,7.37,0,0,0,2.54-2.513,12.316,12.316,0,0,0,1.658-6.5s18.052-6.053,23.263-.895a14.052,14.052,0,0,1,2.342,3.158,27.168,27.168,0,0,1,2.776,11.684s1.158,5.763,2.921,12.342S880.888,747.025,880.888,747.025Z" transform="translate(442.789 173.121)" fill="#2d293d"/>
    <path id="Path_94" data-name="Path 94" d="M942.528,738.4l-16.855-5.263c-4.737-3.526-3.434-7.816-1.237-10.987a8.789,8.789,0,0,1,6.46-3.566,6.58,6.58,0,0,0,1.882-.592,10.87,10.87,0,0,0,1.316-.671c4.566-2.737,4.2-9.013,4.2-9.013s18.066-6.053,23.263-.895a12.864,12.864,0,0,1,1.842,2.3c3.342,5.263,3.276,12.526,3.276,12.526s1.158,5.789,2.921,12.355S942.528,738.4,942.528,738.4Z" transform="translate(462.255 170.421)" fill="#2d293d"/>
    <path id="Path_95" data-name="Path 95" d="M896.461,716a14.052,14.052,0,0,1,2.342,3.158h0l-27.263,4.224a12.316,12.316,0,0,0,1.658-6.5S891.25,710.842,896.461,716Z" transform="translate(446.177 173.133)" opacity="0.1"/>
    <path id="Path_96" data-name="Path 96" d="M960.853,709.692l.2,5.132c-3.947,7.184-24.631,6.434-30.75,3.145a10.877,10.877,0,0,0,1.316-.671c4.566-2.737,4.2-9.013,4.2-9.013s18.066-6.053,23.263-.895A12.869,12.869,0,0,1,960.853,709.692Z" transform="translate(464.733 170.415)" opacity="0.1"/>
    <path id="Path_97" data-name="Path 97" d="M991.04,756.689a45.149,45.149,0,0,0-2.987,7.105l.7,18.421c-4.355,7.895-28.645,6.237-32.066,2.171s-7.329-14.855-3.671-16.868S959.33,756.1,959.33,756.1s-3.947,1.079-10.526-6.118-5.342-23.789-4.329-27.789-.671-17.224-.671-17.224-.119-9.316-2.092-12.263-6.579-20.013-6.579-20.013-.224-5.816-3.592-8.724-5.921-14.684-5.921-14.684a15.263,15.263,0,0,1-2.711-9.908c.474-5.842-4.421-11.947-4.421-11.947l-8.881-24.816-8.171-18.566-3.75,11.118s-.184,25.631.96,30.947,3.079,19.447,3.079,19.447-4.3,9.487-1.895,17.316,2.355,24.842,2.355,24.842,3.434,35.039,1.684,37.908-1.316,9.829-1.316,9.829,10.329,20.105,7.408,23.013-1.7,10.526-1.7,10.526,6.579-.25,3.842,2.632-4.224,17.645-4.224,17.645l-28,4.342s-2.711-3.158-6.763-11.632.408-7.7,4.118-8.776,1.316-3.3-3.276-5.934-2.211-9-2.211-9,6.3-11.658,3.947-12.5-3.211-16.882-3.211-16.882-5.382-18.895-4.421-24.066-4.395-17.3-4.395-17.3l-2.184-14.592a40.316,40.316,0,0,1-6.184-27.487l-.816-22.644s-8.2-43.421-9.974-65.552c-1.145-14.131-1.724-33.447-1.987-45.513-.145-6.763-.2-11.25-.2-11.25L942.422,486.15a83.578,83.578,0,0,0,2.395,14.855c1.237,5.474,3.118,12.566,5.987,21.395,8.2,25.316,4.513,44.566,4.513,44.566l.316,32.368s9.671,21.289,8.092,28.816a62.571,62.571,0,0,0-1.316,13.566s21.592,46.46,20.026,60.263,7.895,35.118,7.895,35.118S993.211,752.412,991.04,756.689Z" transform="translate(436.953 101.208)" fill="#45729a"/>
    <path id="Path_98" data-name="Path 98" d="M908.13,602.583l30.434-5.263S921.919,615.688,908.13,602.583Z" transform="translate(457.732 136.314)" opacity="0.05"/>
    <path id="Path_99" data-name="Path 99" d="M928.2,574.74s1.461,10.776-5.013,15.105C923.229,589.845,935.032,587.529,928.2,574.74Z" transform="translate(462.487 129.184)" opacity="0.1"/>
    <path id="Path_100" data-name="Path 100" d="M933.132,548.63s-24.763,22.039-34.21,20.658S933.132,548.63,933.132,548.63Z" transform="translate(454.401 120.938)" opacity="0.1"/>
    <path id="Path_101" data-name="Path 101" d="M884.287,610s-19.25,5.158-19.526,12.974S884.287,610,884.287,610Z" transform="translate(444.035 140.318)" opacity="0.1"/>
    <path id="Path_102" data-name="Path 102" d="M890.674,683.55s-27.224,6.171-19.329,9.355,20.829,5.5,20.829,5.5S901.029,698.524,890.674,683.55Z" transform="translate(445.662 163.544)" opacity="0.05"/>
    <g id="Group_9" data-name="Group 9" transform="translate(1279.244 601.003)" opacity="0.05">
      <path id="Path_103" data-name="Path 103" d="M867.837,695.932a5.461,5.461,0,0,1-2.632-3.882c-.158.316-.263.5-.263.5s-2.316,6.368,2.21,9c.526.3,1.013.592,1.474.881.816-.184,1.684-.329,2.526-.579C874.758,700.839,872.3,698.563,867.837,695.932Z" transform="translate(-835.337 -434.774)"/>
      <path id="Path_104" data-name="Path 104" d="M894.077,693.74c.724-.724.632-2.513.079-4.789a12.92,12.92,0,0,0-1.316,6.789A5.394,5.394,0,0,1,894.077,693.74Z" transform="translate(-826.353 -435.753)"/>
      <path id="Path_105" data-name="Path 105" d="M887.536,604.75a31.575,31.575,0,0,0-1.526,8.632,33.568,33.568,0,0,1,1.908-5.961S887.773,606.395,887.536,604.75Z" transform="translate(-828.497 -462.342)"/>
      <path id="Path_106" data-name="Path 106" d="M934.681,594.243a10.338,10.338,0,0,0,.158-2.553c-.276,1.75-.46,3.368-.579,4.789C934.392,595.756,934.523,595.006,934.681,594.243Z" transform="translate(-813.26 -466.467)"/>
      <path id="Path_107" data-name="Path 107" d="M889.234,668.864a14.793,14.793,0,0,0,.487-5.184,17.51,17.51,0,0,0-1.079,6.579A6.326,6.326,0,0,1,889.234,668.864Z" transform="translate(-827.668 -443.733)"/>
      <path id="Path_108" data-name="Path 108" d="M904.281,700.8a91.561,91.561,0,0,0-2.631,14.474l-28,4.342s-2.7-3.158-6.75-11.618c-.355-.75-.645-1.421-.882-2.026-1.658.842-2.25,2.631.158,7.645,4.053,8.46,6.763,11.618,6.763,11.618l28-4.342s1.526-14.737,4.211-17.632C906.452,701.774,905.544,701.063,904.281,700.8Z" transform="translate(-835.268 -432.011)"/>
      <path id="Path_109" data-name="Path 109" d="M872.537,724.954s.855,16.053,3.211,16.895h0c1.079-2.7,1.763-5.263.71-5.618-2.368-.842-3.211-16.895-3.211-16.895s-5.395-18.895-4.421-24.053-4.395-17.3-4.395-17.3l-2.2-14.592A40.315,40.315,0,0,1,856.05,635.9l-.868-22.566s-8.2-43.421-9.974-65.552c-1.145-14.132-1.724-33.46-1.987-45.513,0-2.184-.079-4.118-.119-5.75l-.8.118s0,4.474.211,11.25c.263,12.053.842,31.381,1.974,45.513,1.789,22.066,9.987,65.552,9.987,65.552l.868,22.566a40.316,40.316,0,0,0,6.184,27.487l2.184,14.592s5.368,12.131,4.395,17.3S872.537,724.954,872.537,724.954Z" transform="translate(-842.3 -496.52)"/>
      <path id="Path_110" data-name="Path 110" d="M931.173,710.608A27.211,27.211,0,0,1,926.3,699.74c-2.776,2.632.908,12.632,4.158,16.487,3.421,4.066,27.71,5.7,32.066-2.158l-.171-4.434C956.318,716.135,934.41,714.477,931.173,710.608Z" transform="translate(-816.082 -432.346)"/>
      <path id="Path_111" data-name="Path 111" d="M956.6,687.044a45.147,45.147,0,0,0-2.987,7.105l.118,3.263c.487-1.21,1.184-2.829,2.158-4.75a14.121,14.121,0,0,0,.789-5.8Z" transform="translate(-807.15 -436.413)"/>
      <path id="Path_112" data-name="Path 112" d="M933.631,698.928a43.921,43.921,0,0,0,2.079-5.618s-3.947,1.079-10.526-6.118c-4.776-5.263-5.434-15.461-5.04-22.171-1.013,3.947-2.237,20.592,4.329,27.789C928.8,697.52,931.96,698.678,933.631,698.928Z" transform="translate(-817.973 -443.31)"/>
      <path id="Path_113" data-name="Path 113" d="M930.377,682.309a126.342,126.342,0,0,1,1,13.763,16.985,16.985,0,0,1,.395-2.171c1.013-3.947-.671-17.211-.671-17.211s-.132-9.316-2.105-12.276-6.579-20.013-6.579-20.013-.224-5.816-3.605-8.71-5.921-14.684-5.921-14.684a15.316,15.316,0,0,1-2.71-9.921c.474-5.842-4.421-11.934-4.421-11.934l-8.895-24.829-8.171-18.552-3.763,11.092V570.4L888,561.388l8.171,18.553,8.868,24.816s4.895,6.092,4.421,11.934a15.237,15.237,0,0,0,2.711,9.921s2.539,11.842,5.921,14.684,3.592,8.711,3.592,8.711,4.618,17.105,6.579,20.013S930.377,682.309,930.377,682.309Z" transform="translate(-828.838 -477.81)"/>
    </g>
    <path id="Path_114" data-name="Path 114" d="M927.443,331.134l-1.421,8.566.25,3.776.184,2.789-9.671,1.316-1.171-1.974h0c-2.145-3.566-6.579-10.816-8-11.842-1.842-1.434-5.961-24.934-2.066-23.684a10.2,10.2,0,0,1,5.605,4.684S930.338,316.239,927.443,331.134Z" transform="translate(456.405 45.593)" fill="#ffcdd3"/>
    <path id="Path_115" data-name="Path 115" d="M923.652,338.489l-9.671,1.316-1.171-1.974h0a8.579,8.579,0,0,1,10.658-2.184Z" transform="translate(459.209 53.369)" opacity="0.1"/>
    <path id="Path_116" data-name="Path 116" d="M926.347,342.772l-12.684,3.461-.342-1.895-.921-5.105s4.8-6.947,12.329-2.158l.737,2.632Z" transform="translate(459.08 53.6)" fill="#dce6f2"/>
    <path id="Path_117" data-name="Path 117" d="M772.509,342.466l-13.382,7.895s-.566-1.053-1.316-2.526c-1.408-2.632-3.5-6.711-4.092-8.158-.895-2.224-6.711-4.868-6.711-4.868-14.829-13.158,1.763-25.513,1.763-25.513,8.316-18.5,19.3,5.421,19.3,5.421s1.895,12.75.934,13.658-.816,4.395-.816,4.395a51.7,51.7,0,0,1,3.592,7.7C772.259,341.676,772.509,342.466,772.509,342.466Z" transform="translate(404.906 43.143)" fill="#ffcdd3"/>
    <path id="Path_118" data-name="Path 118" d="M768.437,333.291l-13.382,7.895s-.566-1.053-1.316-2.526c1.855-1.684,8.487-7.5,10.737-7.329a17.351,17.351,0,0,0,3.237,0C768.187,332.5,768.437,333.291,768.437,333.291Z" transform="translate(408.977 52.317)" opacity="0.1"/>
    <path id="Path_119" data-name="Path 119" d="M769.883,337.2l-15.066,8.158-.434-3.289-.3-2.276s8.605-7.96,11.25-7.776a14.238,14.238,0,0,0,3.947-.158l.289,2.75Z" transform="translate(409.085 52.486)" fill="#dce6f2"/>
    <path id="Path_120" data-name="Path 120" d="M908.559,382.329s-66.658,10.132-54.3,5.592c8.605-3.184,11.842-8.855,12.342-15.013.381-5.171-1.145-10.684-3.092-15.408a67.242,67.242,0,0,0-6.447-11.842s50.092-30.118,40.789-4.132a40.7,40.7,0,0,0-2.434,12.237,34.206,34.206,0,0,0,1.79,12.224,36.58,36.58,0,0,0,11.355,16.342Z" transform="translate(440.237 52.201)" fill="#ffcdd3"/>
    <path id="Path_121" data-name="Path 121" d="M896.862,341.534a40.712,40.712,0,0,0-2.434,12.237c-4.658,4.237-9.96,4.171-16.75,4.434-5.263.2-10.947,1.684-15.21-.671a67.226,67.226,0,0,0-6.447-11.842S906.112,315.56,896.862,341.534Z" transform="translate(441.276 52.207)" opacity="0.1"/>
    <circle id="Ellipse_4" data-name="Ellipse 4" cx="27.71" cy="27.71" r="27.71" transform="translate(1289.349 356.833)" fill="#ffcdd3"/>
    <path id="Path_122" data-name="Path 122" d="M908.559,374.531s-66.658,10.132-54.3,5.592c8.605-3.184,11.842-8.855,12.342-15.013,3.2-3.75,9.789-6.579,14.039-8.158a19.986,19.986,0,0,1,12.118-.658,16.884,16.884,0,0,1,4.5,1.868,36.578,36.578,0,0,0,11.3,16.368Z" transform="translate(440.237 59.999)" opacity="0.1"/>
    <path id="Path_123" data-name="Path 123" d="M926.126,341.829l-12.684,3.461-.342-1.895a11.342,11.342,0,0,1,12.145-4.684Z" transform="translate(459.301 54.543)" opacity="0.1"/>
    <path id="Path_124" data-name="Path 124" d="M769.81,336.526l-15.066,8.158-.434-3.289A111.526,111.526,0,0,1,769.547,334Z" transform="translate(409.157 53.161)" opacity="0.1"/>
    <path id="Path_125" data-name="Path 125" d="M944.826,501.045c-25.763,5.092-62.46,11.842-68.421,10.276-4.921-1.316-20.421-.539-33.908.447-.145-6.763-.2-11.25-.2-11.25L942.392,486.19A83.579,83.579,0,0,0,944.826,501.045Z" transform="translate(436.943 101.221)" opacity="0.1"/>
    <path id="Path_126" data-name="Path 126" d="M999.157,541.82s-84.816,17.934-94.092,15.5-56.2,2.395-56.2,2.395c-20.618,15-12.592-6.276-12.592-6.276s-2.276-10.855,0-19.8A121.63,121.63,0,0,0,839,513.728s-1-13.934,1.434-17.289S845,469.7,845,469.7s1.71-15.908,1.316-19.395.2-13.276.2-13.276l2.368-16.395c-17.539-1.658-71.829-32.184-71.829-32.184-2.987-10.829-23.684-35.658-23.684-35.658a26.71,26.71,0,0,0-1.868-6.224c-1.539-3.671,19.118-11.921,19.118-11.921s16.316,18.421,19.737,23.474,14.987,14.105,14.987,14.105a11.185,11.185,0,0,1,5.145.461l.263.079h0a41.658,41.658,0,0,1,10.645,5.579,20.211,20.211,0,0,1,14.395,4.8s9.487-1.763,11.171-.2,9.776-.368,9.776-.368,7.474-17.539,13.013-12.737S898,373.531,898,373.531c2.868-4.132,10.118-7.3,14.671-8.96a19.987,19.987,0,0,1,12.118-.671,15.552,15.552,0,0,1,4.882,2.132l14.289,12.961s3.763-5.263,3.25-6.421,4.579-2.263,4.579-2.263,6.658-2.355,9.21-3.158,4.974,1.895,5.2,2.118c-.105-.289-2.066-5.855-1.553-10.184s-3.118-8.263-3.118-8.263c7.382-20.316,26.395-4.276,26.395-4.276s2.526,10.855.816,15.118,2.368,12.947,1.987,15.289,1.171,6.25,1.316,10.671-1.829,12.882-3.079,16.658-12.105,12.579-12.105,12.579-.184,13.289-4.776,21.158-.553,34.039-.553,34.039,5.447,20.289,11.513,26.579S999.157,541.82,999.157,541.82Z" transform="translate(408.244 53.367)" fill="#234767"/>
    <path id="Path_127" data-name="Path 127" d="M843.538,382.728s-2.855-7.579-5.263-8.184a55.821,55.821,0,0,1-6.855-2.763l1.316-2.921s8.829,2.053,10.329,4.566S843.538,382.728,843.538,382.728Z" transform="translate(433.508 64.17)" opacity="0.1"/>
    <path id="Path_128" data-name="Path 128" d="M809.653,369.215c-.382,2.342-21.053,5.263-21.053,5.263l10.066-10.908h0l.263.079h0a41.656,41.656,0,0,1,10.724,5.566Z" transform="translate(419.986 62.499)" opacity="0.1"/>
    <circle id="Ellipse_5" data-name="Ellipse 5" cx="1.868" cy="1.868" r="1.868" transform="translate(1166.639 400.214)" fill="#575988"/>
    <circle id="Ellipse_6" data-name="Ellipse 6" cx="1.868" cy="1.868" r="1.868" transform="translate(1169.165 403.846)" fill="#575988"/>
    <circle id="Ellipse_7" data-name="Ellipse 7" cx="1.868" cy="1.868" r="1.868" transform="translate(1171.625 407.188)" fill="#575988"/>
    <circle id="Ellipse_8" data-name="Ellipse 8" cx="1.868" cy="1.868" r="1.868" transform="translate(1174.204 410.819)" fill="#575988"/>
    <circle id="Ellipse_9" data-name="Ellipse 9" cx="1.513" cy="1.513" r="1.513" transform="translate(1393.848 402.53)" fill="#575988"/>
    <circle id="Ellipse_10" data-name="Ellipse 10" cx="1.513" cy="1.513" r="1.513" transform="translate(1394.217 405.951)" fill="#575988"/>
    <circle id="Ellipse_11" data-name="Ellipse 11" cx="1.513" cy="1.513" r="1.513" transform="translate(1394.546 409.372)" fill="#575988"/>
    <path id="Path_129" data-name="Path 129" d="M842.56,427.31c-.224-.263,54.763,63.947,94.013,24.105C936.56,451.415,872.573,462.613,842.56,427.31Z" transform="translate(437.025 82.627)" opacity="0.1"/>
    <path id="Path_130" data-name="Path 130" d="M820.67,454.36s31.421-.355,35.053,8.539l.355,9.395a5.987,5.987,0,0,1-5.842.224c-3.224-1.579-22.566-10.526-29.079-5.592Z" transform="translate(430.113 91.169)" opacity="0.1"/>
    <path id="Path_131" data-name="Path 131" d="M821.12,454.34s30.039-.342,33.513,8.145l.342,8.96a5.763,5.763,0,0,1-5.592.21c-3.079-1.513-21.579-10-27.8-5.329Z" transform="translate(430.255 91.163)" fill="#4a85b9"/>
    <path id="Path_132" data-name="Path 132" d="M831.7,402.07a100.947,100.947,0,0,0,12.974,20.408,81.885,81.885,0,0,0,19.737,17.658S832.384,406.359,831.7,402.07Z" transform="translate(433.596 74.657)" opacity="0.1"/>
    <path id="Path_133" data-name="Path 133" d="M822.83,374.66s6.105,22.368,19.895,29.553Z" transform="translate(430.795 66.001)" opacity="0.1"/>
    <path id="Path_134" data-name="Path 134" d="M816.881,376.632c-.158-.421-3.947,18.053,18.421,27.316C835.341,403.947,825.854,401.132,816.881,376.632Z" transform="translate(428.81 66.622)" opacity="0.1"/>
    <path id="Path_135" data-name="Path 135" d="M920.492,361.108c-.342,0,11.158,6.724,14.329,9.934C934.821,371.043,927.11,360.385,920.492,361.108Z" transform="translate(461.633 61.711)" opacity="0.1"/>
    <path id="Path_136" data-name="Path 136" d="M871.954,366.456a4.355,4.355,0,0,0,4.934,4.145c8.46.2,17.263.237,25-3.316a9.42,9.42,0,0,0,3.7-2.632c1.316-1.75,1.5-4.066,1.987-6.211.934-4.171,3.118-7.895,4.658-11.947a39.565,39.565,0,0,0,1.868-21.224,14.129,14.129,0,0,0-2.342-6.092c-2.368-3.118-6.5-4.25-9.552-6.684s-5.119-6.25-8.645-8.026c-3.184-1.605-6.987-1.316-10.526-.526a54.948,54.948,0,0,0-19.21,8.079c-1.961,1.316-4.105,2.8-6.434,2.461-2.039-.3-3.566-1.947-4.934-3.487a25.8,25.8,0,0,0-1.605,12.145,5.268,5.268,0,0,1,0,1.816,5.581,5.581,0,0,1-1.224,1.96c-1.987,2.5-3.145,6.382-.987,8.737.934,1.039,2.329,1.566,3.25,2.632,1.632,1.882,1.21,4.7,1.316,7.184a3.645,3.645,0,0,0,.71,2.434,3.592,3.592,0,0,0,3.447.684,9.3,9.3,0,0,1,3.619-.487,6.027,6.027,0,0,1,3.263,2.316C868.362,355.166,870.086,360.561,871.954,366.456Z" transform="translate(438.579 43.469)" fill="#2d293d"/>
    <g id="Group_10" data-name="Group 10" transform="translate(1286.077 354.148)" opacity="0.1">
      <path id="Path_137" data-name="Path 137" d="M906.383,356.552a9.433,9.433,0,0,1-3.711,2.632c-7.684,3.553-16.474,3.526-24.934,3.316a4.355,4.355,0,0,1-4.947-4.132c-1.855-5.908-3.592-11.3-7.684-16.105a6.052,6.052,0,0,0-3.25-2.316,9.617,9.617,0,0,0-3.632.487,3.592,3.592,0,0,1-3.447-.684,3.724,3.724,0,0,1-.711-2.434c0-2.487.369-5.263-1.316-7.184-.908-1.053-2.316-1.579-3.25-2.632a5.474,5.474,0,0,1-.75-5.539c-1.382,2.408-1.908,5.447-.105,7.434.934,1.026,2.342,1.553,3.25,2.632,1.632,1.882,1.224,4.7,1.316,7.2a3.631,3.631,0,0,0,.71,2.421,3.553,3.553,0,0,0,3.447.684,9.579,9.579,0,0,1,3.632-.487,6.119,6.119,0,0,1,3.25,2.316c4.092,4.816,5.816,10.2,7.684,16.105a5.855,5.855,0,0,0,2.3,3.658,5.933,5.933,0,0,0,2.632.487c8.461.2,17.263.224,25-3.329a9.539,9.539,0,0,0,3.71-2.632,7.527,7.527,0,0,0,1.105-2.29,3.811,3.811,0,0,1-.3.395Z" transform="translate(-847.494 -304.789)"/>
      <path id="Path_138" data-name="Path 138" d="M850.182,322.41a3.946,3.946,0,0,0,.79-1.434,4.959,4.959,0,0,0,0-1.816,25.778,25.778,0,0,1,.921-10.066l-.171-.184a25.844,25.844,0,0,0-1.605,12.145,7.8,7.8,0,0,1,.066,1.355Z" transform="translate(-846.713 -308.91)"/>
    </g>
    <path id="Path_139" data-name="Path 139" d="M862.82,364.7s34.763,3.263,37.671-2.066" transform="translate(443.423 62.202)" opacity="0.1"/>
    <path id="Path_140" data-name="Path 140" d="M913.5,351.365s19.21-.711,23.684,6.329" transform="translate(459.427 58.639)" opacity="0.1"/>
    <path id="Path_141" data-name="Path 141" d="M249.382,306.314V380c0,2.2-4.118,3.947-9.211,3.947H45.791c-5.079,0-9.21-1.776-9.21-3.947V306.314c0-2.2,4.105-4.434,9.21-4.434H240.2C245.264,301.88,249.382,304.117,249.382,306.314Z" transform="translate(182.509 43.018)" fill="#fff"/>
    <g id="Group_11" data-name="Group 11" transform="translate(219.089 344.898)" opacity="0.5">
      <path id="Path_142" data-name="Path 142" d="M249.382,306.314V380c0,2.2-4.118,3.947-9.211,3.947H45.791c-5.079,0-9.21-1.776-9.21-3.947V306.314c0-2.2,4.105-4.434,9.21-4.434H240.2C245.264,301.88,249.382,304.117,249.382,306.314Z" transform="translate(-36.58 -301.88)" fill="#77b452"/>
    </g>
    <rect id="Rectangle_25" data-name="Rectangle 25" width="101.263" height="3.579" transform="translate(312.496 371.214)"/>
    <path id="Path_143" data-name="Path 143" d="M74.39,315.92a24.013,24.013,0,0,0-13.237,44.039v-1.605a5.447,5.447,0,0,1,4.8-5.395,9.526,9.526,0,0,0,16.71,0,5.447,5.447,0,0,1,4.8,5.395v1.71A24.013,24.013,0,0,0,74.39,315.92ZM83.8,346.354a9.513,9.513,0,0,1-18.974,0,10.421,10.421,0,0,1,5.46-13.961,3.053,3.053,0,0,1-.513-1.71,3.171,3.171,0,0,1,3.184-3.171h.224a3.171,3.171,0,0,0-2.947,3.171,3.039,3.039,0,0,0,.421,1.566h.092a3.184,3.184,0,0,1,0-.618,4.665,4.665,0,0,1,3.632-4.079H74.6a3.184,3.184,0,0,0-2.421,1.421A3.171,3.171,0,0,1,77.1,331.6a3.223,3.223,0,0,1,0,.355,10.421,10.421,0,0,1,6.789,14.408Z" transform="translate(186.87 47.452)" opacity="0.2"/>
    <rect id="Rectangle_26" data-name="Rectangle 26" width="101.263" height="3.579" transform="translate(312.496 379.925)" opacity="0.2"/>
    <rect id="Rectangle_27" data-name="Rectangle 27" width="101.263" height="3.579" transform="translate(312.496 388.635)" opacity="0.2"/>
    <rect id="Rectangle_28" data-name="Rectangle 28" width="101.263" height="3.579" transform="translate(312.496 397.346)" opacity="0.2"/>
    <path id="Path_144" data-name="Path 144" d="M364.828,519.636a79.6,79.6,0,0,1-1.316-12.118c0-4.868-6.579-9.211-6.579-9.211s-4.092-9.474-6.776-10.855-11.145-13.789-11.145-13.789a11.236,11.236,0,0,0-2.539-6.684,95.764,95.764,0,0,1-6.895-10.408h0c-1.132-1.395-.566-2.368-2.263-10.447q-.145-.632-.316-1.224a1.813,1.813,0,0,0-.171-.513,13.658,13.658,0,0,0,3.21-14.131,5.8,5.8,0,0,0-1.618-2.5c-1.921-1.566-4.987-.921-6.961-2.408l2.092-9.289c.513-2.263.776-5.158-1.224-6.382a10.029,10.029,0,0,0-2.342-.789c-3.447-1.092-5.382-4.724-6.263-8.2a28.106,28.106,0,0,1-.684-10.263c.382-3.29,1.316-6.5,1.711-9.8a27.066,27.066,0,0,0-4.171-17.447,13.605,13.605,0,0,0-5.513-5.2c-2.118-.947-4.579-1.066-6.579-2.316-4.237-2.632-4.026-9.066-7.395-12.763s-9.355-3.658-14.276-2.395-9.8,3.434-14.855,2.868c-3.25-.355-6.3-1.829-9.553-2.171a9.552,9.552,0,0,0-2.8.132l.066-.118c-2.421.434-4.632,1.776-5.2,4.066a6.276,6.276,0,0,0-.158,1.658c0,1.316.316,2.71.342,3.947a3.842,3.842,0,0,1-.921,2.8c-.645.7-1.605,1.066-2.237,1.776a2.894,2.894,0,0,0-.829,2.092c0,2.026,2.526,3.8,4.224,4.618h0c-.461.461-.908.934-1.316,1.421a29.894,29.894,0,0,0-7.408,19.908,30.329,30.329,0,0,0,18.421,27.776c-.079.25-.145.487-.237.737a39.108,39.108,0,0,1-1.658,4.3,8.526,8.526,0,0,0-7.145.789c-3.25,2.224-9.592,2.092-11.289,1.671s-19.329-2.632-20.737-2.092-4.237-1.947-6.066,1.395-2.632,5.158-4.513,5.987-5.079,3.487-4.658,4.039-4.658,3.947-4.658,3.947-4.368,4.592-6.908,5.158-7.895,4.039-7.895,4.039l-6.211,4.868s-4.658.7-3.25-2.5-2.539-7.25-2.539-7.25-7.895-16.013-7.895-19.342-6.487-17.408-6.487-17.408l-.8-.079c-.118-.342-.237-.684-.368-1.039a98.206,98.206,0,0,0-3.947-9.882c-2.237-4.592-3.684-5.118-3.684-5.118S116.277,362.953,98.5,369.216s32.447,24.921,36.96,26.882c1.579.671,2.711,2.882,3.513,5.447a23.382,23.382,0,0,0-9.671,8.8s10.855,24.079,11.132,30.066,7.487,22.7,7.487,22.7,2.632,12.395,17.21,11.7c0,0,20.026,3.671,24.395,0s8.329-6.579,10.447-6.987a8.225,8.225,0,0,0,3.947-2.789s-6.579,41.763-9.868,45.395-32.026,50.539-21.737,58.881a206.3,206.3,0,0,0,25.816,17.105c.882.434,3.5-3.947,7.25-7.039v2.408c.066,16.684,2.237,42.105,5.329,47.789,4.513,8.355,2.632,24.513,2.632,24.513a19.473,19.473,0,0,0,7.632,1.829c.132.539.289,1.105.447,1.7,2.487,9.395,6.513,23.921,8.566,27.789,3.118,5.855,5.368,24.368,5.368,24.368s1.829,18.237,1.132,20.75c-.276.961.921,8.526,2.789,18.132h0c-1.145,13.053-3.289,38.224-3.658,47.368h0v1.526h0a10.34,10.34,0,0,0,0,1.711,5.356,5.356,0,0,1-.184,2.632,42.275,42.275,0,0,1-3.066,7.29,34.916,34.916,0,0,0-1.316,3.539c-1.118.487-2.513,1.711-3.289,4.671-1.408,5.434-3.526,20.474-3.526,20.474s-.842,9.211-2.539,11.276-3.382,15.171,8.605,16.842,17.21-6.368,17.21-6.368l-.421-36.447h0a5.266,5.266,0,0,0,.618-1v-.079c.079-.184.171-.355.25-.566s0-.171.105-.263.118-.289.171-.447a.738.738,0,0,1,0-.158,23.947,23.947,0,0,0,1.013-10.855s0-.118,0-.184v-.566a1.683,1.683,0,0,0,0-.25,2.539,2.539,0,0,1,0-.316v-.224a2.388,2.388,0,0,1,.079-.737.487.487,0,0,1,0-.145v-.434a1.011,1.011,0,0,0,0-.2,3.163,3.163,0,0,1,.092-.46v-.105c.105-.539.25-1.079.395-1.645v-.118l.158-.553h0c.184-.592.382-1.171.579-1.75v-.118l.2-.539v-.066c.2-.553.408-1.092.618-1.605v-.145l.2-.461v-.132l.434-1.026h0l3.329,10.276s1.829,7.658.842,9.461,1.132,9.342,2.539,9.474l-1.316,9.474a144.858,144.858,0,0,0-1.316,15.789c-.092.592-.184,1.105-.25,1.5-.908,4.842,1.316,12.368,1.316,12.368,11.145,13.158,24.408,1.026,24.408,1.026s1.553-6.974,0-8.355-.842-6.408-.842-6.408.7-12.395.842-21.447-7.408-17.013-7.408-17.013l-.421.382c-1.316-3.539-2.934-7.684-2.632-9.539.566-3.2-1.553-37.026-1.553-37.026a201.939,201.939,0,0,0,.487-27.211h0c.184-1.539.355-3.053.526-4.513.855-7.276,1.539-13.5,1.816-16.75h0v-.382c.066-.882.105-1.5.092-1.8,0-1.079,0-2.434.105-3.855.276-3.947.882-8.263.882-8.263l2.961-17.961s2.25-8.763,5.5-13.645l.382-.618h0c.132-.211.263-.447.395-.7v-.105l.395-.75v-.105c.461-.895.947-1.934,1.447-3.066l.118-.25.382-.868.145-.342.382-.868c0-.118.092-.224.145-.342.145-.355.289-.711.447-1.066l.211-.513c.118-.263.224-.526.329-.8l.289-.684.2-.513.316-.776c0-.118.105-.237.145-.355.8-2.013,1.592-3.947,2.276-5.816h0c.224-.566.434-1.105.632-1.632,7.224.447,12.132.855,12.132.855s2.263-16.289,1.553-27.013c-.487-7.316.868-16.526,1.776-21.618.105-.566.2-1.066.276-1.513l.2.158c3.539,2.776,6.066-6.408,6.066-6.408s-.947-8.592-2.224-18.974a9.345,9.345,0,0,0-.132-1.039,54.614,54.614,0,0,0,6.171.947s1.132-.105,2.632-.3a74.763,74.763,0,0,0,13.395,6l7.474-13.921a56.762,56.762,0,0,1,4.934-8.211c2.263-2.789,10.3-11.7,10.158-13.368s2.632-11.276,5.5-15.592S364.986,520.347,364.828,519.636Zm-31.316,10.526c-2.961,1.25-5.789,8.211-5.921,10.3s-3.25,11.276-6.5,12.395c-2.974,1.026-8.684,6.263-9.592,7.105-.934.092-1.987.211-3.092.395-1.237-8.789-2.461-16.053-3.25-17.526-2.25-4.184,2.487-17.539,2.487-17.539s.474-13.5,3.434-16.711,2.263-11.276,2.263-11.276.7-3.342.987-4.868,4.2,0,4.224,0h0s7.618,4.171,8.75,10.434,9.447,17.105,9.447,17.105-1.316,3.75,0,5.71-.263,3.276-3.224,4.526Z" transform="translate(200.865 54.972)" fill="url(#linear-gradient-3)"/>
    <path id="Path_145" data-name="Path 145" d="M121.15,396.7A22.75,22.75,0,0,1,143.939,386v16.263H134.11l-7.789-2.013Z" transform="translate(209.215 69.504)" fill="#4c4981"/>
    <path id="Path_146" data-name="Path 146" d="M121.15,396.7A22.75,22.75,0,0,1,143.939,386v16.263H134.11l-7.789-2.013Z" transform="translate(209.215 69.504)" opacity="0.1"/>
    <path id="Path_147" data-name="Path 147" d="M152.806,397.8l-12.092,8.487s-.105-1.711-.408-4.026c-.605-4.382-1.961-10.96-4.882-12.237-4.447-1.947-53.947-20.566-36.395-26.816s44.46,14.25,44.46,14.25,1.395.474,3.605,5.066c1.171,2.408,2.632,6.513,3.868,9.855C152.03,395.4,152.806,397.8,152.806,397.8Z" transform="translate(201.045 62.009)" fill="#ae6e79"/>
    <path id="Path_148" data-name="Path 148" d="M176.673,266.1l1.368-.658,3.868,4.408-3.158,6.737-5.382-2.158,1.25-5.382Z" transform="translate(273.863 206.774)" fill="#4c4981"/>
    <path id="Path_149" data-name="Path 149" d="M201.444,699.072s-3.474-.408-4.868,5-3.474,20.434-3.474,20.434-.829,9.211-2.5,11.25-3.329,15.145,8.474,16.816,16.96-6.355,16.96-6.355l-.421-36.447Z" transform="translate(230.776 168.444)" fill="#444053"/>
    <path id="Path_150" data-name="Path 150" d="M234.248,700.32s7.434,7.895,7.3,16.974-.842,21.408-.842,21.408-.684,5,.842,6.395,0,8.329,0,8.329-13.066,12.132-24.039-1.013c0,0-2.145-7.513-1.316-12.355s3.329-26.645,3.329-26.645Z" transform="translate(239.169 168.84)" fill="#444053"/>
    <path id="Path_151" data-name="Path 151" d="M260.364,575.841s-7.513,21.053-10.711,25.842-5.408,13.631-5.408,13.631l-2.921,17.934a98.364,98.364,0,0,0-.974,12.092c.132,4.026-7.224,62.8-7.224,62.8l-11.671,14.868s-5.145,10.421-4.316,14.737-.553,11.25-2.224,13.329c0,0-.276,13.618-.7,16.684s1.539,11.671,0,13.158-21.947.829-22.513-1.671,2.513-14.592,2.513-14.592l1.8-11.671s3.605-6.395,2.776-8.474,1.526-6.947,1.671-7.368,3.947-7.224,3.2-9.855,4.3-58.645,4.3-58.645L222.286,568.17Z" transform="translate(231.474 127.109)" fill="#ae6e79"/>
    <path id="Path_152" data-name="Path 152" d="M260.361,575.835s-1.132,3.158-2.711,7.316c-2.474,6.579-6.039,15.553-8,18.526-3.2,4.868-5.421,13.618-5.421,13.618l-2.908,17.934a98.323,98.323,0,0,0-.974,12.079c0,1.592-1.066,11.75-2.434,23.434-2.105,17.882-4.789,39.381-4.789,39.381L221.44,722.992s-.592,1.2-1.316,2.934c-1.461,3.408-3.526,8.947-2.974,11.842.829,4.316-.553,11.263-2.224,13.342,0,0-.276,13.632-.7,16.671s1.539,11.684,0,13.158-21.947.842-22.513-1.671,2.5-14.579,2.5-14.579l1.816-11.684s3.605-6.395,2.776-8.474,1.526-6.947,1.671-7.368,3.947-7.224,3.2-9.868c-.539-2.013,2.237-34.921,3.579-50.526.434-4.921.724-8.105.724-8.105L220.3,582.229l.987-6.974,1.013-7.066Z" transform="translate(231.477 127.115)" opacity="0.1"/>
    <path id="Path_153" data-name="Path 153" d="M248.817,783.217c.132,1.526-19.592,3.75-22.368,2.079s0-22.368,0-22.368l1.316-9.447c-1.395-.145-3.474-7.645-2.5-9.461s-.842-9.447-.842-9.447l-3.276-10.263-2-6.263c-3.237-7.171-7.895-27.632-10.868-42.895-1.842-9.592-3.013-17.105-2.75-18.118.7-2.5-1.118-20.7-1.118-20.7s-2.211-18.421-5.263-24.316c-2.026-3.868-5.987-18.421-8.447-27.75-1.25-4.8-2.118-8.25-2.118-8.25s21.053-1.763,33.737-2.382c5.868-.276,9.974-.316,9.487.171s-.592,3.026-.566,6.7c0,9.539,1.382,26.316,2.789,30.816,1.947,6.25,3.947,25,3.053,26.816s-.553,13.895-.553,13.895a62.408,62.408,0,0,1,2.434,15.092,203.673,203.673,0,0,1-.487,27.158s2.092,33.763,1.526,36.961,4.447,13.158,4.447,15.145,1.263,15.145,1.263,15.145S248.685,781.691,248.817,783.217Z" transform="translate(230.508 128.772)" fill="#ae6e79"/>
    <path id="Path_154" data-name="Path 154" d="M255.205,438.514l-2.395,2.632-1.553,1.671-9.105,9.671-23.487,2.632-12.474-3.342-3.092-.816s0-6.276.566-13.8c.789-9.645,2.7-21.368,7.224-24.553a17.948,17.948,0,0,0,5.263-6.7,37.485,37.485,0,0,0,2.276-5.618c.092-.25.158-.487.237-.724a61.565,61.565,0,0,0,2.211-10.316s3-1.658,7.158-3.592c10.882-5.079,29.671-12.079,23.132,3.592a59.084,59.084,0,0,0-2.447,7.053c-.105.342-.2.7-.276,1.039-2.184,8.737-.737,14.026.895,16.947h0a11.846,11.846,0,0,0,.947,1.434,7.235,7.235,0,0,0,1.579,1.605l2.711,17.171.224,1.421Z" transform="translate(235.093 67.568)" fill="#ae6e79"/>
    <path id="Path_155" data-name="Path 155" d="M247.5,389.943c-1.237,2.974.605-2.434,0,0-4.947,3.526-16.618,13.553-23.184,13.553-4.421,0-5.75-.8-9.553-2.513a61.711,61.711,0,0,0,2.447-11.039S256.523,368.259,247.5,389.943Z" transform="translate(238.775 67.784)" opacity="0.1"/>
    <path id="Path_156" data-name="Path 156" d="M261.762,381.007a30.263,30.263,0,0,1-27.118,30.118,28.125,28.125,0,0,1-3.171.171,30.263,30.263,0,1,1,30.263-30.263Z" transform="translate(234.497 58.457)" fill="#ae6e79"/>
    <path id="Path_157" data-name="Path 157" d="M268.517,493.81l-4.3,11.263s-3.526.158-9,.329c-18.421.592-59.21,1.316-61.039-3.395a11.408,11.408,0,0,1-.632-3.737c-.25-7.237,3.132-18.355,3.132-18.355s1.947-22.237,1.947-23.2-1.671-16.605-1.671-16.605l3.329-12.5,9.316-6.579s4.171,6.395,6.671,6.947,5.842,3.618,5.842,3.618,8.184,5,10.829,2.211,23.21-15,23.21-15l10.842,11.947Z" transform="translate(232.071 79.943)" opacity="0.1"/>
    <path id="Path_158" data-name="Path 158" d="M268.517,495.08l-4.3,11.263s-3.526.158-9,.316h-.539l-7.987.211c-14.684.329-34.934.421-45.5-1.118-3.947-.579-6.579-1.316-7.013-2.5a9.209,9.209,0,0,1-.5-2.066,16.555,16.555,0,0,1-.132-1.671c-.25-7.237,3.132-18.421,3.132-18.421s1.947-22.237,1.947-23.21-1.671-16.539-1.671-16.539l3.329-12.5,6.408-4.487,2.908-2.039a42.008,42.008,0,0,0,3.2,4.2,8.369,8.369,0,0,0,3.474,2.737c2.5.566,5.842,3.618,5.842,3.618s8.184,5.013,10.829,2.224c2.026-2.132,14.474-9.776,20.289-13.263l2.921-1.75,1.461,1.618,9.382,10.342Z" transform="translate(232.071 80.344)" fill="#fff"/>
    <path id="Path_159" data-name="Path 159" d="M142,390.511,129.908,399s-.105-1.711-.408-4.026c5.974-2.513,9.605-8.092,10.658-9.882C141.224,388.116,142,390.511,142,390.511Z" transform="translate(211.852 69.295)" opacity="0.1"/>
    <path id="Path_160" data-name="Path 160" d="M187.15,419.006l-2.632-.684s-4.316,4.579-6.816,5.132-7.776,4.039-7.776,4.039l-6.118,4.855s-4.592.7-3.2-2.5-2.5-7.224-2.5-7.224-7.776-15.987-7.776-19.316-6.395-17.368-6.395-17.368-8.066,15.7-22.789,10.7c0,0,10.7,24.039,10.974,30.013s7.368,22.658,7.368,22.658,2.632,12.368,16.947,11.671c0,0,19.737,3.671,24.039,0s8.2-6.579,10.289-6.974a8.145,8.145,0,0,0,3.882-2.776V434.7Z" transform="translate(209.215 69.563)" fill="#12324e"/>
    <path id="Path_161" data-name="Path 161" d="M152.51,423s3.474,12.921,1.316,14.316Z" transform="translate(219.118 81.266)" opacity="0.1"/>
    <path id="Path_162" data-name="Path 162" d="M255.211,487.588c-18.421.592-59.21,1.316-61.039-3.382a11.408,11.408,0,0,1-.632-3.737l60.381,3.184Z" transform="translate(232.075 99.415)" opacity="0.1"/>
    <path id="Path_163" data-name="Path 163" d="M261.358,575.835s-1.132,3.158-2.7,7.316c-7.671-.474-17.829-.961-27.474-1.026-3.421,0-6.763,0-9.908.105a74.223,74.223,0,0,0-16.2,1.8,42.738,42.738,0,0,1-14.474,1.855c-1.25-4.8-2.118-8.25-2.118-8.25s21.053-1.763,33.737-2.382l1.013-7.066Z" transform="translate(230.48 127.115)" opacity="0.1"/>
    <path id="Path_164" data-name="Path 164" d="M280.889,552.357l-2.355,5s-.329,1.487-.75,3.855c-.895,5.079-2.237,14.276-1.763,21.579.711,10.7-1.526,26.947-1.526,26.947s-51.131-4.3-66.131,0-22.368,0-22.368,0,1.8-16.118-2.632-24.447c-3.053-5.711-5.184-31.052-5.263-47.7,0-7.7.382-13.526,1.316-14.7,3.053-3.763,16.118-41.276,16.118-41.276l2.974.158,7.895.421,45.25,2.382,7.092.368.75,2.3Z" transform="translate(227.199 99.778)" fill="#215380"/>
    <path id="Path_165" data-name="Path 165" d="M278.342,527.437l.421,4.447s-22.368-7.289-21.263-16.25,0-7.895,0-7.895l18,1.526Z" transform="translate(252.259 108.013)" fill="#4c4981"/>
    <path id="Path_166" data-name="Path 166" d="M278.342,527.437l.421,4.447s-22.368-7.289-21.263-16.25,0-7.895,0-7.895l18,1.526Z" transform="translate(252.259 108.013)" opacity="0.1"/>
    <path id="Path_167" data-name="Path 167" d="M164.7,426.586a19.96,19.96,0,0,0,7.895,4.105,5.132,5.132,0,0,1-2.329-1.092c-1.605-1.145-3.132-2.382-4.671-3.592-1.237-.974-2.8-2.632-4.342-2.987a23.96,23.96,0,0,0,3.447,3.566Z" transform="translate(221.878 81.273)" opacity="0.1"/>
    <path id="Path_168" data-name="Path 168" d="M165.622,431.511a9.672,9.672,0,0,1,1.724,2.75,11.052,11.052,0,0,1,.5,3.553,11.211,11.211,0,0,1-.618,5.039l-3.645-8.645c-.618-1.474-1.316-2.947-2-4.368-.329-.605-2.395-3.105-2.158-3.632C160.109,424.7,164.951,430.682,165.622,431.511Z" transform="translate(221.295 82.202)" opacity="0.1"/>
    <path id="Path_169" data-name="Path 169" d="M243.712,467.349a11.631,11.631,0,0,0,6.579-3.04c-3.7.461-7.184,1.908-10.829,2.632a16.092,16.092,0,0,1-10.092-.921C233.515,468.1,239.212,468.165,243.712,467.349Z" transform="translate(243.389 94.311)" opacity="0.1"/>
    <path id="Path_170" data-name="Path 170" d="M236.688,449.93a2.487,2.487,0,0,1-1.882-.474q-4.158-2.368-8.211-4.974a49.8,49.8,0,0,1-8.026-5.553C224.083,443.917,229.215,448.127,236.688,449.93Z" transform="translate(239.979 86.297)" opacity="0.1"/>
    <path id="Path_171" data-name="Path 171" d="M240.016,470.347a17.655,17.655,0,0,0,4.329-.342,5.855,5.855,0,0,0,3.566-2.342,2.013,2.013,0,0,0-1.513.237,25.552,25.552,0,0,1-13.947,1.671C234.7,470.532,237.608,470.334,240.016,470.347Z" transform="translate(244.362 95.353)" opacity="0.1"/>
    <path id="Path_172" data-name="Path 172" d="M226.691,519a44.6,44.6,0,0,1-8.882,1.75,54.523,54.523,0,0,1-7.026-.132l-11.382-.724-5.7-.368c-.671,0-3.421,0-2.066-1.316.684-.645,4.487-.237,5.461-.263,1.895,0,3.776-.092,5.658-.105,3.763,0,7.539,0,11.3.237Q220.4,518.327,226.691,519Z" transform="translate(231.357 111.215)" opacity="0.1"/>
    <path id="Path_173" data-name="Path 173" d="M214.429,523.249c-1.934-.079-4.421,1.079-6.408,1.316a42.2,42.2,0,0,1-6.7.276,37.686,37.686,0,0,1-12.934-2.632C197.087,522.644,205.758,522.907,214.429,523.249Z" transform="translate(230.448 112.595)" opacity="0.1"/>
    <path id="Path_174" data-name="Path 174" d="M190.64,527.615a20.408,20.408,0,0,1,2.487.671c4.789,1.381,9.895.171,14.724-1.026-1.211,1.816-3.461,2.632-5.592,3.105a26.316,26.316,0,0,1-10.908.395c-1.145-.224-3.947-.632-4.579-1.816C185.9,527.194,189.574,527.444,190.64,527.615Z" transform="translate(229.896 114.19)" opacity="0.1"/>
    <path id="Path_175" data-name="Path 175" d="M211.845,534.948a40.349,40.349,0,0,1,4.25,1.105c5.395,1.316,11-.5,16.421-1.737a75.961,75.961,0,0,1,19.882-1.842c-1.2,0-3.092,1.053-4.263,1.408-1.539.46-3.092.882-4.645,1.316a93.429,93.429,0,0,1-9.289,1.816,95.147,95.147,0,0,1-19.053.829c-2.908-.158-7.895.145-10.447-1.316a11.553,11.553,0,0,1,7.145-1.579Z" transform="translate(235.599 115.818)" opacity="0.1"/>
    <path id="Path_176" data-name="Path 176" d="M222.242,405.669s.276,12.8-1.816,18.632c-.645,1.816-1.671,5.171-2.776,8.934-1.224,4.171-2.553,8.842-3.579,12.461s-1.7,6.118-1.7,6.118-4.7,38.237-5.921,56.447v.947c-.066,1.026-.184,2.092-.342,3.2-2.711,18.092-18.316,45.987-23.553,48.224a15.791,15.791,0,0,0-4.408,3.026c0-7.7.382-13.526,1.316-14.7,3.053-3.763,16.118-41.276,16.118-41.276l2.974.158a16.549,16.549,0,0,1-.132-1.671c-.25-7.237,3.132-18.421,3.132-18.421s1.947-22.237,1.947-23.21S201.834,448,201.834,448l3.329-12.5,6.408-4.487c.789-9.645,2.7-21.368,7.224-24.553a17.947,17.947,0,0,0,5.263-6.7c.908.118-.737-.671-.737-.671Z" transform="translate(227.215 73.716)" opacity="0.1"/>
    <path id="Path_177" data-name="Path 177" d="M233.044,398.746a8.315,8.315,0,0,0-7.039.8c-3.2,2.211-9.447,2.079-11.118,1.658s-19.039-2.632-20.421-2.079-4.171-1.947-5.974,1.382-2.632,5.145-4.447,5.987-5.013,3.474-4.592,4.026-4.579,3.947-4.579,3.947L185,447.364s-6.579,41.684-9.724,45.289S143.7,543.1,153.886,551.442a205.186,205.186,0,0,0,25.421,17.105c1.118.553,5.145-6.947,10.71-9.316s22.789-33.7,23.921-51.434,5.974-57.395,5.974-57.395,5.974-21.684,8.066-27.513,1.75-18.645,1.75-18.645Z" transform="translate(218.86 73.468)" fill="#12324e"/>
    <path id="Path_178" data-name="Path 178" d="M263.326,576.031l-2.355,5s-.329,1.487-.75,3.855a2.183,2.183,0,0,1-1.2-.513c-3.474-2.789-23.908-23.763-24.868-42.395-.724-13.737-.382-25.566-.158-30.842.079-1.658.132-2.632.145-2.882,0,0,15.789-19.184,14.026-25.987s-5.974-43.224-5.974-43.224l-.618-4.776-1.053-8.066-2.487-19.552,2.632.605a7.237,7.237,0,0,0,1.579,1.605l2.711,17.171,9.382,10.342,1.526,62.947-4.3,11.263s-3.526.158-9,.316h-.539Z" transform="translate(244.762 76.103)" opacity="0.1"/>
    <path id="Path_179" data-name="Path 179" d="M271.69,472.289s-3.947-1.526-4.171,0-.974,4.855-.974,4.855.684,8.066-2.224,11.263-3.382,16.671-3.382,16.671-4.671,13.342-2.461,17.513c.8,1.513,2.053,9.105,3.3,18.184.789,5.671,1.579,11.921,2.289,17.618,1.316,10.382,2.2,18.947,2.2,18.947s-2.5,9.211-5.974,6.395-23.908-23.789-24.882-42.381c-.684-13.092-.408-24.447-.184-30.053.105-2.382.184-3.724.184-3.724s15.789-19.171,14.039-25.974-5.974-43.224-5.974-43.224l-.737-5.618-.776-6.053-.171-1.316L239.282,406h0c.447.092,16.039,3.618,18.092,5.671s14.724,5,14.724,5a11.144,11.144,0,0,1,7.895,8.105c.118.382.211.789.3,1.211,1.671,8.066,1.118,9.026,2.237,10.421S271.69,472.289,271.69,472.289Z" transform="translate(245.161 75.898)" fill="#12324e"/>
    <path id="Path_180" data-name="Path 180" d="M260.435,526.048c-5.711-1.105-14.118-3.75-13.934-9.539.184-5.434,6.711-7.382,11.645-8.079C259,514.1,259.724,520.351,260.435,526.048Z" transform="translate(248.798 108.244)" opacity="0.1"/>
    <path id="Path_181" data-name="Path 181" d="M277.842,523.464c-.224.487-1.171.908-2.421,1.316a63.5,63.5,0,0,1-9.211,1.5S246.894,524.754,247.171,516c.2-6.289,8.921-7.895,13.829-8.329,1.921-.171,3.263-.145,3.263-.145S278.684,521.662,277.842,523.464Z" transform="translate(249.009 107.959)" fill="#ae6e79"/>
    <path id="Path_182" data-name="Path 182" d="M274.781,523.465c-.224.487-1.171.908-2.421,1.316-5.039-6.737-12.066-15.382-15.5-16.145,0,0,.395-.382,1.039-.961,1.921-.171,3.263-.145,3.263-.145S275.623,521.662,274.781,523.465Z" transform="translate(252.07 107.959)" opacity="0.1"/>
    <path id="Path_183" data-name="Path 183" d="M269.7,428.5l5.7.829a97.954,97.954,0,0,0,6.816,10.421,11.329,11.329,0,0,1,2.5,6.671s8.342,12.368,10.974,13.763,6.671,10.842,6.671,10.842,6.579,4.3,6.579,9.21a80.254,80.254,0,0,0,1.25,12.079c.132.7-.974,9.316-3.763,13.618s-5.553,13.895-5.408,15.566-7.789,10.526-10.013,13.342a56.144,56.144,0,0,0-4.855,8.2l-7.368,13.895s-15.566-22.921-21.263-24.171c0,0,6.395-6.118,9.592-7.224s6.25-10.289,6.395-12.368,2.908-9.039,5.829-10.289,4.447-2.5,3.2-4.447,0-5.7,0-5.7-8.2-10.842-9.316-17.105-8.605-10.421-8.605-10.421L260.3,454.684Z" transform="translate(252.278 83.003)" fill="#12324e"/>
    <path id="Path_184" data-name="Path 184" d="M283.744,468.94a18.013,18.013,0,0,1,11.224-4.25c-2.632.461-5.421,1.026-7.342,2.868a16.765,16.765,0,0,0-2.026,2.632c-.671.947-6.026,7.763-6.882,6.7C277.442,475.256,282.665,469.861,283.744,468.94Z" transform="translate(258.909 94.431)" opacity="0.1"/>
    <path id="Path_185" data-name="Path 185" d="M272.93,468.238a4.789,4.789,0,0,0,3.947-2.8,15.79,15.79,0,0,0,1.237-4.934,73.13,73.13,0,0,1,1.724-8.434,5.367,5.367,0,0,0,.276-1.763,4.986,4.986,0,0,0-.513-1.7,12.1,12.1,0,0,0-1.211-2.526c-1.039,1.171-1.316,3.789-1.75,5.263q-.763,2.842-1.461,5.684C274.956,458.027,273.022,468.238,272.93,468.238Z" transform="translate(257.145 88.555)" opacity="0.1"/>
    <path id="Path_186" data-name="Path 186" d="M288.886,442.18a12.4,12.4,0,0,1-1.921,1.974c-2.224,1.8-5.263,3.329-5.579,6.171a6.8,6.8,0,0,1-.329,2.75c-.724,1.237-2.513,1.145-3.947.895a6.948,6.948,0,0,1-3.329-1.224c-1.487-1.316-1.632-3.553-2.763-5.145a7.026,7.026,0,0,0-5.632-2.526c-2.132-.066-4.25.408-6.368.513a17.644,17.644,0,0,1-4.079-.276c-.447-.079-.882-.171-1.316-.276a17.26,17.26,0,0,1-2.776-.947,14,14,0,0,1-1.316-.632,17.884,17.884,0,0,1-3.947-2.724c-2.079-1.921-3.8-4.539-3.632-7.381a45.332,45.332,0,0,1,1.184-5.053c.855-4.908-2.408-9.553-5.947-13.066-1.408-1.382-2.908-2.75-4.316-4.171a20.816,20.816,0,0,1-5.092-7.237,22.052,22.052,0,0,1-.908-9.053,61.567,61.567,0,0,0,.276-9.329c-1.053-11.053-10.526-19.513-19.921-24.131l-.408-.211a30.263,30.263,0,1,1,40.789,44.316c-.105.342-.2.7-.276,1.039-2.184,8.737-.737,14.026.895,16.947h0c.447.092,16.039,3.618,18.092,5.671s14.724,5,14.724,5a11.145,11.145,0,0,1,7.842,8.105Z" transform="translate(236.268 58.52)" opacity="0.1"/>
    <path id="Path_187" data-name="Path 187" d="M205.428,356.352c.618-.711,1.566-1.079,2.2-1.776,1.961-2.132,0-5.618.724-8.434.776-3.132,4.605-4.5,7.816-4.158s6.211,1.8,9.408,2.158c4.974.566,9.789-1.592,14.645-2.855s10.71-1.316,14.066,2.382,3.105,10.053,7.263,12.75c1.921,1.237,4.342,1.316,6.421,2.3a13.316,13.316,0,0,1,5.434,5.2,27.224,27.224,0,0,1,4.092,17.408c-.342,3.289-1.316,6.5-1.684,9.789a28.551,28.551,0,0,0,.671,10.237c.882,3.461,2.776,7.092,6.184,8.184a9.71,9.71,0,0,1,2.3.789c1.96,1.211,1.71,4.105,1.211,6.355l-2.105,9.276c1.947,1.487,4.96.842,6.855,2.408a5.566,5.566,0,0,1,1.592,2.5,13.671,13.671,0,0,1-4.079,14.921c-2.224,1.816-5.263,3.329-5.579,6.184a6.579,6.579,0,0,1-.329,2.737c-.724,1.237-2.513,1.145-3.947.895a6.817,6.817,0,0,1-3.316-1.224c-1.5-1.316-1.632-3.553-2.763-5.145a7.026,7.026,0,0,0-5.632-2.526c-2.145-.066-4.25.408-6.382.513a18.776,18.776,0,0,1-13.434-4.855A9.737,9.737,0,0,1,243.414,435a48.694,48.694,0,0,1,1.184-5.066c.855-4.895-2.408-9.553-5.934-13.053s-7.684-6.75-9.408-11.421c-2.158-5.789,0-12.237-.645-18.421-1.053-11.053-10.526-19.513-19.908-24.118C206.559,361.878,202.98,359.128,205.428,356.352Z" transform="translate(235.568 55.217)" fill="#444053"/>
    <path id="Path_188" data-name="Path 188" d="M279.73,451.406c-1.487-1.316-1.618-3.539-2.75-5.145a7.079,7.079,0,0,0-5.645-2.513c-2.132-.066-4.237.408-6.368.513a18.842,18.842,0,0,1-13.434-4.789c-2.092-1.921-3.8-4.553-3.645-7.382a48.459,48.459,0,0,1,1.184-5.053c.855-4.908-2.408-9.553-5.947-13.066s-7.671-6.75-9.408-11.421c-2.145-5.776,0-12.237-.632-18.421C232.033,373.078,222.559,364.6,213.164,360c-2.2-1.079-5.776-3.816-3.329-6.579.618-.711,1.553-1.066,2.2-1.763,1.961-2.132,0-5.632.724-8.447a4.46,4.46,0,0,1,.711-1.539,6.013,6.013,0,0,0-5.118,4.039c-.7,2.816,1.237,6.316-.724,8.447-.632.7-1.579,1.053-2.2,1.763-2.447,2.789,1.132,5.526,3.342,6.579,9.434,4.618,18.855,13.079,19.908,24.132.579,6.132-1.513,12.592.645,18.421,1.724,4.671,5.868,7.895,9.408,11.421s6.789,8.158,5.934,13.066a49.262,49.262,0,0,0-1.184,5.053c-.158,2.829,1.553,5.461,3.645,7.382a18.776,18.776,0,0,0,13.434,4.855c2.132-.105,4.237-.579,6.382-.513a7.052,7.052,0,0,1,5.632,2.513c1.132,1.605,1.316,3.882,2.763,5.145a6.816,6.816,0,0,0,3.316,1.224c1.421.263,3.211.355,3.947-.895a3.105,3.105,0,0,0,.316-1.632,6.4,6.4,0,0,1-3.184-1.263Z" transform="translate(235.569 55.583)" opacity="0.1"/>
  </g>
</svg>
