<?xml version="1.0" encoding="utf-8"?>
<!-- Generator: Adobe Illustrator 23.0.1, SVG Export Plug-In . SVG Version: 6.00 Build 0)  -->
<svg version="1.1" id="Ñëîé_1" xmlns="http://www.w3.org/2000/svg" xmlns:xlink="http://www.w3.org/1999/xlink" x="0px" y="0px"
	 viewBox="0 0 950.3 712.7" style="enable-background:new 0 0 950.3 712.7;" xml:space="preserve">
<style type="text/css">
	.st0{fill:url(#SVGID_1_);}
	.st1{fill:url(#SVGID_2_);}
	.st2{fill:url(#SVGID_3_);}
	.st3{fill:url(#SVGID_4_);}
	.st4{opacity:0.6;fill:#020230;}
	.st5{fill:url(#SVGID_5_);}
	.st6{fill:url(#SVGID_6_);}
	.st7{fill:url(#SVGID_7_);}
	.st8{fill:url(#SVGID_8_);}
	.st9{fill:#FFFFFF;}
	.st10{opacity:0.4;}
	.st11{fill:#06033E;}
	.st12{fill:url(#SVGID_9_);}
	.st13{fill:url(#SVGID_10_);}
	.st14{opacity:0.4;fill:#06033E;}
	.st15{opacity:0.5;fill:#06033E;}
	.st16{fill:url(#SVGID_11_);}
	.st17{opacity:0.5;}
	.st18{fill:#E8975B;}
	.st19{fill:#F8359E;}
	.st20{fill:url(#SVGID_12_);}
	.st21{fill:url(#SVGID_13_);}
	.st22{fill:url(#SVGID_14_);}
	.st23{fill:url(#SVGID_15_);}
	.st24{fill:url(#SVGID_16_);}
	.st25{fill:url(#SVGID_17_);}
	.st26{fill:url(#SVGID_18_);}
	.st27{fill:#0C0A78;}
	.st28{fill:url(#SVGID_19_);}
	.st29{opacity:0.5;fill:#FFFFFF;}
	.st30{opacity:0.5;fill:url(#SVGID_20_);}
	.st31{display:none;fill:#FFFFFF;}
	.st32{font-family:'Poppins-Bold';}
	.st33{font-size:62px;}
	.st34{fill:none;}
	.st35{display:none;}
	.st36{display:inline;fill:#FFFFFF;}
	.st37{font-family:'Montserrat-Medium';}
	.st38{font-size:18.6527px;}
</style>
<radialGradient id="SVGID_1_" cx="220.826" cy="91.0591" r="1161.6744" gradientTransform="matrix(1.0858 0 0 1.088 -134.9447 -260.8402)" gradientUnits="userSpaceOnUse">
	<stop  offset="3.968250e-03" style="stop-color:#000007"/>
	<stop  offset="0.2816" style="stop-color:#000003"/>
	<stop  offset="1" style="stop-color:#000000"/>
</radialGradient>
<rect x="0" y="0" class="st0" width="950.3" height="712.7"/>
<linearGradient id="SVGID_2_" gradientUnits="userSpaceOnUse" x1="656.1943" y1="438.2677" x2="688.8057" y2="438.2677">
	<stop  offset="0" style="stop-color:#E39A65"/>
	<stop  offset="1" style="stop-color:#E95F8D"/>
</linearGradient>
<path class="st1" d="M672.5,447.9c-1.2,0-2.4-0.3-3.5-0.9l-11.7-6.8c-0.7-0.4-1.1-1.1-1.1-1.9c0-0.8,0.4-1.5,1.1-1.9l11.7-6.8
	c2.1-1.2,4.8-1.2,7,0l11.7,6.8c0.7,0.4,1.1,1.1,1.1,1.9c0,0.8-0.4,1.5-1.1,1.9l-11.7,6.8C674.9,447.5,673.7,447.9,672.5,447.9z
	 M672.5,430.5c-0.9,0-1.8,0.2-2.6,0.7l-11.7,6.8c-0.1,0.1-0.2,0.2-0.2,0.3c0,0.1,0,0.2,0.2,0.3l11.7,6.8c0,0,0,0,0,0
	c1.6,0.9,3.5,0.9,5.1,0l11.7-6.8c0.1-0.1,0.2-0.2,0.2-0.3c0-0.1,0-0.2-0.2-0.3l-11.7-6.8C674.3,430.8,673.4,430.5,672.5,430.5z"/>
<linearGradient id="SVGID_3_" gradientUnits="userSpaceOnUse" x1="611.543" y1="393.5745" x2="666.3214" y2="393.5745">
	<stop  offset="0" style="stop-color:#E39A65"/>
	<stop  offset="1" style="stop-color:#E95F8D"/>
</linearGradient>
<path class="st2" d="M638.9,409.4c-2,0-3.9-0.5-5.7-1.5l-20.2-11.7c-1-0.6-1.5-1.5-1.5-2.7c0-1.1,0.6-2.1,1.5-2.7l20.2-11.7
	c3.5-2,7.8-2,11.3,0l20.2,11.7c1,0.6,1.5,1.5,1.5,2.7c0,1.1-0.6,2.1-1.5,2.7l-20.2,11.7C642.8,408.9,640.9,409.4,638.9,409.4z
	 M634.2,406.3c2.9,1.7,6.5,1.7,9.5,0l20.2-11.7c0.5-0.3,0.6-0.8,0.6-1c0-0.2-0.1-0.7-0.6-1l-20.2-11.7c-2.9-1.7-6.5-1.7-9.5,0
	L614,392.5c-0.5,0.3-0.6,0.8-0.6,1c0,0.2,0.1,0.7,0.6,1L634.2,406.3z"/>
<linearGradient id="SVGID_4_" gradientUnits="userSpaceOnUse" x1="250.3204" y1="411.9268" x2="305.0987" y2="411.9268">
	<stop  offset="0" style="stop-color:#E39A65"/>
	<stop  offset="1" style="stop-color:#E95F8D"/>
</linearGradient>
<path class="st3" d="M277.7,427.8c-2,0-3.9-0.5-5.7-1.5l-20.2-11.7c-1-0.6-1.5-1.5-1.5-2.7c0-1.1,0.6-2.1,1.5-2.7l20.2-11.7
	c3.5-2,7.8-2,11.3,0l20.2,11.7c1,0.6,1.5,1.5,1.5,2.7c0,1.1-0.6,2.1-1.5,2.7l-20.2,11.7C281.6,427.3,279.7,427.8,277.7,427.8z
	 M277.7,398c-1.6,0-3.3,0.4-4.7,1.3l-20.2,11.7c-0.5,0.3-0.6,0.8-0.6,1c0,0.2,0.1,0.7,0.6,1l20.2,11.7l0,0c2.9,1.7,6.5,1.7,9.5,0
	l20.2-11.7c0.5-0.3,0.6-0.8,0.6-1c0-0.2-0.1-0.7-0.6-1l-20.2-11.7C281,398.4,279.3,398,277.7,398z"/>
<g>
	<path class="st4" d="M482.3,478.6l-144.4-83.4c-2.1-1.2-1.8-3.3,0.6-4.7l92.7-53.5c2.4-1.4,6.1-1.6,8.2-0.3L583.8,420
		c2.1,1.2,1.8,3.3-0.6,4.7l-92.7,53.5C488,479.7,484.4,479.8,482.3,478.6z"/>
	<linearGradient id="SVGID_5_" gradientUnits="userSpaceOnUse" x1="314.0948" y1="408.4131" x2="606.4532" y2="408.4131">
		<stop  offset="0" style="stop-color:#E39A65"/>
		<stop  offset="1" style="stop-color:#E95F8D"/>
	</linearGradient>
	<path class="st5" d="M485.6,493.7c-1.7,0-3.3-0.4-4.5-1.1h0l-164.8-95.2c-1.3-0.8-2.1-1.9-2.1-3.2c0-1.4,1-2.9,2.8-3.9l112.4-65.8
		c3.1-1.8,7.6-2,10.3-0.4l164.8,95.2c1.3,0.8,2.1,1.9,2.1,3.2c0,1.4-1,2.9-2.8,3.9l-112.4,65.8C489.7,493.2,487.6,493.7,485.6,493.7
		z M435,325c-1.7,0-3.5,0.4-4.9,1.2L317.8,392c-1.2,0.7-1.8,1.5-1.8,2.3c0,0.7,0.6,1.2,1.2,1.5L482,491c0,0,0,0,0,0
		c2.1,1.2,6,1,8.4-0.4l112.4-65.8c1.2-0.7,1.8-1.5,1.8-2.3c0-0.7-0.6-1.2-1.2-1.5l-164.8-95.2C437.7,325.3,436.4,325,435,325z"/>
	<radialGradient id="SVGID_6_" cx="475.5812" cy="191.9587" r="223.2961" gradientUnits="userSpaceOnUse">
		<stop  offset="0" style="stop-color:#E39A65"/>
		<stop  offset="0.4742" style="stop-color:#A92FFB"/>
		<stop  offset="0.5947" style="stop-color:#891CFB"/>
		<stop  offset="0.7421" style="stop-color:#6507FA"/>
		<stop  offset="0.8016" style="stop-color:#0D0C6F"/>
	</radialGradient>
	<path class="st6" d="M622.1,280.2l-143.9-83.1c-1-0.6-2-0.7-2.9-0.4v0l0,0c0,0,0,0,0,0l-2.7,0.9l0.9,0.2c-0.4,0.4-0.7,1-0.9,1.6
		l-32.5,105.6c-0.8,2.6,0.4,5.8,2.6,7.1l143.9,83.1c0.3,0.2,0.7,0.3,1.1,0.4l-0.4,0.8l2.5-0.9l0,0c1-0.4,1.9-1.3,2.3-2.7l32.5-105.6
		C625.6,284.7,624.4,281.5,622.1,280.2z"/>
	<radialGradient id="SVGID_7_" cx="339.0086" cy="371.2817" r="244.1723" gradientUnits="userSpaceOnUse">
		<stop  offset="0" style="stop-color:#E39A65"/>
		<stop  offset="0.4742" style="stop-color:#A92FFB"/>
		<stop  offset="0.5679" style="stop-color:#891CFB"/>
		<stop  offset="0.6825" style="stop-color:#6507FA"/>
		<stop  offset="0.7381" style="stop-color:#0D0C6F"/>
	</radialGradient>
	<path class="st7" d="M581.5,399.3L581.5,399.3l-142-82c-2.1-1.2-5.7-1.1-8.2,0.3l-91.8,53l-3.1-1.2l0.9,4.3l0,0
		c0.1,0.6,0.6,1.3,1.4,1.7l143.4,82.8c2.1,1.2,5.7,1.1,8.2-0.3l92-53.1c1.1-0.7,1.8-1.5,2-2.3l0,0l0.9-4.2L581.5,399.3z"/>
	<radialGradient id="SVGID_8_" cx="361.4659" cy="322.2722" r="218.96" gradientUnits="userSpaceOnUse">
		<stop  offset="0" style="stop-color:#E39A65"/>
		<stop  offset="0.4742" style="stop-color:#A92FFB"/>
		<stop  offset="0.5875" style="stop-color:#891CFB"/>
		<stop  offset="0.7262" style="stop-color:#6507FA"/>
		<stop  offset="1" style="stop-color:#3919BB"/>
	</radialGradient>
	<path class="st8" d="M482.3,454.5l-144.4-83.4c-2.1-1.2-1.8-3.3,0.6-4.7l92.7-53.5c2.4-1.4,6.1-1.6,8.2-0.3l144.4,83.4
		c2.1,1.2,1.8,3.3-0.6,4.7l-92.7,53.5C488,455.6,484.4,455.7,482.3,454.5z"/>
	<path class="st9" d="M583.2,399.5l-92.7,53.5c-2.4,1.4-6.1,1.6-8.2,0.3L337.8,370c-0.7-0.4-1.1-0.9-1.3-1.5c-0.3,1,0.1,1.9,1.3,2.6
		l144.4,83.4c2.1,1.2,5.8,1.1,8.2-0.3l92.7-53.5c1.6-0.9,2.2-2.2,1.9-3.2C584.9,398.2,584.2,398.9,583.2,399.5z"/>
	<g class="st10">
		<path class="st11" d="M406.7,357.6l-4.9-2.8c-0.4-0.2-0.3-0.6,0.1-0.9l5.8-3.3c0.5-0.3,1.1-0.3,1.5-0.1l4.9,2.8
			c0.4,0.2,0.3,0.6-0.1,0.9l-5.8,3.3C407.8,357.8,407.1,357.8,406.7,357.6z"/>
		<path class="st11" d="M414.2,362l-4.9-2.8c-0.4-0.2-0.3-0.6,0.1-0.9l5.8-3.3c0.5-0.3,1.1-0.3,1.5-0.1l4.9,2.8
			c0.4,0.2,0.3,0.6-0.1,0.9l-5.8,3.3C415.3,362.1,414.6,362.2,414.2,362z"/>
		<path class="st11" d="M421.8,366.3l-4.9-2.8c-0.4-0.2-0.3-0.6,0.1-0.9l5.8-3.3c0.5-0.3,1.1-0.3,1.5-0.1l4.9,2.8
			c0.4,0.2,0.3,0.6-0.1,0.9l-5.8,3.3C422.9,366.5,422.2,366.5,421.8,366.3z"/>
		<path class="st11" d="M432.2,362.7l-4.9-2.8c-0.4-0.2-0.3-0.6,0.1-0.9l4.8-2.8c0.5-0.3,1.1-0.3,1.5-0.1l4.9,2.8
			c0.4,0.2,0.3,0.6-0.1,0.9l-4.8,2.8C433.3,362.9,432.6,362.9,432.2,362.7z"/>
		<path class="st11" d="M439.7,367.1l-4.9-2.8c-0.4-0.2-0.3-0.6,0.1-0.9l4.8-2.8c0.5-0.3,1.1-0.3,1.5-0.1l4.9,2.8
			c0.4,0.2,0.3,0.6-0.1,0.9l-4.8,2.8C440.8,367.3,440.1,367.3,439.7,367.1z"/>
		<path class="st11" d="M447.3,371.4l-4.9-2.8c-0.4-0.2-0.3-0.6,0.1-0.9l4.8-2.8c0.5-0.3,1.1-0.3,1.5-0.1l4.9,2.8
			c0.4,0.2,0.3,0.6-0.1,0.9l-4.8,2.8C448.3,371.6,447.6,371.6,447.3,371.4z"/>
		<path class="st11" d="M454.8,375.8l-4.9-2.8c-0.4-0.2-0.3-0.6,0.1-0.9l4.8-2.8c0.5-0.3,1.1-0.3,1.5-0.1l4.9,2.8
			c0.4,0.2,0.3,0.6-0.1,0.9l-4.8,2.8C455.9,375.9,455.2,376,454.8,375.8z"/>
		<path class="st11" d="M462.3,380.1l-4.9-2.8c-0.4-0.2-0.3-0.6,0.1-0.9l4.8-2.8c0.5-0.3,1.1-0.3,1.5-0.1l4.9,2.8
			c0.4,0.2,0.3,0.6-0.1,0.9l-4.8,2.8C463.4,380.3,462.7,380.3,462.3,380.1z"/>
		<path class="st11" d="M469.8,384.4l-4.9-2.8c-0.4-0.2-0.3-0.6,0.1-0.9l4.8-2.8c0.5-0.3,1.1-0.3,1.5-0.1l4.9,2.8
			c0.4,0.2,0.3,0.6-0.1,0.9l-4.8,2.8C470.9,384.6,470.2,384.7,469.8,384.4z"/>
		<path class="st11" d="M477.4,388.8l-4.9-2.8c-0.4-0.2-0.3-0.6,0.1-0.9l4.8-2.8c0.5-0.3,1.1-0.3,1.5-0.1l4.9,2.8
			c0.4,0.2,0.3,0.6-0.1,0.9l-4.8,2.8C478.4,389,477.8,389,477.4,388.8z"/>
		<path class="st11" d="M484.9,393.1l-4.9-2.8c-0.4-0.2-0.3-0.6,0.1-0.9l4.8-2.8c0.5-0.3,1.1-0.3,1.5-0.1l4.9,2.8
			c0.4,0.2,0.3,0.6-0.1,0.9l-4.8,2.8C486,393.3,485.3,393.4,484.9,393.1z"/>
		<path class="st11" d="M492.4,397.5l-4.9-2.8c-0.4-0.2-0.3-0.6,0.1-0.9l4.8-2.8c0.5-0.3,1.1-0.3,1.5-0.1l4.9,2.8
			c0.4,0.2,0.3,0.6-0.1,0.9l-4.8,2.8C493.5,397.7,492.8,397.7,492.4,397.5z"/>
		<path class="st11" d="M500,401.8l-4.9-2.8c-0.4-0.2-0.3-0.6,0.1-0.9l4.8-2.8c0.5-0.3,1.1-0.3,1.5-0.1l4.9,2.8
			c0.4,0.2,0.3,0.6-0.1,0.9l-4.8,2.8C501,402,500.4,402.1,500,401.8z"/>
		<path class="st11" d="M443.3,360.6l-4.9-2.8c-0.4-0.2-0.3-0.6,0.1-0.9l4.8-2.8c0.5-0.3,1.1-0.3,1.5-0.1l4.9,2.8
			c0.4,0.2,0.3,0.6-0.1,0.9l-4.8,2.8C444.4,360.8,443.7,360.9,443.3,360.6z"/>
		<path class="st11" d="M435.6,356.2l-4.9-2.8c-0.4-0.2-0.3-0.6,0.1-0.9l4.8-2.8c0.5-0.3,1.1-0.3,1.5-0.1l4.9,2.8
			c0.4,0.2,0.3,0.6-0.1,0.9l-4.8,2.8C436.7,356.4,436,356.5,435.6,356.2z"/>
		<path class="st11" d="M428,351.8l-10.5-6.1c-0.4-0.2-0.3-0.6,0.1-0.9l4.8-2.8c0.5-0.3,1.1-0.3,1.5-0.1l10.5,6.1
			c0.4,0.2,0.3,0.6-0.1,0.9l-4.8,2.8C429.1,352,428.4,352,428,351.8z"/>
		<path class="st11" d="M433.3,346.4l-8.5-4.9c-0.4-0.2-0.3-0.6,0.1-0.9l4.8-2.8c0.5-0.3,1.1-0.3,1.5-0.1l8.5,4.9
			c0.4,0.2,0.3,0.6-0.1,0.9l-4.8,2.8C434.4,346.6,433.7,346.7,433.3,346.4z"/>
		<path class="st11" d="M450.8,365l-4.9-2.8c-0.4-0.2-0.3-0.6,0.1-0.9l4.8-2.8c0.5-0.3,1.1-0.3,1.5-0.1l4.9,2.8
			c0.4,0.2,0.3,0.6-0.1,0.9l-4.8,2.8C451.9,365.2,451.2,365.2,450.8,365z"/>
		<path class="st11" d="M458.3,369.3l-4.9-2.8c-0.4-0.2-0.3-0.6,0.1-0.9l4.8-2.8c0.5-0.3,1.1-0.3,1.5-0.1l4.9,2.8
			c0.4,0.2,0.3,0.6-0.1,0.9l-4.8,2.8C459.4,369.5,458.7,369.6,458.3,369.3z"/>
		<path class="st11" d="M465.9,373.7l-4.9-2.8c-0.4-0.2-0.3-0.6,0.1-0.9l4.8-2.8c0.5-0.3,1.1-0.3,1.5-0.1l4.9,2.8
			c0.4,0.2,0.3,0.6-0.1,0.9l-4.8,2.8C467,373.9,466.3,373.9,465.9,373.7z"/>
		<path class="st11" d="M473.4,378l-4.9-2.8c-0.4-0.2-0.3-0.6,0.1-0.9l4.8-2.8c0.5-0.3,1.1-0.3,1.5-0.1l4.9,2.8
			c0.4,0.2,0.3,0.6-0.1,0.9l-4.8,2.8C474.5,378.2,473.8,378.3,473.4,378z"/>
		<path class="st11" d="M480.9,382.4l-4.9-2.8c-0.4-0.2-0.3-0.6,0.1-0.9l4.8-2.8c0.5-0.3,1.1-0.3,1.5-0.1l4.9,2.8
			c0.4,0.2,0.3,0.6-0.1,0.9l-4.8,2.8C482,382.6,481.3,382.6,480.9,382.4z"/>
		<path class="st11" d="M488.5,386.7l-4.9-2.8c-0.4-0.2-0.3-0.6,0.1-0.9l4.8-2.8c0.5-0.3,1.1-0.3,1.5-0.1l4.9,2.8
			c0.4,0.2,0.3,0.6-0.1,0.9l-4.8,2.8C489.5,386.9,488.9,387,488.5,386.7z"/>
		<path class="st11" d="M496,391.1l-4.9-2.8c-0.4-0.2-0.3-0.6,0.1-0.9l4.8-2.8c0.5-0.3,1.1-0.3,1.5-0.1l4.9,2.8
			c0.4,0.2,0.3,0.6-0.1,0.9l-4.8,2.8C497.1,391.3,496.4,391.3,496,391.1z"/>
		<path class="st11" d="M503.5,395.4l-4.9-2.8c-0.4-0.2-0.3-0.6,0.1-0.9l4.8-2.8c0.5-0.3,1.1-0.3,1.5-0.1l4.9,2.8
			c0.4,0.2,0.3,0.6-0.1,0.9l-4.8,2.8C504.6,395.6,503.9,395.7,503.5,395.4z"/>
		<path class="st11" d="M511.1,399.8l-4.9-2.8c-0.4-0.2-0.3-0.6,0.1-0.9l4.8-2.8c0.5-0.3,1.1-0.3,1.5-0.1l4.9,2.8
			c0.4,0.2,0.3,0.6-0.1,0.9l-4.8,2.8C512.1,400,511.5,400,511.1,399.8z"/>
		<path class="st11" d="M524.4,407.5l-10.6-6.1c-0.4-0.2-0.3-0.6,0.1-0.9l4.8-2.8c0.5-0.3,1.1-0.3,1.5-0.1l10.6,6.1
			c0.4,0.2,0.3,0.6-0.1,0.9l-4.8,2.8C525.5,407.7,524.8,407.7,524.4,407.5z"/>
		<path class="st11" d="M539.1,399l-9-5.2c-0.4-0.2-0.3-0.6,0.1-0.9l4.8-2.8c0.5-0.3,1.1-0.3,1.5-0.1l9,5.2c0.4,0.2,0.3,0.6-0.1,0.9
			l-4.8,2.8C540.2,399.2,539.5,399.3,539.1,399z"/>
		<path class="st11" d="M464,364.1l-4.9-2.8c-0.4-0.2-0.3-0.6,0.1-0.9l4.8-2.8c0.5-0.3,1.1-0.3,1.5-0.1l4.9,2.8
			c0.4,0.2,0.3,0.6-0.1,0.9l-4.8,2.8C465.1,364.3,464.4,364.4,464,364.1z"/>
		<path class="st11" d="M456.3,359.7l-4.9-2.8c-0.4-0.2-0.3-0.6,0.1-0.9l4.8-2.8c0.5-0.3,1.1-0.3,1.5-0.1l4.9,2.8
			c0.4,0.2,0.3,0.6-0.1,0.9l-4.8,2.8C457.4,359.9,456.7,359.9,456.3,359.7z"/>
		<path class="st11" d="M448.6,355.2l-4.9-2.8c-0.4-0.2-0.3-0.6,0.1-0.9l4.8-2.8c0.5-0.3,1.1-0.3,1.5-0.1l4.9,2.8
			c0.4,0.2,0.3,0.6-0.1,0.9l-4.8,2.8C449.6,355.4,449,355.5,448.6,355.2z"/>
		<path class="st11" d="M440.9,350.8L436,348c-0.4-0.2-0.3-0.6,0.1-0.9l4.8-2.8c0.5-0.3,1.1-0.3,1.5-0.1l4.9,2.8
			c0.4,0.2,0.3,0.6-0.1,0.9l-4.8,2.8C441.9,351,441.2,351,440.9,350.8z"/>
		<path class="st11" d="M471.5,368.5l-4.9-2.8c-0.4-0.2-0.3-0.6,0.1-0.9l4.8-2.8c0.5-0.3,1.1-0.3,1.5-0.1l4.9,2.8
			c0.4,0.2,0.3,0.6-0.1,0.9l-4.8,2.8C472.6,368.7,471.9,368.7,471.5,368.5z"/>
		<path class="st11" d="M479.1,372.8l-4.9-2.8c-0.4-0.2-0.3-0.6,0.1-0.9l4.8-2.8c0.5-0.3,1.1-0.3,1.5-0.1l4.9,2.8
			c0.4,0.2,0.3,0.6-0.1,0.9l-4.8,2.8C480.1,373,479.5,373.1,479.1,372.8z"/>
		<path class="st11" d="M486.6,377.2l-4.9-2.8c-0.4-0.2-0.3-0.6,0.1-0.9l4.8-2.8c0.5-0.3,1.1-0.3,1.5-0.1l4.9,2.8
			c0.4,0.2,0.3,0.6-0.1,0.9l-4.8,2.8C487.7,377.4,487,377.4,486.6,377.2z"/>
		<path class="st11" d="M494.1,381.5l-4.9-2.8c-0.4-0.2-0.3-0.6,0.1-0.9l4.8-2.8c0.5-0.3,1.1-0.3,1.5-0.1l4.9,2.8
			c0.4,0.2,0.3,0.6-0.1,0.9l-4.8,2.8C495.2,381.7,494.5,381.8,494.1,381.5z"/>
		<path class="st11" d="M501.7,385.9l-4.9-2.8c-0.4-0.2-0.3-0.6,0.1-0.9l4.8-2.8c0.5-0.3,1.1-0.3,1.5-0.1l4.9,2.8
			c0.4,0.2,0.3,0.6-0.1,0.9l-4.8,2.8C502.7,386.1,502,386.1,501.7,385.9z"/>
		<path class="st11" d="M509.2,390.2l-4.9-2.8c-0.4-0.2-0.3-0.6,0.1-0.9l4.8-2.8c0.5-0.3,1.1-0.3,1.5-0.1l4.9,2.8
			c0.4,0.2,0.3,0.6-0.1,0.9l-4.8,2.8C510.3,390.4,509.6,390.5,509.2,390.2z"/>
		<path class="st11" d="M516.7,394.6l-4.9-2.8c-0.4-0.2-0.3-0.6,0.1-0.9l4.8-2.8c0.5-0.3,1.1-0.3,1.5-0.1l4.9,2.8
			c0.4,0.2,0.3,0.6-0.1,0.9l-4.8,2.8C517.8,394.8,517.1,394.8,516.7,394.6z"/>
		<path class="st11" d="M524.2,398.9l-4.9-2.8c-0.4-0.2-0.3-0.6,0.1-0.9l4.8-2.8c0.5-0.3,1.1-0.3,1.5-0.1l4.9,2.8
			c0.4,0.2,0.3,0.6-0.1,0.9l-4.8,2.8C525.3,399.1,524.6,399.2,524.2,398.9z"/>
		<path class="st11" d="M531.8,403.3l-4.9-2.8c-0.4-0.2-0.3-0.6,0.1-0.9l4.8-2.8c0.5-0.3,1.1-0.3,1.5-0.1l4.9,2.8
			c0.4,0.2,0.3,0.6-0.1,0.9l-4.8,2.8C532.9,403.5,532.2,403.5,531.8,403.3z"/>
		<path class="st11" d="M460,353.4l-4.9-2.8c-0.4-0.2-0.3-0.6,0.1-0.9l4.8-2.8c0.5-0.3,1.1-0.3,1.5-0.1l4.9,2.8
			c0.4,0.2,0.3,0.6-0.1,0.9l-4.8,2.8C461.1,353.6,460.4,353.6,460,353.4z"/>
		<path class="st11" d="M452.5,349.1l-4.9-2.8c-0.4-0.2-0.3-0.6,0.1-0.9l4.8-2.8c0.5-0.3,1.1-0.3,1.5-0.1l4.9,2.8
			c0.4,0.2,0.3,0.6-0.1,0.9l-4.8,2.8C453.6,349.3,452.9,349.3,452.5,349.1z"/>
		<path class="st11" d="M445.1,344.7l-4.9-2.8c-0.4-0.2-0.3-0.6,0.1-0.9l4.8-2.8c0.5-0.3,1.1-0.3,1.5-0.1l4.9,2.8
			c0.4,0.2,0.3,0.6-0.1,0.9l-4.8,2.8C446.1,344.9,445.4,345,445.1,344.7z"/>
		<path class="st11" d="M437.6,340.4l-4.9-2.8c-0.4-0.2-0.3-0.6,0.1-0.9l4.8-2.8c0.5-0.3,1.1-0.3,1.5-0.1l4.9,2.8
			c0.4,0.2,0.3,0.6-0.1,0.9l-4.8,2.8C438.6,340.6,438,340.6,437.6,340.4z"/>
		<path class="st11" d="M445.3,336l-4.9-2.8c-0.4-0.2-0.3-0.6,0.1-0.9l1.6-0.9c0.5-0.3,1.1-0.3,1.5-0.1l4.9,2.8
			c0.4,0.2,0.3,0.6-0.1,0.9l-1.6,0.9C446.3,336.2,445.7,336.2,445.3,336z"/>
		<path class="st11" d="M455,341.6l-4.9-2.8c-0.4-0.2-0.3-0.6,0.1-0.9l1.6-0.9c0.5-0.3,1.1-0.3,1.5-0.1l4.9,2.8
			c0.4,0.2,0.3,0.6-0.1,0.9l-1.6,0.9C456.1,341.8,455.4,341.8,455,341.6z"/>
		<path class="st11" d="M462.5,345.9l-4.9-2.8c-0.4-0.2-0.3-0.6,0.1-0.9l1.6-0.9c0.5-0.3,1.1-0.3,1.5-0.1l4.9,2.8
			c0.4,0.2,0.3,0.6-0.1,0.9l-1.6,0.9C463.6,346.1,462.9,346.1,462.5,345.9z"/>
		<path class="st11" d="M470,350.2l-4.9-2.8c-0.4-0.2-0.3-0.6,0.1-0.9l1.6-0.9c0.5-0.3,1.1-0.3,1.5-0.1l4.9,2.8
			c0.4,0.2,0.3,0.6-0.1,0.9l-1.6,0.9C471,350.4,470.4,350.5,470,350.2z"/>
		<path class="st11" d="M477.4,354.5l-4.9-2.8c-0.4-0.2-0.3-0.6,0.1-0.9l1.6-0.9c0.5-0.3,1.1-0.3,1.5-0.1l4.9,2.8
			c0.4,0.2,0.3,0.6-0.1,0.9l-1.6,0.9C478.5,354.7,477.8,354.8,477.4,354.5z"/>
		<path class="st11" d="M519.1,378.6l-4.9-2.8c-0.4-0.2-0.3-0.6,0.1-0.9l1.6-0.9c0.5-0.3,1.1-0.3,1.5-0.1l4.9,2.8
			c0.4,0.2,0.3,0.6-0.1,0.9l-1.6,0.9C520.2,378.8,519.5,378.8,519.1,378.6z"/>
		<path class="st11" d="M526.5,382.9l-4.9-2.8c-0.4-0.2-0.3-0.6,0.1-0.9l1.6-0.9c0.5-0.3,1.1-0.3,1.5-0.1l4.9,2.8
			c0.4,0.2,0.3,0.6-0.1,0.9l-1.6,0.9C527.6,383.1,526.9,383.1,526.5,382.9z"/>
		<path class="st11" d="M534,387.2l-4.9-2.8c-0.4-0.2-0.3-0.6,0.1-0.9l1.6-0.9c0.5-0.3,1.1-0.3,1.5-0.1l4.9,2.8
			c0.4,0.2,0.3,0.6-0.1,0.9l-1.6,0.9C535.1,387.4,534.4,387.4,534,387.2z"/>
		<path class="st11" d="M541.5,391.5l-4.9-2.8c-0.4-0.2-0.3-0.6,0.1-0.9l1.6-0.9c0.5-0.3,1.1-0.3,1.5-0.1l4.9,2.8
			c0.4,0.2,0.3,0.6-0.1,0.9l-1.6,0.9C542.5,391.7,541.9,391.7,541.5,391.5z"/>
		<path class="st11" d="M467.6,357.7l-4.9-2.8c-0.4-0.2-0.3-0.6,0.1-0.9l4.8-2.8c0.5-0.3,1.1-0.3,1.5-0.1l4.9,2.8
			c0.4,0.2,0.3,0.6-0.1,0.9l-4.8,2.8C468.6,357.9,468,358,467.6,357.7z"/>
		<path class="st11" d="M475.1,362.1l-4.9-2.8c-0.4-0.2-0.3-0.6,0.1-0.9l4.8-2.8c0.5-0.3,1.1-0.3,1.5-0.1l4.9,2.8
			c0.4,0.2,0.3,0.6-0.1,0.9l-4.8,2.8C476.2,362.3,475.5,362.3,475.1,362.1z"/>
		<path class="st11" d="M482.6,366.4l-4.9-2.8c-0.4-0.2-0.3-0.6,0.1-0.9l4.8-2.8c0.5-0.3,1.1-0.3,1.5-0.1l4.9,2.8
			c0.4,0.2,0.3,0.6-0.1,0.9l-4.8,2.8C483.7,366.6,483,366.7,482.6,366.4z"/>
		<path class="st11" d="M490.2,370.8l-4.9-2.8c-0.4-0.2-0.3-0.6,0.1-0.9l4.8-2.8c0.5-0.3,1.1-0.3,1.5-0.1l4.9,2.8
			c0.4,0.2,0.3,0.6-0.1,0.9l-4.8,2.8C491.2,371,490.6,371,490.2,370.8z"/>
		<path class="st11" d="M497.7,375.1l-4.9-2.8c-0.4-0.2-0.3-0.6,0.1-0.9l4.8-2.8c0.5-0.3,1.1-0.3,1.5-0.1l4.9,2.8
			c0.4,0.2,0.3,0.6-0.1,0.9l-4.8,2.8C498.8,375.3,498.1,375.4,497.7,375.1z"/>
		<path class="st11" d="M505.2,379.5l-4.9-2.8c-0.4-0.2-0.3-0.6,0.1-0.9l4.8-2.8c0.5-0.3,1.1-0.3,1.5-0.1l4.9,2.8
			c0.4,0.2,0.3,0.6-0.1,0.9l-4.8,2.8C506.3,379.7,505.6,379.7,505.2,379.5z"/>
		<path class="st11" d="M512.8,383.8l-4.9-2.8c-0.4-0.2-0.3-0.6,0.1-0.9l4.8-2.8c0.5-0.3,1.1-0.3,1.5-0.1l4.9,2.8
			c0.4,0.2,0.3,0.6-0.1,0.9l-4.8,2.8C513.8,384,513.1,384.1,512.8,383.8z"/>
		<path class="st11" d="M520.3,388.2l-4.9-2.8c-0.4-0.2-0.3-0.6,0.1-0.9l4.8-2.8c0.5-0.3,1.1-0.3,1.5-0.1l4.9,2.8
			c0.4,0.2,0.3,0.6-0.1,0.9l-4.8,2.8C521.4,388.4,520.7,388.4,520.3,388.2z"/>
		<path class="st11" d="M527.8,392.5l-4.9-2.8c-0.4-0.2-0.3-0.6,0.1-0.9l4.8-2.8c0.5-0.3,1.1-0.3,1.5-0.1l4.9,2.8
			c0.4,0.2,0.3,0.6-0.1,0.9l-4.8,2.8C528.9,392.7,528.2,392.7,527.8,392.5z"/>
		<path class="st11" d="M424.5,358.3l-14.4-8.3c-0.4-0.2-0.3-0.6,0.1-0.9l4.8-2.8c0.5-0.3,1.1-0.3,1.5-0.1l14.4,8.3
			c0.4,0.2,0.3,0.6-0.1,0.9l-4.8,2.8C425.6,358.5,424.9,358.5,424.5,358.3z"/>
		<path class="st11" d="M517,411.7l-14.4-8.3c-0.4-0.2-0.3-0.6,0.1-0.9l4.8-2.8c0.5-0.3,1.1-0.3,1.5-0.1l14.4,8.3
			c0.4,0.2,0.3,0.6-0.1,0.9l-4.8,2.8C518.1,411.9,517.4,411.9,517,411.7z"/>
		<path class="st11" d="M486.9,403.9l-4.9-2.8c-0.4-0.2-0.3-0.6,0.1-0.9l5.8-3.3c0.5-0.3,1.1-0.3,1.5-0.1l4.9,2.8
			c0.4,0.2,0.3,0.6-0.1,0.9l-5.8,3.3C488,404.1,487.3,404.1,486.9,403.9z"/>
		<path class="st11" d="M432.2,372.3l-7.8-4.5c-0.4-0.2-0.3-0.6,0.1-0.9l5.8-3.3c0.5-0.3,1.1-0.3,1.5-0.1l7.8,4.5
			c0.4,0.2,0.3,0.6-0.1,0.9l-5.8,3.3C433.3,372.5,432.6,372.6,432.2,372.3z"/>
		<path class="st11" d="M479.7,399.7l-7.8-4.5c-0.4-0.2-0.3-0.6,0.1-0.9l5.8-3.3c0.5-0.3,1.1-0.3,1.5-0.1l7.8,4.5
			c0.4,0.2,0.3,0.6-0.1,0.9l-5.8,3.3C480.7,399.9,480.1,399.9,479.7,399.7z"/>
		<path class="st11" d="M443.1,378.6l-7.8-4.5c-0.4-0.2-0.3-0.6,0.1-0.9l5.8-3.3c0.5-0.3,1.1-0.3,1.5-0.1l7.8,4.5
			c0.4,0.2,0.3,0.6-0.1,0.9l-5.8,3.3C444.2,378.8,443.5,378.8,443.1,378.6z"/>
		<path class="st11" d="M442.7,369.9l33.9,19.6c0.4,0.2,0.4,0.6,0,0.9l-5.9,3.4c-0.4,0.2-1.1,0.2-1.5,0l-33.9-19.6L442.7,369.9z"/>
		<path class="st11" d="M508,411.8l5.4,3.1c0.3,0.2,0.3,0.5-0.1,0.7l-2.4,1.4c-0.4,0.2-0.9,0.2-1.3,0.1l-5.4-3.1
			c-0.3-0.2-0.3-0.5,0.1-0.7l2.4-1.4C507.1,411.6,507.6,411.6,508,411.8z"/>
		<path class="st11" d="M500.4,407.4l5.4,3.1c0.3,0.2,0.3,0.5-0.1,0.7l-2.4,1.4c-0.4,0.2-0.9,0.2-1.3,0.1l-5.4-3.1
			c-0.3-0.2-0.3-0.5,0.1-0.7l2.4-1.4C499.5,407.2,500,407.2,500.4,407.4z"/>
		<path class="st11" d="M492.8,403.1l5.4,3.1c0.3,0.2,0.3,0.5-0.1,0.7l-2.4,1.4c-0.4,0.2-0.9,0.2-1.3,0.1l-5.4-3.1
			c-0.3-0.2-0.3-0.5,0.1-0.7l2.4-1.4C492,402.9,492.5,402.9,492.8,403.1z"/>
		<path class="st11" d="M504.5,405l5.4,3.1c0.3,0.2,0.3,0.5-0.1,0.7l-2.4,1.4c-0.4,0.2-0.9,0.2-1.3,0.1l-5.4-3.1
			c-0.3-0.2-0.3-0.5,0.1-0.7l2.4-1.4C503.6,404.8,504.2,404.8,504.5,405z"/>
	</g>
	<g class="st10">
		<path class="st11" d="M406.7,357.6l-4.9-2.8c-0.4-0.2-0.3-0.6,0.1-0.9l5.8-3.3c0.5-0.3,1.1-0.3,1.5-0.1l4.9,2.8
			c0.4,0.2,0.3,0.6-0.1,0.9l-5.8,3.3C407.8,357.8,407.1,357.8,406.7,357.6z"/>
		<path class="st11" d="M414.2,362l-4.9-2.8c-0.4-0.2-0.3-0.6,0.1-0.9l5.8-3.3c0.5-0.3,1.1-0.3,1.5-0.1l4.9,2.8
			c0.4,0.2,0.3,0.6-0.1,0.9l-5.8,3.3C415.3,362.1,414.6,362.2,414.2,362z"/>
		<path class="st11" d="M421.8,366.3l-4.9-2.8c-0.4-0.2-0.3-0.6,0.1-0.9l5.8-3.3c0.5-0.3,1.1-0.3,1.5-0.1l4.9,2.8
			c0.4,0.2,0.3,0.6-0.1,0.9l-5.8,3.3C422.9,366.5,422.2,366.5,421.8,366.3z"/>
		<path class="st11" d="M432.2,362.7l-4.9-2.8c-0.4-0.2-0.3-0.6,0.1-0.9l4.8-2.8c0.5-0.3,1.1-0.3,1.5-0.1l4.9,2.8
			c0.4,0.2,0.3,0.6-0.1,0.9l-4.8,2.8C433.3,362.9,432.6,362.9,432.2,362.7z"/>
		<path class="st11" d="M439.7,367.1l-4.9-2.8c-0.4-0.2-0.3-0.6,0.1-0.9l4.8-2.8c0.5-0.3,1.1-0.3,1.5-0.1l4.9,2.8
			c0.4,0.2,0.3,0.6-0.1,0.9l-4.8,2.8C440.8,367.3,440.1,367.3,439.7,367.1z"/>
		<path class="st11" d="M447.3,371.4l-4.9-2.8c-0.4-0.2-0.3-0.6,0.1-0.9l4.8-2.8c0.5-0.3,1.1-0.3,1.5-0.1l4.9,2.8
			c0.4,0.2,0.3,0.6-0.1,0.9l-4.8,2.8C448.3,371.6,447.6,371.6,447.3,371.4z"/>
		<path class="st11" d="M454.8,375.8l-4.9-2.8c-0.4-0.2-0.3-0.6,0.1-0.9l4.8-2.8c0.5-0.3,1.1-0.3,1.5-0.1l4.9,2.8
			c0.4,0.2,0.3,0.6-0.1,0.9l-4.8,2.8C455.9,375.9,455.2,376,454.8,375.8z"/>
		<path class="st11" d="M462.3,380.1l-4.9-2.8c-0.4-0.2-0.3-0.6,0.1-0.9l4.8-2.8c0.5-0.3,1.1-0.3,1.5-0.1l4.9,2.8
			c0.4,0.2,0.3,0.6-0.1,0.9l-4.8,2.8C463.4,380.3,462.7,380.3,462.3,380.1z"/>
		<path class="st11" d="M469.8,384.4l-4.9-2.8c-0.4-0.2-0.3-0.6,0.1-0.9l4.8-2.8c0.5-0.3,1.1-0.3,1.5-0.1l4.9,2.8
			c0.4,0.2,0.3,0.6-0.1,0.9l-4.8,2.8C470.9,384.6,470.2,384.7,469.8,384.4z"/>
		<path class="st11" d="M477.4,388.8l-4.9-2.8c-0.4-0.2-0.3-0.6,0.1-0.9l4.8-2.8c0.5-0.3,1.1-0.3,1.5-0.1l4.9,2.8
			c0.4,0.2,0.3,0.6-0.1,0.9l-4.8,2.8C478.4,389,477.8,389,477.4,388.8z"/>
		<path class="st11" d="M484.9,393.1l-4.9-2.8c-0.4-0.2-0.3-0.6,0.1-0.9l4.8-2.8c0.5-0.3,1.1-0.3,1.5-0.1l4.9,2.8
			c0.4,0.2,0.3,0.6-0.1,0.9l-4.8,2.8C486,393.3,485.3,393.4,484.9,393.1z"/>
		<path class="st11" d="M492.4,397.5l-4.9-2.8c-0.4-0.2-0.3-0.6,0.1-0.9l4.8-2.8c0.5-0.3,1.1-0.3,1.5-0.1l4.9,2.8
			c0.4,0.2,0.3,0.6-0.1,0.9l-4.8,2.8C493.5,397.7,492.8,397.7,492.4,397.5z"/>
		<path class="st11" d="M500,401.8l-4.9-2.8c-0.4-0.2-0.3-0.6,0.1-0.9l4.8-2.8c0.5-0.3,1.1-0.3,1.5-0.1l4.9,2.8
			c0.4,0.2,0.3,0.6-0.1,0.9l-4.8,2.8C501,402,500.4,402.1,500,401.8z"/>
		<path class="st11" d="M443.3,360.6l-4.9-2.8c-0.4-0.2-0.3-0.6,0.1-0.9l4.8-2.8c0.5-0.3,1.1-0.3,1.5-0.1l4.9,2.8
			c0.4,0.2,0.3,0.6-0.1,0.9l-4.8,2.8C444.4,360.8,443.7,360.9,443.3,360.6z"/>
		<path class="st11" d="M435.6,356.2l-4.9-2.8c-0.4-0.2-0.3-0.6,0.1-0.9l4.8-2.8c0.5-0.3,1.1-0.3,1.5-0.1l4.9,2.8
			c0.4,0.2,0.3,0.6-0.1,0.9l-4.8,2.8C436.7,356.4,436,356.5,435.6,356.2z"/>
		<path class="st11" d="M428,351.8l-10.5-6.1c-0.4-0.2-0.3-0.6,0.1-0.9l4.8-2.8c0.5-0.3,1.1-0.3,1.5-0.1l10.5,6.1
			c0.4,0.2,0.3,0.6-0.1,0.9l-4.8,2.8C429.1,352,428.4,352,428,351.8z"/>
		<path class="st11" d="M433.3,346.4l-8.5-4.9c-0.4-0.2-0.3-0.6,0.1-0.9l4.8-2.8c0.5-0.3,1.1-0.3,1.5-0.1l8.5,4.9
			c0.4,0.2,0.3,0.6-0.1,0.9l-4.8,2.8C434.4,346.6,433.7,346.7,433.3,346.4z"/>
		<path class="st11" d="M450.8,365l-4.9-2.8c-0.4-0.2-0.3-0.6,0.1-0.9l4.8-2.8c0.5-0.3,1.1-0.3,1.5-0.1l4.9,2.8
			c0.4,0.2,0.3,0.6-0.1,0.9l-4.8,2.8C451.9,365.2,451.2,365.2,450.8,365z"/>
		<path class="st11" d="M458.3,369.3l-4.9-2.8c-0.4-0.2-0.3-0.6,0.1-0.9l4.8-2.8c0.5-0.3,1.1-0.3,1.5-0.1l4.9,2.8
			c0.4,0.2,0.3,0.6-0.1,0.9l-4.8,2.8C459.4,369.5,458.7,369.6,458.3,369.3z"/>
		<path class="st11" d="M465.9,373.7l-4.9-2.8c-0.4-0.2-0.3-0.6,0.1-0.9l4.8-2.8c0.5-0.3,1.1-0.3,1.5-0.1l4.9,2.8
			c0.4,0.2,0.3,0.6-0.1,0.9l-4.8,2.8C467,373.9,466.3,373.9,465.9,373.7z"/>
		<path class="st11" d="M473.4,378l-4.9-2.8c-0.4-0.2-0.3-0.6,0.1-0.9l4.8-2.8c0.5-0.3,1.1-0.3,1.5-0.1l4.9,2.8
			c0.4,0.2,0.3,0.6-0.1,0.9l-4.8,2.8C474.5,378.2,473.8,378.3,473.4,378z"/>
		<path class="st11" d="M480.9,382.4l-4.9-2.8c-0.4-0.2-0.3-0.6,0.1-0.9l4.8-2.8c0.5-0.3,1.1-0.3,1.5-0.1l4.9,2.8
			c0.4,0.2,0.3,0.6-0.1,0.9l-4.8,2.8C482,382.6,481.3,382.6,480.9,382.4z"/>
		<path class="st11" d="M488.5,386.7l-4.9-2.8c-0.4-0.2-0.3-0.6,0.1-0.9l4.8-2.8c0.5-0.3,1.1-0.3,1.5-0.1l4.9,2.8
			c0.4,0.2,0.3,0.6-0.1,0.9l-4.8,2.8C489.5,386.9,488.9,387,488.5,386.7z"/>
		<path class="st11" d="M496,391.1l-4.9-2.8c-0.4-0.2-0.3-0.6,0.1-0.9l4.8-2.8c0.5-0.3,1.1-0.3,1.5-0.1l4.9,2.8
			c0.4,0.2,0.3,0.6-0.1,0.9l-4.8,2.8C497.1,391.3,496.4,391.3,496,391.1z"/>
		<path class="st11" d="M503.5,395.4l-4.9-2.8c-0.4-0.2-0.3-0.6,0.1-0.9l4.8-2.8c0.5-0.3,1.1-0.3,1.5-0.1l4.9,2.8
			c0.4,0.2,0.3,0.6-0.1,0.9l-4.8,2.8C504.6,395.6,503.9,395.7,503.5,395.4z"/>
		<path class="st11" d="M511.1,399.8l-4.9-2.8c-0.4-0.2-0.3-0.6,0.1-0.9l4.8-2.8c0.5-0.3,1.1-0.3,1.5-0.1l4.9,2.8
			c0.4,0.2,0.3,0.6-0.1,0.9l-4.8,2.8C512.1,400,511.5,400,511.1,399.8z"/>
		<path class="st11" d="M524.4,407.5l-10.6-6.1c-0.4-0.2-0.3-0.6,0.1-0.9l4.8-2.8c0.5-0.3,1.1-0.3,1.5-0.1l10.6,6.1
			c0.4,0.2,0.3,0.6-0.1,0.9l-4.8,2.8C525.5,407.7,524.8,407.7,524.4,407.5z"/>
		<path class="st11" d="M539.1,399l-9-5.2c-0.4-0.2-0.3-0.6,0.1-0.9l4.8-2.8c0.5-0.3,1.1-0.3,1.5-0.1l9,5.2c0.4,0.2,0.3,0.6-0.1,0.9
			l-4.8,2.8C540.2,399.2,539.5,399.3,539.1,399z"/>
		<path class="st11" d="M464,364.1l-4.9-2.8c-0.4-0.2-0.3-0.6,0.1-0.9l4.8-2.8c0.5-0.3,1.1-0.3,1.5-0.1l4.9,2.8
			c0.4,0.2,0.3,0.6-0.1,0.9l-4.8,2.8C465.1,364.3,464.4,364.4,464,364.1z"/>
		<path class="st11" d="M456.3,359.7l-4.9-2.8c-0.4-0.2-0.3-0.6,0.1-0.9l4.8-2.8c0.5-0.3,1.1-0.3,1.5-0.1l4.9,2.8
			c0.4,0.2,0.3,0.6-0.1,0.9l-4.8,2.8C457.4,359.9,456.7,359.9,456.3,359.7z"/>
		<path class="st11" d="M448.6,355.2l-4.9-2.8c-0.4-0.2-0.3-0.6,0.1-0.9l4.8-2.8c0.5-0.3,1.1-0.3,1.5-0.1l4.9,2.8
			c0.4,0.2,0.3,0.6-0.1,0.9l-4.8,2.8C449.6,355.4,449,355.5,448.6,355.2z"/>
		<path class="st11" d="M440.9,350.8L436,348c-0.4-0.2-0.3-0.6,0.1-0.9l4.8-2.8c0.5-0.3,1.1-0.3,1.5-0.1l4.9,2.8
			c0.4,0.2,0.3,0.6-0.1,0.9l-4.8,2.8C441.9,351,441.2,351,440.9,350.8z"/>
		<path class="st11" d="M471.5,368.5l-4.9-2.8c-0.4-0.2-0.3-0.6,0.1-0.9l4.8-2.8c0.5-0.3,1.1-0.3,1.5-0.1l4.9,2.8
			c0.4,0.2,0.3,0.6-0.1,0.9l-4.8,2.8C472.6,368.7,471.9,368.7,471.5,368.5z"/>
		<path class="st11" d="M479.1,372.8l-4.9-2.8c-0.4-0.2-0.3-0.6,0.1-0.9l4.8-2.8c0.5-0.3,1.1-0.3,1.5-0.1l4.9,2.8
			c0.4,0.2,0.3,0.6-0.1,0.9l-4.8,2.8C480.1,373,479.5,373.1,479.1,372.8z"/>
		<path class="st11" d="M486.6,377.2l-4.9-2.8c-0.4-0.2-0.3-0.6,0.1-0.9l4.8-2.8c0.5-0.3,1.1-0.3,1.5-0.1l4.9,2.8
			c0.4,0.2,0.3,0.6-0.1,0.9l-4.8,2.8C487.7,377.4,487,377.4,486.6,377.2z"/>
		<path class="st11" d="M494.1,381.5l-4.9-2.8c-0.4-0.2-0.3-0.6,0.1-0.9l4.8-2.8c0.5-0.3,1.1-0.3,1.5-0.1l4.9,2.8
			c0.4,0.2,0.3,0.6-0.1,0.9l-4.8,2.8C495.2,381.7,494.5,381.8,494.1,381.5z"/>
		<path class="st11" d="M501.7,385.9l-4.9-2.8c-0.4-0.2-0.3-0.6,0.1-0.9l4.8-2.8c0.5-0.3,1.1-0.3,1.5-0.1l4.9,2.8
			c0.4,0.2,0.3,0.6-0.1,0.9l-4.8,2.8C502.7,386.1,502,386.1,501.7,385.9z"/>
		<path class="st11" d="M509.2,390.2l-4.9-2.8c-0.4-0.2-0.3-0.6,0.1-0.9l4.8-2.8c0.5-0.3,1.1-0.3,1.5-0.1l4.9,2.8
			c0.4,0.2,0.3,0.6-0.1,0.9l-4.8,2.8C510.3,390.4,509.6,390.5,509.2,390.2z"/>
		<path class="st11" d="M516.7,394.6l-4.9-2.8c-0.4-0.2-0.3-0.6,0.1-0.9l4.8-2.8c0.5-0.3,1.1-0.3,1.5-0.1l4.9,2.8
			c0.4,0.2,0.3,0.6-0.1,0.9l-4.8,2.8C517.8,394.8,517.1,394.8,516.7,394.6z"/>
		<path class="st11" d="M524.2,398.9l-4.9-2.8c-0.4-0.2-0.3-0.6,0.1-0.9l4.8-2.8c0.5-0.3,1.1-0.3,1.5-0.1l4.9,2.8
			c0.4,0.2,0.3,0.6-0.1,0.9l-4.8,2.8C525.3,399.1,524.6,399.2,524.2,398.9z"/>
		<path class="st11" d="M531.8,403.3l-4.9-2.8c-0.4-0.2-0.3-0.6,0.1-0.9l4.8-2.8c0.5-0.3,1.1-0.3,1.5-0.1l4.9,2.8
			c0.4,0.2,0.3,0.6-0.1,0.9l-4.8,2.8C532.9,403.5,532.2,403.5,531.8,403.3z"/>
		<path class="st11" d="M460,353.4l-4.9-2.8c-0.4-0.2-0.3-0.6,0.1-0.9l4.8-2.8c0.5-0.3,1.1-0.3,1.5-0.1l4.9,2.8
			c0.4,0.2,0.3,0.6-0.1,0.9l-4.8,2.8C461.1,353.6,460.4,353.6,460,353.4z"/>
		<path class="st11" d="M452.5,349.1l-4.9-2.8c-0.4-0.2-0.3-0.6,0.1-0.9l4.8-2.8c0.5-0.3,1.1-0.3,1.5-0.1l4.9,2.8
			c0.4,0.2,0.3,0.6-0.1,0.9l-4.8,2.8C453.6,349.3,452.9,349.3,452.5,349.1z"/>
		<path class="st11" d="M445.1,344.7l-4.9-2.8c-0.4-0.2-0.3-0.6,0.1-0.9l4.8-2.8c0.5-0.3,1.1-0.3,1.5-0.1l4.9,2.8
			c0.4,0.2,0.3,0.6-0.1,0.9l-4.8,2.8C446.1,344.9,445.4,345,445.1,344.7z"/>
		<path class="st11" d="M437.6,340.4l-4.9-2.8c-0.4-0.2-0.3-0.6,0.1-0.9l4.8-2.8c0.5-0.3,1.1-0.3,1.5-0.1l4.9,2.8
			c0.4,0.2,0.3,0.6-0.1,0.9l-4.8,2.8C438.6,340.6,438,340.6,437.6,340.4z"/>
		<path class="st11" d="M445.3,336l-4.9-2.8c-0.4-0.2-0.3-0.6,0.1-0.9l1.6-0.9c0.5-0.3,1.1-0.3,1.5-0.1l4.9,2.8
			c0.4,0.2,0.3,0.6-0.1,0.9l-1.6,0.9C446.3,336.2,445.7,336.2,445.3,336z"/>
		<path class="st11" d="M455,341.6l-4.9-2.8c-0.4-0.2-0.3-0.6,0.1-0.9l1.6-0.9c0.5-0.3,1.1-0.3,1.5-0.1l4.9,2.8
			c0.4,0.2,0.3,0.6-0.1,0.9l-1.6,0.9C456.1,341.8,455.4,341.8,455,341.6z"/>
		<path class="st11" d="M462.5,345.9l-4.9-2.8c-0.4-0.2-0.3-0.6,0.1-0.9l1.6-0.9c0.5-0.3,1.1-0.3,1.5-0.1l4.9,2.8
			c0.4,0.2,0.3,0.6-0.1,0.9l-1.6,0.9C463.6,346.1,462.9,346.1,462.5,345.9z"/>
		<path class="st11" d="M470,350.2l-4.9-2.8c-0.4-0.2-0.3-0.6,0.1-0.9l1.6-0.9c0.5-0.3,1.1-0.3,1.5-0.1l4.9,2.8
			c0.4,0.2,0.3,0.6-0.1,0.9l-1.6,0.9C471,350.4,470.4,350.5,470,350.2z"/>
		<path class="st11" d="M477.4,354.5l-4.9-2.8c-0.4-0.2-0.3-0.6,0.1-0.9l1.6-0.9c0.5-0.3,1.1-0.3,1.5-0.1l4.9,2.8
			c0.4,0.2,0.3,0.6-0.1,0.9l-1.6,0.9C478.5,354.7,477.8,354.8,477.4,354.5z"/>
		<path class="st11" d="M519.1,378.6l-4.9-2.8c-0.4-0.2-0.3-0.6,0.1-0.9l1.6-0.9c0.5-0.3,1.1-0.3,1.5-0.1l4.9,2.8
			c0.4,0.2,0.3,0.6-0.1,0.9l-1.6,0.9C520.2,378.8,519.5,378.8,519.1,378.6z"/>
		<path class="st11" d="M526.5,382.9l-4.9-2.8c-0.4-0.2-0.3-0.6,0.1-0.9l1.6-0.9c0.5-0.3,1.1-0.3,1.5-0.1l4.9,2.8
			c0.4,0.2,0.3,0.6-0.1,0.9l-1.6,0.9C527.6,383.1,526.9,383.1,526.5,382.9z"/>
		<path class="st11" d="M534,387.2l-4.9-2.8c-0.4-0.2-0.3-0.6,0.1-0.9l1.6-0.9c0.5-0.3,1.1-0.3,1.5-0.1l4.9,2.8
			c0.4,0.2,0.3,0.6-0.1,0.9l-1.6,0.9C535.1,387.4,534.4,387.4,534,387.2z"/>
		<path class="st11" d="M541.5,391.5l-4.9-2.8c-0.4-0.2-0.3-0.6,0.1-0.9l1.6-0.9c0.5-0.3,1.1-0.3,1.5-0.1l4.9,2.8
			c0.4,0.2,0.3,0.6-0.1,0.9l-1.6,0.9C542.5,391.7,541.9,391.7,541.5,391.5z"/>
		<path class="st11" d="M467.6,357.7l-4.9-2.8c-0.4-0.2-0.3-0.6,0.1-0.9l4.8-2.8c0.5-0.3,1.1-0.3,1.5-0.1l4.9,2.8
			c0.4,0.2,0.3,0.6-0.1,0.9l-4.8,2.8C468.6,357.9,468,358,467.6,357.7z"/>
		<path class="st11" d="M475.1,362.1l-4.9-2.8c-0.4-0.2-0.3-0.6,0.1-0.9l4.8-2.8c0.5-0.3,1.1-0.3,1.5-0.1l4.9,2.8
			c0.4,0.2,0.3,0.6-0.1,0.9l-4.8,2.8C476.2,362.3,475.5,362.3,475.1,362.1z"/>
		<path class="st11" d="M482.6,366.4l-4.9-2.8c-0.4-0.2-0.3-0.6,0.1-0.9l4.8-2.8c0.5-0.3,1.1-0.3,1.5-0.1l4.9,2.8
			c0.4,0.2,0.3,0.6-0.1,0.9l-4.8,2.8C483.7,366.6,483,366.7,482.6,366.4z"/>
		<path class="st11" d="M490.2,370.8l-4.9-2.8c-0.4-0.2-0.3-0.6,0.1-0.9l4.8-2.8c0.5-0.3,1.1-0.3,1.5-0.1l4.9,2.8
			c0.4,0.2,0.3,0.6-0.1,0.9l-4.8,2.8C491.2,371,490.6,371,490.2,370.8z"/>
		<path class="st11" d="M497.7,375.1l-4.9-2.8c-0.4-0.2-0.3-0.6,0.1-0.9l4.8-2.8c0.5-0.3,1.1-0.3,1.5-0.1l4.9,2.8
			c0.4,0.2,0.3,0.6-0.1,0.9l-4.8,2.8C498.8,375.3,498.1,375.4,497.7,375.1z"/>
		<path class="st11" d="M505.2,379.5l-4.9-2.8c-0.4-0.2-0.3-0.6,0.1-0.9l4.8-2.8c0.5-0.3,1.1-0.3,1.5-0.1l4.9,2.8
			c0.4,0.2,0.3,0.6-0.1,0.9l-4.8,2.8C506.3,379.7,505.6,379.7,505.2,379.5z"/>
		<path class="st11" d="M512.8,383.8l-4.9-2.8c-0.4-0.2-0.3-0.6,0.1-0.9l4.8-2.8c0.5-0.3,1.1-0.3,1.5-0.1l4.9,2.8
			c0.4,0.2,0.3,0.6-0.1,0.9l-4.8,2.8C513.8,384,513.1,384.1,512.8,383.8z"/>
		<path class="st11" d="M520.3,388.2l-4.9-2.8c-0.4-0.2-0.3-0.6,0.1-0.9l4.8-2.8c0.5-0.3,1.1-0.3,1.5-0.1l4.9,2.8
			c0.4,0.2,0.3,0.6-0.1,0.9l-4.8,2.8C521.4,388.4,520.7,388.4,520.3,388.2z"/>
		<path class="st11" d="M527.8,392.5l-4.9-2.8c-0.4-0.2-0.3-0.6,0.1-0.9l4.8-2.8c0.5-0.3,1.1-0.3,1.5-0.1l4.9,2.8
			c0.4,0.2,0.3,0.6-0.1,0.9l-4.8,2.8C528.9,392.7,528.2,392.7,527.8,392.5z"/>
		<path class="st11" d="M424.5,358.3l-14.4-8.3c-0.4-0.2-0.3-0.6,0.1-0.9l4.8-2.8c0.5-0.3,1.1-0.3,1.5-0.1l14.4,8.3
			c0.4,0.2,0.3,0.6-0.1,0.9l-4.8,2.8C425.6,358.5,424.9,358.5,424.5,358.3z"/>
		<path class="st11" d="M517,411.7l-14.4-8.3c-0.4-0.2-0.3-0.6,0.1-0.9l4.8-2.8c0.5-0.3,1.1-0.3,1.5-0.1l14.4,8.3
			c0.4,0.2,0.3,0.6-0.1,0.9l-4.8,2.8C518.1,411.9,517.4,411.9,517,411.7z"/>
		<path class="st11" d="M486.9,403.9l-4.9-2.8c-0.4-0.2-0.3-0.6,0.1-0.9l5.8-3.3c0.5-0.3,1.1-0.3,1.5-0.1l4.9,2.8
			c0.4,0.2,0.3,0.6-0.1,0.9l-5.8,3.3C488,404.1,487.3,404.1,486.9,403.9z"/>
		<path class="st11" d="M432.2,372.3l-7.8-4.5c-0.4-0.2-0.3-0.6,0.1-0.9l5.8-3.3c0.5-0.3,1.1-0.3,1.5-0.1l7.8,4.5
			c0.4,0.2,0.3,0.6-0.1,0.9l-5.8,3.3C433.3,372.5,432.6,372.6,432.2,372.3z"/>
		<path class="st11" d="M479.7,399.7l-7.8-4.5c-0.4-0.2-0.3-0.6,0.1-0.9l5.8-3.3c0.5-0.3,1.1-0.3,1.5-0.1l7.8,4.5
			c0.4,0.2,0.3,0.6-0.1,0.9l-5.8,3.3C480.7,399.9,480.1,399.9,479.7,399.7z"/>
		<path class="st11" d="M443.1,378.6l-7.8-4.5c-0.4-0.2-0.3-0.6,0.1-0.9l5.8-3.3c0.5-0.3,1.1-0.3,1.5-0.1l7.8,4.5
			c0.4,0.2,0.3,0.6-0.1,0.9l-5.8,3.3C444.2,378.8,443.5,378.8,443.1,378.6z"/>
		<path class="st11" d="M442.7,369.9l33.9,19.6c0.4,0.2,0.4,0.6,0,0.9l-5.9,3.4c-0.4,0.2-1.1,0.2-1.5,0l-33.9-19.6L442.7,369.9z"/>
		<path class="st11" d="M508,411.8l5.4,3.1c0.3,0.2,0.3,0.5-0.1,0.7l-2.4,1.4c-0.4,0.2-0.9,0.2-1.3,0.1l-5.4-3.1
			c-0.3-0.2-0.3-0.5,0.1-0.7l2.4-1.4C507.1,411.6,507.6,411.6,508,411.8z"/>
		<path class="st11" d="M500.4,407.4l5.4,3.1c0.3,0.2,0.3,0.5-0.1,0.7l-2.4,1.4c-0.4,0.2-0.9,0.2-1.3,0.1l-5.4-3.1
			c-0.3-0.2-0.3-0.5,0.1-0.7l2.4-1.4C499.5,407.2,500,407.2,500.4,407.4z"/>
		<path class="st11" d="M492.8,403.1l5.4,3.1c0.3,0.2,0.3,0.5-0.1,0.7l-2.4,1.4c-0.4,0.2-0.9,0.2-1.3,0.1l-5.4-3.1
			c-0.3-0.2-0.3-0.5,0.1-0.7l2.4-1.4C492,402.9,492.5,402.9,492.8,403.1z"/>
		<path class="st11" d="M504.5,405l5.4,3.1c0.3,0.2,0.3,0.5-0.1,0.7l-2.4,1.4c-0.4,0.2-0.9,0.2-1.3,0.1l-5.4-3.1
			c-0.3-0.2-0.3-0.5,0.1-0.7l2.4-1.4C503.6,404.8,504.2,404.8,504.5,405z"/>
	</g>
	<radialGradient id="SVGID_9_" cx="416.0133" cy="238.5362" r="223.3409" gradientUnits="userSpaceOnUse">
		<stop  offset="0" style="stop-color:#E39A65"/>
		<stop  offset="0.4742" style="stop-color:#A92FFB"/>
		<stop  offset="0.5875" style="stop-color:#891CFB"/>
		<stop  offset="0.7262" style="stop-color:#6507FA"/>
		<stop  offset="1" style="stop-color:#3919BB"/>
	</radialGradient>
	<path class="st12" d="M584.2,396.2l-143.9-83.1c-2.3-1.3-3.4-4.5-2.6-7.1l32.5-105.6c0.8-2.6,3.3-3.7,5.6-2.4l143.9,83.1
		c2.3,1.3,3.4,4.5,2.6,7.1l-32.5,105.6C589,396.4,586.5,397.5,584.2,396.2z"/>
	<linearGradient id="SVGID_10_" gradientUnits="userSpaceOnUse" x1="440.561" y1="297.1636" x2="619.5273" y2="297.1636">
		<stop  offset="0" style="stop-color:#3919BB"/>
		<stop  offset="1" style="stop-color:#6507FA"/>
	</linearGradient>
	<path class="st13" d="M582.9,392.5l-139.5-80.6c-2.2-1.2-3.3-4.3-2.5-6.8l31.1-101c0.8-2.5,3.2-3.5,5.3-2.3l139.5,80.6
		c2.2,1.2,3.3,4.3,2.5,6.8l-31.1,101C587.4,392.7,585,393.8,582.9,392.5z"/>
	<path class="st14" d="M582.9,392.5l-139.5-80.6c-2.2-1.2-3.3-4.3-2.5-6.8l31.1-101c0.8-2.5,3.2-3.5,5.3-2.3l139.5,80.6
		c2.2,1.2,3.3,4.3,2.5,6.8l-31.1,101C587.4,392.7,585,393.8,582.9,392.5z"/>
	<path class="st14" d="M582.9,392.5l-139.5-80.6c-2.2-1.2-3.3-4.3-2.5-6.8l31.1-101c0.8-2.5,3.2-3.5,5.3-2.3l139.5,80.6
		c2.2,1.2,3.3,4.3,2.5,6.8l-31.1,101C587.4,392.7,585,393.8,582.9,392.5z"/>
	<path class="st15" d="M575.4,361.6l-94.5-54.5c-1.5-0.9-2.3-2.9-1.7-4.7l21.4-69.4c0.5-1.7,2.2-2.4,3.6-1.6l94.5,54.5
		c1.5,0.9,2.3,2.9,1.7,4.7L579,360.1C578.5,361.8,576.9,362.5,575.4,361.6z"/>
	<g>
		<radialGradient id="SVGID_11_" cx="334.4816" cy="190.8429" r="347.8475" gradientUnits="userSpaceOnUse">
			<stop  offset="0" style="stop-color:#E39A65"/>
			<stop  offset="0.4742" style="stop-color:#A92FFB"/>
			<stop  offset="0.5875" style="stop-color:#891CFB"/>
			<stop  offset="0.7262" style="stop-color:#6507FA"/>
			<stop  offset="1" style="stop-color:#3919BB"/>
		</radialGradient>
		<path class="st16" d="M562.6,363.3l-94.5-54.5c-1.5-0.9-2.3-2.9-1.7-4.7l21.4-69.4c0.5-1.7,2.2-2.4,3.6-1.6l94.5,54.5
			c1.5,0.9,2.3,2.9,1.7,4.7l-21.4,69.4C565.7,363.5,564.1,364.2,562.6,363.3z"/>
	</g>
	<g class="st17">
		<path class="st11" d="M562.6,363.3l-94.5-54.5c-1.5-0.9-2.3-2.9-1.7-4.7l21.4-69.4c0.5-1.7,2.2-2.4,3.6-1.6l94.5,54.5
			c1.5,0.9,2.3,2.9,1.7,4.7l-21.4,69.4C565.7,363.5,564.1,364.2,562.6,363.3z"/>
	</g>
	<path class="st9" d="M585.9,287.7l-94.5-54.5c-0.9-0.5-1.9-0.5-2.7,0.1c0.4,0,0.9,0.1,1.4,0.3l94.5,54.5c1.5,0.9,2.3,2.9,1.7,4.7
		L565,362.2c-0.2,0.6-0.5,1.1-1,1.5c1,0,1.9-0.7,2.3-1.9l21.4-69.4C588.1,290.7,587.4,288.6,585.9,287.7z"/>
	<path class="st14" d="M443.5,420c-1.3,0-2.5-0.3-3.5-0.8v0l-37.8-21.8c-1-0.6-1.6-1.4-1.6-2.3c0-1.1,0.8-2.1,2.1-2.9l19.5-11.2
		c2.4-1.4,5.9-1.5,8-0.3l37.8,21.8c1,0.6,1.6,1.4,1.6,2.3c0,1.1-0.8,2.1-2.1,2.9l-19.5,11.2C446.6,419.6,445,420,443.5,420z
		 M426.6,380.8c-1.4,0-2.8,0.3-3.9,1L403.2,393c-1,0.6-1.5,1.3-1.5,1.9c0,0.7,0.5,1.1,1,1.4l37.8,21.9c1.7,1,4.9,0.9,6.9-0.3
		l19.5-11.2c1-0.6,1.5-1.3,1.5-1.9c0-0.7-0.5-1.1-1-1.4l-37.8-21.8C428.8,381,427.7,380.8,426.6,380.8z"/>
</g>
<g>
	<g>
		<path class="st9" d="M514.4,269.6l-5.8-3.4c-0.5-0.3-0.8-1.1-0.6-1.7l0,0c0.2-0.6,0.8-0.9,1.3-0.5l5.8,3.4
			c0.5,0.3,0.8,1.1,0.6,1.7l0,0C515.6,269.7,515,269.9,514.4,269.6z"/>
		<path class="st9" d="M528.3,277.6l-8.6-5c-0.5-0.3-0.8-1.1-0.6-1.7l0,0c0.2-0.6,0.8-0.9,1.3-0.5l8.6,5c0.5,0.3,0.8,1.1,0.6,1.7
			l0,0C529.5,277.7,528.9,277.9,528.3,277.6z"/>
		<path class="st9" d="M502.7,295.6l-5.8-3.4c-0.5-0.3-0.8-1.1-0.6-1.7l0,0c0.2-0.6,0.8-0.9,1.3-0.5l5.8,3.4
			c0.5,0.3,0.8,1.1,0.6,1.7l0,0C503.8,295.7,503.2,295.9,502.7,295.6z"/>
		<path class="st9" d="M515.1,302.7l-8.6-5c-0.5-0.3-0.8-1.1-0.6-1.7l0,0c0.2-0.6,0.8-0.9,1.3-0.5l8.6,5c0.5,0.3,0.8,1.1,0.6,1.7
			l0,0C516.2,302.8,515.6,303.1,515.1,302.7z"/>
		<path class="st9" d="M496.9,265l-3.6-2.1c-0.5-0.3-0.8-1.1-0.6-1.7l0,0c0.2-0.6,0.8-0.9,1.3-0.5l3.6,2.1c0.5,0.3,0.8,1.1,0.6,1.7
			l0,0C498.1,265,497.5,265.3,496.9,265z"/>
		<path class="st9" d="M507.9,276.8l-11.1-6.4c-0.5-0.3-0.8-1.1-0.6-1.7l0,0c0.2-0.6,0.8-0.9,1.3-0.5l11.1,6.4
			c0.5,0.3,0.8,1.1,0.6,1.7l0,0C509,276.8,508.5,277.1,507.9,276.8z"/>
		<path class="st9" d="M497.6,281.8l-3.6-2.1c-0.5-0.3-0.8-1.1-0.6-1.7l0,0c0.2-0.6,0.8-0.9,1.3-0.5l3.6,2.1
			c0.5,0.3,0.8,1.1,0.6,1.7h0C498.8,281.8,498.2,282.1,497.6,281.8z"/>
		<path class="st9" d="M516.4,314.5l-9.7-5.6c-0.5-0.3-0.8-1.1-0.6-1.7l0,0c0.2-0.6,0.8-0.9,1.3-0.5l9.7,5.6
			c0.5,0.3,0.8,1.1,0.6,1.7l0,0C517.5,314.5,516.9,314.8,516.4,314.5z"/>
		<path class="st9" d="M493.5,290.3l-2.3-1.4c-0.5-0.3-0.8-1.1-0.6-1.7l0,0c0.2-0.6,0.8-0.9,1.3-0.5l2.3,1.4
			c0.5,0.3,0.8,1.1,0.6,1.7l0,0C494.7,290.4,494.1,290.6,493.5,290.3z"/>
		<path class="st9" d="M491.3,300l-2.9-1.7c-0.5-0.3-0.8-1.1-0.6-1.7v0c0.2-0.6,0.8-0.9,1.3-0.5l2.9,1.7c0.5,0.3,0.8,1.1,0.6,1.7
			l0,0C492.5,300,491.9,300.3,491.3,300z"/>
		<path class="st9" d="M502.6,306.5l-7.7-4.4c-0.5-0.3-0.8-1.1-0.6-1.7l0,0c0.2-0.6,0.8-0.9,1.3-0.5l7.7,4.4
			c0.5,0.3,0.8,1.1,0.6,1.7l0,0C503.8,306.6,503.2,306.8,502.6,306.5z"/>
		<path class="st9" d="M492.5,306.1L487,303c-0.5-0.3-0.8-1.1-0.6-1.7l0,0c0.2-0.6,0.8-0.9,1.3-0.5l5.5,3.2c0.5,0.3,0.8,1.1,0.6,1.7
			l0,0C493.7,306.2,493.1,306.5,492.5,306.1z"/>
		<path class="st9" d="M524.8,319.3l-3.5-2c-0.5-0.3-0.8-1.1-0.6-1.7l0,0c0.2-0.6,0.8-0.9,1.3-0.5l3.5,2c0.5,0.3,0.8,1.1,0.6,1.7
			l0,0C525.9,319.4,525.3,319.6,524.8,319.3z"/>
		<path class="st9" d="M511.2,289.6l-9.7-5.6c-0.5-0.3-0.8-1.1-0.6-1.7l0,0c0.2-0.6,0.8-0.9,1.3-0.5l9.7,5.6
			c0.5,0.3,0.8,1.1,0.6,1.7l0,0C512.3,289.7,511.7,289.9,511.2,289.6z"/>
	</g>
	<path class="st18" d="M512.4,284.8l-17-9.8c-0.5-0.3-0.8-1.1-0.6-1.7l0,0c0.2-0.6,0.8-0.9,1.3-0.5l17,9.8c0.5,0.3,0.8,1.1,0.6,1.7
		l0,0C513.5,284.9,512.9,285.1,512.4,284.8z"/>
	<path class="st18" d="M502.3,289.9l-9.7-5.6c-0.5-0.3-0.8-1.1-0.6-1.7l0,0c0.2-0.6,0.8-0.9,1.3-0.5l9.7,5.6
		c0.5,0.3,0.8,1.1,0.6,1.7l0,0C503.5,290,502.9,290.3,502.3,289.9z"/>
	<path class="st18" d="M518.6,293.9l-3.5-2c-0.5-0.3-0.8-1.1-0.6-1.7l0,0c0.2-0.6,0.8-0.9,1.3-0.5l3.5,2c0.5,0.3,0.8,1.1,0.6,1.7
		l0,0C519.7,293.9,519.1,294.2,518.6,293.9z"/>
	<path class="st18" d="M554.6,292.8l-21-12.1c-0.5-0.3-0.8-1.1-0.6-1.7l0,0c0.2-0.6,0.8-0.9,1.3-0.5l21,12.1
		c0.5,0.3,0.8,1.1,0.6,1.7l0,0C555.7,292.9,555.1,293.1,554.6,292.8z"/>
	<path class="st19" d="M501.5,300.4l-11.7-6.8c-0.5-0.3-0.8-1.1-0.6-1.7l0,0c0.2-0.6,0.8-0.9,1.3-0.5l11.7,6.8
		c0.5,0.3,0.8,1.1,0.6,1.7l0,0C502.7,300.5,502.1,300.7,501.5,300.4z"/>
	<path class="st19" d="M503.3,263.2l-8.6-5c-0.5-0.3-0.8-1.1-0.6-1.7l0,0c0.2-0.6,0.8-0.9,1.3-0.5l8.6,5c0.5,0.3,0.8,1.1,0.6,1.7
		l0,0C504.4,263.2,503.8,263.5,503.3,263.2z"/>
	<path class="st18" d="M490.7,310.6l-10-5.8c-0.5-0.3-0.8-1.1-0.6-1.7l0,0c0.2-0.6,0.8-0.9,1.3-0.5l10,5.8c0.5,0.3,0.8,1.1,0.6,1.7
		l0,0C491.9,310.6,491.3,310.9,490.7,310.6z"/>
</g>
<g>
	<path class="st9" d="M557,282l-4.3-2.5c-0.4-0.2-0.6-0.8-0.5-1.2l0,0c0.1-0.4,0.6-0.6,1-0.4l4.3,2.5c0.4,0.2,0.6,0.8,0.5,1.2l0,0
		C557.8,282,557.4,282.2,557,282z"/>
	<path class="st9" d="M565.1,286.7l-4.3-2.5c-0.4-0.2-0.6-0.8-0.5-1.2l0,0c0.1-0.4,0.6-0.6,1-0.4l4.3,2.5c0.4,0.2,0.6,0.8,0.5,1.2
		l0,0C565.9,286.8,565.5,286.9,565.1,286.7z"/>
	<path class="st9" d="M573.2,291.4l-4.3-2.5c-0.4-0.2-0.6-0.8-0.5-1.2l0,0c0.1-0.4,0.6-0.6,1-0.4l4.3,2.5c0.4,0.2,0.6,0.8,0.5,1.2
		l0,0C574.1,291.5,573.6,291.6,573.2,291.4z"/>
	<path class="st19" d="M577.2,293.7l-0.1-0.1c-0.4-0.2-0.6-0.8-0.5-1.2l0,0c0.1-0.4,0.6-0.6,1-0.4l0.1,0.1c0.4,0.2,0.6,0.8,0.5,1.2
		l0,0C578.1,293.8,577.6,293.9,577.2,293.7z"/>
</g>
<linearGradient id="SVGID_12_" gradientUnits="userSpaceOnUse" x1="318.545" y1="321.6451" x2="395.3203" y2="321.6451">
	<stop  offset="0" style="stop-color:#E39A65"/>
	<stop  offset="1" style="stop-color:#E95F8D"/>
</linearGradient>
<path class="st20" d="M356.9,343.7c-2.7,0-5.4-0.7-7.8-2.1l0,0l-28.6-16.5c-1.2-0.7-2-2-2-3.4c0-1.4,0.7-2.7,2-3.4l28.6-16.5
	c4.8-2.8,10.8-2.8,15.6,0l28.6,16.5c1.2,0.7,2,2,2,3.4c0,1.4-0.7,2.7-2,3.4l-28.6,16.5C362.3,343,359.6,343.7,356.9,343.7z M350,340
	c4.2,2.5,9.5,2.5,13.8,0l28.6-16.5c0.7-0.4,1-1.1,1-1.8c0-0.8-0.4-1.4-1-1.8l-28.6-16.5c-4.2-2.5-9.5-2.5-13.8,0l-28.6,16.5
	c-0.7,0.4-1,1.1-1,1.8c0,0.8,0.4,1.4,1,1.8L350,340z"/>
<g>
	<ellipse class="st4" cx="356.8" cy="322" rx="19.6" ry="11.3"/>
	<radialGradient id="SVGID_13_" cx="325.3516" cy="259.0195" r="165.349" gradientUnits="userSpaceOnUse">
		<stop  offset="0" style="stop-color:#E39A65"/>
		<stop  offset="0.1528" style="stop-color:#A92FFB"/>
		<stop  offset="0.4087" style="stop-color:#3919BB"/>
		<stop  offset="0.9311" style="stop-color:#3919BB"/>
	</radialGradient>
	<path class="st21" d="M385.9,241.2H330l5.2,60.6l0,0c0,3.4,2.2,6.7,6.7,9.3c8.9,5.1,23.3,5.1,32.2,0c4.4-2.6,6.7-5.9,6.7-9.3
		L385.9,241.2z"/>
	<path class="st14" d="M385.9,241.2H330l0.9,10c1.3,1.6,3,3.2,5.2,4.7c10.7,7.1,28.3,8.5,40.4,3.4l-1.9,44.3c-0.1,1.9-0.7,3.8-2,5.3
		c-1.8,2.1-5.3,4.6-12,6.1c4.9-0.3,9.7-1.6,13.5-3.8c4.4-2.6,6.7-5.9,6.7-9.3l4.2-48.6l0,0L385.9,241.2z"/>
	<ellipse class="st14" cx="357.9" cy="241.2" rx="28" ry="16.1"/>
	<ellipse class="st14" cx="357.9" cy="235.5" rx="24.1" ry="13.9"/>
	<linearGradient id="SVGID_14_" gradientUnits="userSpaceOnUse" x1="328.2779" y1="238.5361" x2="387.5873" y2="238.5361">
		<stop  offset="0" style="stop-color:#E39A65"/>
		<stop  offset="0.252" style="stop-color:#A92FFB"/>
		<stop  offset="0.5556" style="stop-color:#3919BB"/>
	</linearGradient>
	<path class="st22" d="M387.6,240.5L387.6,240.5L387.6,240.5c0-0.1,0-0.1,0-0.1l-0.5-5.4l0,0.1c-0.2-4.1-3.1-8.2-8.5-11.3
		c-11.4-6.6-29.8-6.6-41.1,0c-5.6,3.2-8.4,7.4-8.5,11.6l0,0l-0.5,4.8c0,0.1,0,0.3,0,0.4l0,0.1l0,0c-0.3,4.6,2.6,9.3,8.7,12.8
		c11.6,6.7,30.4,6.7,41.9,0C385,249.8,387.9,245.1,387.6,240.5z"/>
	<linearGradient id="SVGID_15_" gradientUnits="userSpaceOnUse" x1="333.8391" y1="235.5225" x2="382.0234" y2="235.5225">
		<stop  offset="0" style="stop-color:#4F1FEC"/>
		<stop  offset="1" style="stop-color:#A92FFB"/>
	</linearGradient>
	<ellipse class="st23" cx="357.9" cy="235.5" rx="24.1" ry="13.9"/>
	<linearGradient id="SVGID_16_" gradientUnits="userSpaceOnUse" x1="332.696" y1="235.5225" x2="380.8802" y2="235.5225">
		<stop  offset="0" style="stop-color:#4F1FEC"/>
		<stop  offset="1" style="stop-color:#A92FFB"/>
	</linearGradient>
	<ellipse class="st24" cx="356.8" cy="235.5" rx="24.1" ry="13.9"/>
	<path class="st14" d="M343.8,227.8c9.4-5.4,24.7-5.4,34.1,0c0.1,0.1,0.2,0.1,0.3,0.2c-0.9-0.8-2-1.6-3.2-2.3
		c-9.4-5.4-24.7-5.4-34.1,0c-9.3,5.4-9.4,14-0.3,19.5C334.5,239.8,335.6,232.5,343.8,227.8z"/>
	<linearGradient id="SVGID_17_" gradientUnits="userSpaceOnUse" x1="333.8431" y1="229.1715" x2="394.5953" y2="229.1715">
		<stop  offset="0" style="stop-color:#131060"/>
		<stop  offset="0.1857" style="stop-color:#141062"/>
		<stop  offset="0.2823" style="stop-color:#19106A"/>
		<stop  offset="0.3584" style="stop-color:#221078"/>
		<stop  offset="0.4238" style="stop-color:#2E0F8B"/>
		<stop  offset="0.4823" style="stop-color:#3E0FA3"/>
		<stop  offset="0.5359" style="stop-color:#510EC2"/>
		<stop  offset="0.5847" style="stop-color:#680DE5"/>
		<stop  offset="0.6071" style="stop-color:#740DF8"/>
		<stop  offset="0.6179" style="stop-color:#7A14F0"/>
		<stop  offset="0.6826" style="stop-color:#9B3CC3"/>
		<stop  offset="0.7477" style="stop-color:#B75D9D"/>
		<stop  offset="0.8123" style="stop-color:#CC7680"/>
		<stop  offset="0.8762" style="stop-color:#DC886C"/>
		<stop  offset="0.9391" style="stop-color:#E5935F"/>
		<stop  offset="1" style="stop-color:#E8975B"/>
	</linearGradient>
	<path class="st25" d="M340.9,228.1c9.4-5.4,24.7-5.4,34.1,0c4.2,2.4,6.5,5.5,7,8.6c0.6-4-1.7-8-7-11c-9.4-5.4-24.7-5.4-34.1,0
		c-5.2,3-7.6,7.1-7,11C334.4,233.6,336.7,230.5,340.9,228.1z"/>
	<radialGradient id="SVGID_18_" cx="320.8752" cy="221.756" r="108.1645" gradientUnits="userSpaceOnUse">
		<stop  offset="0" style="stop-color:#E39A65"/>
		<stop  offset="0.252" style="stop-color:#A92FFB"/>
		<stop  offset="0.7357" style="stop-color:#3919BB"/>
	</radialGradient>
	<path class="st26" d="M378.7,223.8c-11.3-6.7-29.8-6.8-41.3-0.4c-11.5,6.5-11.5,17.1-0.2,23.8c11.3,6.7,29.8,6.8,41.3,0.4
		C389.9,241.1,390,230.5,378.7,223.8z M375,245.4c-3.1,1.8-6.9,3-11,3.6l-0.4-1.4c-0.2-0.6-0.7-1-1.3-1h-8.7c-0.6,0-1.1,0.4-1.3,1
		l-0.4,1.4c-4-0.6-7.8-1.8-11-3.6c-9.4-5.4-9.4-14.2,0-19.7c9.4-5.4,24.7-5.4,34.1,0C384.4,231.1,384.4,239.9,375,245.4z"/>
	<g>
		<path class="st9" d="M375,224.7c-9.4-5.4-24.7-5.4-34.1,0c-4.9,2.8-7.3,6.6-7,10.3c0.2-3.4,2.6-6.7,7-9.3c9.4-5.4,24.7-5.4,34.1,0
			c4.5,2.6,6.8,5.9,7,9.3C382.2,231.3,379.9,227.5,375,224.7z"/>
		<path class="st9" d="M378.5,246.6c-11.5,6.5-29.9,6.3-41.3-0.4c-5.4-3.2-8.2-7.3-8.4-11.4c-0.2,4.4,2.6,9,8.4,12.4
			c11.3,6.7,29.8,6.8,41.3,0.4c6-3.4,8.9-7.9,8.6-12.5C386.9,239.3,384,243.5,378.5,246.6z"/>
	</g>
	<path class="st27" d="M360.5,249.7h-5.2c-0.4,0-0.7-0.3-0.7-0.7V249c0-0.4,0.3-0.7,0.7-0.7h5.2c0.4,0,0.7,0.3,0.7,0.7v0.1
		C361.2,249.4,360.9,249.7,360.5,249.7z"/>
	<linearGradient id="SVGID_19_" gradientUnits="userSpaceOnUse" x1="354.118" y1="248.7787" x2="362.5226" y2="248.7787">
		<stop  offset="0" style="stop-color:#131060"/>
		<stop  offset="0.1857" style="stop-color:#141062"/>
		<stop  offset="0.2823" style="stop-color:#19106A"/>
		<stop  offset="0.3584" style="stop-color:#221078"/>
		<stop  offset="0.4238" style="stop-color:#2E0F8B"/>
		<stop  offset="0.4823" style="stop-color:#3E0FA3"/>
		<stop  offset="0.5359" style="stop-color:#510EC2"/>
		<stop  offset="0.5847" style="stop-color:#680DE5"/>
		<stop  offset="0.6071" style="stop-color:#740DF8"/>
		<stop  offset="0.6179" style="stop-color:#7A14F0"/>
		<stop  offset="0.6826" style="stop-color:#9B3CC3"/>
		<stop  offset="0.7477" style="stop-color:#B75D9D"/>
		<stop  offset="0.8123" style="stop-color:#CC7680"/>
		<stop  offset="0.8762" style="stop-color:#DC886C"/>
		<stop  offset="0.9391" style="stop-color:#E5935F"/>
		<stop  offset="1" style="stop-color:#E8975B"/>
	</linearGradient>
	<path class="st28" d="M360.5,248.3h-5.2c-0.4,0-0.7,0.3-0.7,0.7v0.1c0,0.1,0,0.1,0,0.2c0.1-0.3,0.3-0.5,0.6-0.5h5.2
		c0.3,0,0.5,0.2,0.6,0.5c0-0.1,0-0.1,0-0.2V249C361.2,248.6,360.9,248.3,360.5,248.3z"/>
	<g>
		<path class="st18" d="M358.7,295.6c-0.6,2.4-3.1,3.8-5.5,3.2c-2.4-0.6-3.8-3.1-3.2-5.5c0.6-2.4,2.9-3.1,5.3-2.4
			C357.7,291.5,359.4,293.2,358.7,295.6z"/>
		<path class="st18" d="M362.2,290.9c-0.9,0.9-2.1,0.8-2.8,0c-0.8-0.8-0.9-1.9,0-2.8c0.9-0.9,2.6-1.3,3.4-0.5
			C363.6,288.3,363.1,290,362.2,290.9z"/>
		<path class="st18" d="M357.6,287.1c-0.2,1.2-1.2,1.8-2.3,1.6c-1.1-0.2-1.8-1.1-1.6-2.3c0.2-1.2,1.4-2.6,2.4-2.4
			C357.2,284.2,357.8,285.9,357.6,287.1z"/>
		<path class="st18" d="M351.8,286.5c0.5,1.2-0.1,2.2-1.1,2.6c-1,0.4-2.1,0.1-2.6-1.1c-0.5-1.2-0.2-2.9,0.8-3.3
			C349.9,284.3,351.3,285.4,351.8,286.5z"/>
	</g>
</g>
<path class="st29" d="M359.8,249c0,0,15.6-5.2,9.3-23.2c-6.3-18-18.7-23.4-13.7-37.8c0,0-7.8,11.6-0.5,27.4s8.9,13.9,8.8,21.5
	c-0.1,8.9-7.3,12.2-7.3,12.2H359.8z"/>
<path class="st29" d="M361.2,190.5c0,0-1.6-10.8,8.5-21.6c0,0-8.9,19.9-6,29.8C363.6,198.6,361.3,192.4,361.2,190.5z"/>
<radialGradient id="SVGID_20_" cx="475.3026" cy="356.4436" r="419.9643" gradientTransform="matrix(1 0 0 1.002 0 -0.7222)" gradientUnits="userSpaceOnUse">
	<stop  offset="3.968250e-03" style="stop-color:#000007"/>
	<stop  offset="0.2816" style="stop-color:#000003"/>
	<stop  offset="1" style="stop-color:#000000"/>
</radialGradient>
<rect x="0.2" y="0.1" class="st30" width="950.3" height="712.7"/>
<text transform="matrix(1 0 0 1 179.9577 168.8986)" class="st31 st32 st33">Web Development</text>
<rect x="280.4" y="288" class="st34" width="389.4" height="136.7"/>
<text transform="matrix(1 0 0 1 283.3413 301.8319)" class="st35"><tspan x="0" y="0" class="st36 st37 st38">Expand your reach and increase the visi</tspan><tspan x="376.4" y="0" class="st36 st37 st38">-</tspan><tspan x="17.1" y="22.4" class="st36 st37 st38">bility of your business through a cus</tspan><tspan x="359.3" y="22.4" class="st36 st37 st38">-</tspan><tspan x="7" y="44.8" class="st36 st37 st38">tome made website built from scartch!</tspan></text>
</svg>
