<?xml version="1.0" encoding="utf-8"?>
<!-- Generator: Adobe Illustrator 23.0.1, SVG Export Plug-In . SVG Version: 6.00 Build 0)  -->
<svg version="1.1" xmlns="http://www.w3.org/2000/svg" xmlns:xlink="http://www.w3.org/1999/xlink" x="0px" y="0px"
	 viewBox="0 0 800 600" style="enable-background:new 0 0 800 600;" xml:space="preserve">
<style type="text/css">
	.st0{display:none;}
	.st1{clip-path:url(#SVGID_2_);}
	.st2{fill:url(#SVGID_3_);}
	.st3{fill:#FCCAE5;}
	.st4{fill:#FFA3B1;}
	.st5{fill:#121729;}
	.st6{fill:url(#SVGID_4_);}
	.st7{fill:#FF71B8;}
	.st8{fill:url(#SVGID_5_);}
	.st9{fill:url(#SVGID_6_);}
	.st10{fill:url(#SVGID_7_);}
	.st11{fill:#FFBFA3;}
	.st12{fill:url(#SVGID_8_);}
	.st13{fill:#F2AC94;}
	.st14{fill:url(#SVGID_9_);}
	.st15{fill:url(#SVGID_10_);}
	.st16{fill:#FFFFFF;}
	.st17{opacity:0.5;}
	.st18{fill:#CC5C9A;}
	.st19{opacity:0.5;fill:#CC5C9A;}
	.st20{fill:#A878A1;}
	.st21{fill:url(#SVGID_11_);}
	.st22{fill:url(#SVGID_12_);}
	.st23{fill:url(#SVGID_13_);}
	.st24{fill:url(#SVGID_14_);}
	.st25{fill:url(#SVGID_15_);}
	.st26{clip-path:url(#SVGID_17_);}
	.st27{clip-path:url(#SVGID_19_);}
	.st28{fill:url(#SVGID_20_);}
	.st29{fill:url(#SVGID_21_);}
	.st30{fill:url(#SVGID_22_);}
	.st31{fill:url(#SVGID_23_);}
	.st32{fill:url(#SVGID_24_);}
</style>
<g id="Layer_2" class="st0">
</g>
<g id="Layer_4" class="st0">
</g>
<g id="Layer_3" class="st0">
</g>
<g id="Layer_5">
	<g>
		<defs>
			<path id="SVGID_1_" d="M781,600H19c-10.5,0-19-8.5-19-19V19C0,8.5,8.5,0,19,0h762c10.5,0,19,8.5,19,19v562
				C800,591.5,791.5,600,781,600z"/>
		</defs>
		<clipPath id="SVGID_2_">
			<use xlink:href="#SVGID_1_"  style="overflow:visible;"/>
		</clipPath>
		<g class="st1">
			<g>
				
					<linearGradient id="SVGID_3_" gradientUnits="userSpaceOnUse" x1="1056.2987" y1="241.1695" x2="1082.7369" y2="241.1695" gradientTransform="matrix(-0.9821 0.1887 0.1887 0.9821 1317.0651 -201.9293)">
					<stop  offset="0" style="stop-color:#FFA3B1"/>
					<stop  offset="1" style="stop-color:#FF71B8"/>
				</linearGradient>
				<path class="st2" d="M327.3,245.1c0,0-8-13.6-12.9-16.1c-4.9-2.4-11.8-4.2-15,2.3c-3.2,6.5,3,10.7,7.5,12.9
					C311.4,246.4,327.3,245.1,327.3,245.1z"/>
				<path class="st3" d="M338.4,254.9c0,0-12.7-4.9-17.5-4.1c-4.8,0.7-10.9,2.8-10,8.4c0.9,5.6,7.6,5.3,12,4.6
					C327.3,263.1,338.4,254.9,338.4,254.9z"/>
				<path class="st4" d="M337.3,254.5c0,0,5.6-12.4,5.1-17.3c-0.5-4.9-2.2-11-7.8-10.5c-5.6,0.5-5.7,7.2-5.3,11.7
					C329.8,243,337.3,254.5,337.3,254.5z"/>
				<g>
					<path class="st5" d="M354.9,273.2c0,0,0.9,0.2,0.9,0.2c0.4-0.3-0.3-1.1-0.6-1.5c-18.1-22.5-36.7-34.4-48.5-38.5
						c-0.5-0.2-0.9,0.1-1.1,0.5c-0.2,0.5,0.1,0.9,0.5,1.1c11.6,4,29.8,15.7,47.7,37.9C354.1,273.4,354.6,273.4,354.9,273.2z"/>
				</g>
				<g>
					<path class="st5" d="M338.3,254.5c-0.1,0.4-0.4,0.7-0.8,0.7c-11,1.2-18.6,3.9-18.6,3.9c-0.4,0.2-0.9-0.1-1.1-0.5
						c-0.2-0.4,0.1-0.9,0.5-1.1c0.3-0.1,7.8-2.9,19.1-4c0.5-0.1,0.9,0.3,1,0.8C338.3,254.3,338.3,254.4,338.3,254.5z"/>
				</g>
			</g>
			<g>
				<path class="st3" d="M547.3,235.9c0,0,3.6-15.2,7.6-18.9c3.9-3.7,10-7.4,14.9-2.1c4.9,5.2,0.2,11-3.4,14.4
					C562.6,232.6,547.3,235.9,547.3,235.9z"/>
				<path class="st4" d="M545.1,247.4c0,0,10.7-7.7,15.3-8c4.6-0.3,10.6,0.6,10.9,6.5c0.3,5.9-5.9,7-10.1,7.3
					C556.9,253.4,545.1,247.4,545.1,247.4z"/>
				
					<linearGradient id="SVGID_4_" gradientUnits="userSpaceOnUse" x1="890.9771" y1="417.3526" x2="884.5653" y2="442.9997" gradientTransform="matrix(-0.9988 5.030000e-02 5.030000e-02 0.9988 1401.7681 -237.3749)">
					<stop  offset="0" style="stop-color:#FFA3B1"/>
					<stop  offset="1" style="stop-color:#FF71B8"/>
				</linearGradient>
				<path class="st6" d="M537.3,246.8c0,0-10-11.2-10.8-16.4c-0.8-5.2-0.6-12,6.1-13.1c6.6-1.1,8.7,5.8,9.4,10.6
					C542.7,232.7,537.3,246.8,537.3,246.8z"/>
				<g>
					<g>
						<path class="st5" d="M528.1,275.6c0.4,0,0.7-0.3,0.8-0.7c5.3-26.3,14.2-34.8,18.4-38.9c0.3-0.3,0.7-0.6,0.9-0.9
							c0.6-0.7,1.4-1.4,2.2-2.2c3.4-3.6,8.1-8.4,11.4-9.6c0.5-0.2,0.7-0.6,0.5-1.1c-0.2-0.5-0.6-0.7-1.1-0.5
							c-3.7,1.3-8.4,6.1-12.1,10c-0.8,0.8-1.5,1.6-2.1,2.2c-0.3,0.3-0.6,0.6-0.9,0.9c-4.4,4.2-13.5,12.9-18.9,39.8
							c-0.1,0.5,0.2,0.9,0.7,1C527.9,275.6,528,275.6,528.1,275.6z"/>
					</g>
					<g>
						<path class="st5" d="M535.5,252c0.2,0,0.3-0.1,0.5-0.2c6.4-5.2,26.7-4.8,26.9-4.8c0.5,0,0.9-0.4,0.9-0.8
							c0-0.5-0.4-0.9-0.8-0.9c-0.9,0-21.1-0.5-28,5.2c-0.4,0.3-0.4,0.8-0.1,1.2C535,251.9,535.3,252,535.5,252z"/>
					</g>
				</g>
			</g>
			<g>
				<path class="st3" d="M699.3,496.3c0,0,2.4-17.9,6.5-22.6c4.1-4.7,10.6-9.6,16.9-4.2c6.2,5.5,1.5,12.6-2.3,16.9
					C716.6,490.7,699.3,496.3,699.3,496.3z"/>
				<path class="st7" d="M698.1,509.8c0,0,11.4-10.1,16.7-10.9c5.2-0.8,12.2-0.5,13.3,6.2c1.1,6.7-6,8.8-10.8,9.5
					C712.4,515.4,698.1,509.8,698.1,509.8z"/>
				<path class="st4" d="M683.9,528.4c0,0,12.1-9.3,17.4-9.8c5.3-0.5,12.2,0.3,12.8,7.1c0.6,6.8-6.5,8.4-11.4,8.8
					C697.9,534.9,683.9,528.4,683.9,528.4z"/>
				
					<linearGradient id="SVGID_5_" gradientUnits="userSpaceOnUse" x1="788.278" y1="706.1898" x2="780.864" y2="735.8459" gradientTransform="matrix(-0.9889 0.1487 0.1487 0.9889 1355.8931 -330.9715)">
					<stop  offset="0" style="stop-color:#FFA3B1"/>
					<stop  offset="1" style="stop-color:#FF71B8"/>
				</linearGradient>
				<path class="st8" d="M689.1,510c0,0-12.8-11.8-14.3-17.6c-1.6-5.9-2.1-13.8,5.5-15.8c7.5-2,10.6,5.7,12.1,11.1
					C693.7,493.1,689.1,510,689.1,510z"/>
				<g>
					<g>
						<path class="st5" d="M681.8,544.1c0.4-0.1,0.8-0.4,0.8-0.9c3.1-30.9,12.3-41.6,16.8-46.8c0.4-0.4,0.7-0.8,1-1.2
							c0.7-0.8,1.4-1.8,2.2-2.8c3.5-4.5,8.4-10.6,12.1-12.3c0.5-0.2,0.7-0.8,0.5-1.3c-0.2-0.5-0.8-0.7-1.3-0.5
							c-4.1,1.9-8.9,8-12.8,12.9c-0.8,1-1.5,2-2.2,2.8c-0.3,0.3-0.6,0.7-1,1.1c-4.6,5.3-14,16.4-17.2,47.9c-0.1,0.5,0.3,1,0.9,1.1
							C681.6,544.2,681.7,544.2,681.8,544.1z"/>
					</g>
					<g>
						<path class="st5" d="M689.3,511c0.5-0.1,0.9-0.6,0.8-1.1c-0.1-0.8-2.9-18.7-7-24.8c-0.3-0.5-0.9-0.6-1.4-0.3
							c-0.5,0.3-0.6,0.9-0.3,1.4c3.9,5.7,6.7,23.8,6.7,24C688.2,510.7,688.7,511.1,689.3,511C689.2,511,689.3,511,689.3,511z"/>
					</g>
					<g>
						<path class="st5" d="M687.6,516.2c0.2,0,0.4-0.1,0.5-0.3c6.8-6.7,30.2-8.5,30.4-8.6c0.5,0,1-0.5,0.9-1.1c0-0.6-0.5-1-1.1-0.9
							c-1,0.1-24.3,1.9-31.7,9.1c-0.4,0.4-0.4,1,0,1.4C687,516.1,687.3,516.2,687.6,516.2z"/>
					</g>
				</g>
			</g>
			<g>
				<path class="st3" d="M340.7,201c0,0-1.3-14.5-4.4-18.4c-3.1-3.9-8.2-8.1-13.4-4c-5.2,4.1-1.7,10.1,1.2,13.7
					C327,195.9,340.7,201,340.7,201z"/>
				
					<linearGradient id="SVGID_6_" gradientUnits="userSpaceOnUse" x1="319.3518" y1="209.4088" x2="344.4062" y2="209.4088" gradientTransform="matrix(0.9903 -0.1393 0.1393 0.9903 -25.8921 45.2338)">
					<stop  offset="0" style="stop-color:#FFA3B1"/>
					<stop  offset="1" style="stop-color:#FF71B8"/>
				</linearGradient>
				<path class="st9" d="M344.9,208.6c0,0-10.2-7.2-14.7-7.6c-4.5-0.4-10.3,0.1-10.8,5.2c-0.5,5.1,5.5,6.4,9.7,6.8
					C333.2,213.3,344.9,208.6,344.9,208.6z"/>
				<path class="st3" d="M345.7,208.6c0,0-1.3-12.4,0.5-16.5c1.8-4.1,5.1-9,9.8-6.9c4.7,2.1,2.9,8,1.3,11.7
					C355.5,200.7,345.7,208.6,345.7,208.6z"/>
				<g>
					<g>
						<path class="st5" d="M359.6,241c0.1,0,0.2,0,0.4,0c0.5-0.2,0.7-0.6,0.5-1.1c-7.2-21.6-14.1-31.8-19.2-39.2
							c-0.9-1.3-1.7-2.5-2.4-3.7c-5.1-7.9-8.3-12.5-11.9-15.4c-0.4-0.3-0.9-0.2-1.2,0.1c-0.3,0.4-0.2,0.9,0.1,1.2
							c3.4,2.7,6.5,7.2,11.5,14.9c0.8,1.2,1.6,2.4,2.5,3.7c5,7.3,11.8,17.4,19,38.8C359,240.7,359.3,240.9,359.6,241z"/>
					</g>
				</g>
				<g>
					<path class="st5" d="M324.2,206.2c0.1,0.4,0.4,0.6,0.8,0.6c11.1-0.1,18.9,1.8,19,1.8c0.5,0.1,0.9-0.2,1-0.6
						c0.1-0.5-0.2-0.9-0.6-1c-0.3-0.1-8.1-2-19.4-1.9c-0.5,0-0.9,0.4-0.9,0.9C324.2,206.1,324.2,206.1,324.2,206.2z"/>
				</g>
			</g>
			<g>
				<linearGradient id="SVGID_7_" gradientUnits="userSpaceOnUse" x1="190.178" y1="427.9317" x2="212.2247" y2="427.9317">
					<stop  offset="0" style="stop-color:#FFA3B1"/>
					<stop  offset="1" style="stop-color:#FF71B8"/>
				</linearGradient>
				<path class="st10" d="M212.2,442.4c0,0-0.2-16.8-3.4-21.6c-3.2-4.8-8.7-10.1-15.1-5.8c-6.4,4.3-2.8,11.4,0.1,15.9
					C196.9,435.3,212.2,442.4,212.2,442.4z"/>
				<path class="st3" d="M216.4,451.6c0,0-11.1-9.2-16.2-10.1c-5.1-0.9-11.9-0.9-12.9,5c-1,5.9,5.8,7.9,10.5,8.7
					C202.4,456,216.4,451.6,216.4,451.6z"/>
				<path class="st4" d="M217.2,451.7c0,0-0.4-14.5,2-19c2.4-4.6,6.6-9.9,11.9-7.1c5.3,2.8,2.6,9.4,0.4,13.7
					C229.3,443.4,217.2,451.7,217.2,451.7z"/>
				<g>
					<g>
						<path class="st5" d="M230.4,490.2c0.1,0,0.3,0,0.4,0c0.5-0.1,0.9-0.7,0.7-1.2c-6.4-25.6-13.4-37.9-18.6-47
							c-0.9-1.6-1.7-3-2.5-4.4c-5.2-9.6-8.5-15.1-12.3-18.8c-0.4-0.4-1-0.4-1.4,0c-0.4,0.4-0.4,1,0,1.4c3.6,3.5,6.9,8.9,11.9,18.3
							c0.8,1.4,1.6,2.9,2.5,4.5c5.1,8.9,12.1,21.1,18.4,46.5C229.7,489.9,230,490.2,230.4,490.2z"/>
					</g>
				</g>
				<g>
					<path class="st5" d="M217.3,452.6c0.4,0,0.9-0.2,1-0.6c4.9-11.8,10.5-19.3,10.6-19.3c0.3-0.4,0.2-1.1-0.2-1.4
						c-0.4-0.3-1.1-0.2-1.4,0.2c-0.2,0.3-5.8,7.7-10.8,19.8c-0.2,0.5,0,1.1,0.5,1.3C217.1,452.5,217.2,452.6,217.3,452.6z"/>
				</g>
			</g>
			<g>
				<g>
					<path class="st11" d="M200.8,486.1c0,0,32.5-32.7,36.9-45.1c1.9-5.3,3.1-27.9,16.4-60.5c13.2-32.6,24.1-65,34.9-71.3
						c10.8-6.3,50.9-49.6,56.8-35.4c5.9,14.2-7.8,53.5-29,56.9c0,0,1.8,29.3-0.1,43.2c16.2-12.5,74.5-47.3,74.5-47.3
						s42,2.6,37.6,35.4c0,0,38.2,14.4,35.8,45c0,0,18.8,17.2,15.9,37c-2.9,19.8-99.7,92.7-111.2,96.9c-11.6,4.2-36,3.6-44.5,9.1
						c-8.5,5.5-23.2,25.2-23.2,25.2L200.8,486.1z"/>
					<linearGradient id="SVGID_8_" gradientUnits="userSpaceOnUse" x1="184.6243" y1="778.2709" x2="170.2685" y2="571.3081">
						<stop  offset="0" style="stop-color:#FFA3B1"/>
						<stop  offset="1" style="stop-color:#FF71B8"/>
					</linearGradient>
					<polygon class="st12" points="328.7,564.3 201.3,467 20.6,703.7 147.9,800.9 					"/>
					<path class="st13" d="M384.7,342.2l-24,2.9c-6.4,4-13.2,8.2-19.5,12.2c-6,36.1-24.7,161-6.5,178.6c5.2,5.1,11.7,5.2,18.5,8
						c6.1-0.8,12-1.7,16.1-3.2c3.3-1.2,13.8-8.2,27-17.9L384.7,342.2z"/>
					<path class="st4" d="M303.4,582.5c0,4-3.3,7.3-7.3,7.3c-4,0-7.3-3.3-7.3-7.3c0-4,3.3-7.3,7.3-7.3
						C300.1,575.2,303.4,578.5,303.4,582.5z"/>
				</g>
				<path class="st11" d="M523.2,308.6l35.4-16.6c5.9-2.8,8.5-9.9,5.7-15.9l-5.1-10.8c-2.8-5.9-9.9-8.5-15.9-5.7L508,276.2
					c-5.9,2.8-8.5,9.9-5.7,15.9l5.1,10.8C510.1,308.9,517.3,311.4,523.2,308.6z"/>
			</g>
			<g>
				<linearGradient id="SVGID_9_" gradientUnits="userSpaceOnUse" x1="437.302" y1="216.1578" x2="437.302" y2="599.9374">
					<stop  offset="0" style="stop-color:#222222"/>
					<stop  offset="1" style="stop-color:#3A3A3A"/>
				</linearGradient>
				<path class="st14" d="M533.5,208.9V526c0,8.4-6.8,15.2-15.2,15.2h-162c-8.4,0-15.2-6.8-15.2-15.2V208.9
					c0-8.4,6.8-15.2,15.2-15.2h162C526.7,193.7,533.5,200.5,533.5,208.9z"/>
				<linearGradient id="SVGID_10_" gradientUnits="userSpaceOnUse" x1="437.302" y1="491.7095" x2="437.302" y2="225.8578">
					<stop  offset="0" style="stop-color:#FFE1F3"/>
					<stop  offset="1" style="stop-color:#FFF0F8"/>
				</linearGradient>
				<polygon class="st15" points="524.3,219.6 524.3,506 350.3,506 350.3,219.6 				"/>
				<g>
					<g>
						<rect x="368.9" y="473" class="st16" width="59.9" height="6.8"/>
					</g>
					<g>
						<rect x="368.9" y="449" class="st16" width="136.8" height="6.8"/>
					</g>
					<g>
						<rect x="368.9" y="425.1" class="st16" width="136.8" height="6.8"/>
					</g>
					<g>
						<rect x="368.9" y="401.2" class="st16" width="136.8" height="6.8"/>
					</g>
					<g>
						<rect x="368.9" y="377.3" class="st16" width="136.8" height="6.8"/>
					</g>
				</g>
				<path class="st16" d="M453.6,211.6h-34.2c-0.9,0-1.7-0.7-1.7-1.7v-1.7c0-0.9,0.7-1.7,1.7-1.7h34.2c0.9,0,1.7,0.7,1.7,1.7v1.7
					C455.3,210.9,454.5,211.6,453.6,211.6z"/>
				<g class="st17">
					<path class="st18" d="M533.5,318.5c-1.6,0.2-3.3,0.7-4.8,1.4l-17.1,8c-8.2,3.9-11.8,13.8-8,22l0.9,1.9c3.9,8.2,13.8,11.8,22,8
						l6.9-3.3V318.5z"/>
					<path class="st18" d="M533.5,361.5c-1.6,0.2-3.3,0.7-4.8,1.4l-17.1,8c-8.2,3.9-11.8,13.8-8,22l0.9,1.9c3.9,8.2,13.8,11.8,22,8
						l6.9-3.3V361.5z"/>
					<path class="st18" d="M533.5,440v-32.1c-3.3-0.9-7-0.6-10.3,1l-5.3,2.5c-7.6,3.6-11,12.8-7.4,20.4l0.8,1.7
						c3.6,7.6,12.8,11,20.4,7.4L533.5,440z"/>
				</g>
				<g>
					<path class="st19" d="M474.7,535c0.1,1.3,0.5,3.5,1.1,6.2h23.9C488.4,530.8,474.3,526.5,474.7,535z"/>
					<path class="st19" d="M506.3,541.2h5.7c11.8,0,21.5-9.7,21.5-21.5v-37.4c-5.6,4.7-7.8,11-7.8,11s-48.4-82.7-53.2-91
						c-4.7-8.3-15.8-14.8-24.5-10.1c-8.7,4.7-11,17.5-5.8,25.7C446.3,424.1,486.6,502.6,506.3,541.2z"/>
				</g>
				<path class="st16" d="M448.7,530.9h-22.7c-4.6,0-8.4-3.8-8.4-8.4l0,0c0-4.6,3.8-8.4,8.4-8.4h22.7c4.6,0,8.4,3.8,8.4,8.4l0,0
					C457,527.1,453.3,530.9,448.7,530.9z"/>
			</g>
			<g>
				<g>
					<path class="st7" d="M637.9,180.1c0-17.5-14.8-31.5-32.5-30.3c-14.9,1-27.1,13.1-28.1,28.1c-0.5,7,1.4,13.4,4.8,18.8
						c4.5,6.9,7.1,14.8,7.1,23.1v2.9h36.6v-2.9c0-8,2.3-15.9,6.8-22.5C635.9,192.3,637.9,186.4,637.9,180.1z"/>
					<g>
						<path class="st16" d="M609.3,223.1c-0.1,0-0.2,0-0.3,0c-0.6-0.2-0.9-0.8-0.7-1.4l12.8-42.6l-13.1,4.7c-0.2,0.1-0.5,0.1-0.7,0
							l-13.2-4.8l12.2,42.6c0.2,0.6-0.2,1.2-0.7,1.3c-0.6,0.2-1.2-0.2-1.3-0.7l-12.8-44.6c-0.1-0.4,0-0.8,0.3-1.1
							c0.3-0.3,0.7-0.4,1.1-0.2l14.8,5.3l14.8-5.3c0.4-0.1,0.8,0,1.1,0.2c0.3,0.3,0.4,0.7,0.3,1.1l-13.4,44.6
							C610.2,222.8,609.8,223.1,609.3,223.1z"/>
					</g>
					<path class="st5" d="M618.3,235.4h-21.5c-4.2,0-7.6-3.4-7.6-7.6v-7.6h36.6v7.6C625.8,232.1,622.4,235.4,618.3,235.4z"/>
					<path class="st5" d="M612.6,245.7h-10.2c-3.2,0-5.8-2.6-5.8-5.8v-9.3h21.9v9.3C618.5,243,615.9,245.7,612.6,245.7z"/>
				</g>
				<g>
					<g>
						<g>
							<path class="st18" d="M566.9,178.7h-15.4c-0.7,0-1.2-0.5-1.2-1.2c0-0.7,0.5-1.2,1.2-1.2h15.4c0.7,0,1.2,0.5,1.2,1.2
								C568.1,178.2,567.6,178.7,566.9,178.7z"/>
						</g>
						<g>
							<path class="st18" d="M573.7,164.4c-0.1,0-0.3,0-0.4-0.1l-12.7-5c-0.6-0.2-0.9-0.9-0.7-1.6c0.2-0.6,0.9-0.9,1.6-0.7l12.7,5
								c0.6,0.2,0.9,0.9,0.7,1.6C574.7,164.2,574.2,164.4,573.7,164.4z"/>
						</g>
						<g>
							<path class="st18" d="M580.5,150.2c-0.3,0-0.6-0.1-0.8-0.4l-9.9-9.9c-0.5-0.5-0.5-1.2,0-1.7c0.5-0.5,1.2-0.5,1.7,0l9.9,9.9
								c0.5,0.5,0.5,1.2,0,1.7C581.1,150.1,580.8,150.2,580.5,150.2z"/>
						</g>
						<g>
							<path class="st18" d="M594.1,144.7c-0.5,0-0.9-0.3-1.1-0.7l-5-12.1c-0.3-0.6,0-1.3,0.7-1.6c0.6-0.3,1.3,0,1.6,0.7l5,12.1
								c0.3,0.6,0,1.3-0.7,1.6C594.4,144.6,594.3,144.7,594.1,144.7z"/>
						</g>
						<g>
							<path class="st18" d="M607.8,139.1c-0.7,0-1.2-0.5-1.2-1.2v-14.3c0-0.7,0.5-1.2,1.2-1.2s1.2,0.5,1.2,1.2v14.3
								C609,138.6,608.4,139.1,607.8,139.1z"/>
						</g>
					</g>
					<g>
						<g>
							<path class="st18" d="M663.4,178.7H648c-0.7,0-1.2-0.5-1.2-1.2c0-0.7,0.5-1.2,1.2-1.2h15.4c0.7,0,1.2,0.5,1.2,1.2
								C664.6,178.2,664.1,178.7,663.4,178.7z"/>
						</g>
						<g>
							<path class="st18" d="M641.2,164.4c-0.5,0-0.9-0.3-1.1-0.8c-0.2-0.6,0.1-1.3,0.7-1.6l12.7-5c0.6-0.2,1.3,0.1,1.6,0.7
								c0.2,0.6-0.1,1.3-0.7,1.6l-12.7,5C641.5,164.4,641.4,164.4,641.2,164.4z"/>
						</g>
						<g>
							<path class="st18" d="M634.5,150.2c-0.3,0-0.6-0.1-0.8-0.4c-0.5-0.5-0.5-1.2,0-1.7l9.9-9.9c0.5-0.5,1.2-0.5,1.7,0
								c0.5,0.5,0.5,1.2,0,1.7l-9.9,9.9C635.1,150.1,634.8,150.2,634.5,150.2z"/>
						</g>
						<g>
							<path class="st18" d="M620.8,144.7c-0.2,0-0.3,0-0.5-0.1c-0.6-0.3-0.9-1-0.7-1.6l5-12.1c0.3-0.6,1-0.9,1.6-0.7
								c0.6,0.3,0.9,1,0.7,1.6l-5,12.1C621.8,144.4,621.3,144.7,620.8,144.7z"/>
						</g>
					</g>
				</g>
			</g>
			<g>
				<path class="st5" d="M501.7,191.3c0,0,9-72-63-72c-72.1,0-64.5,72-64.5,72l5.2-0.5c0,0-0.4-64.3,59.2-64.3
					c59.7,0,57.9,64.3,57.9,64.3L501.7,191.3z"/>
				<g>
					<path class="st5" d="M537.4,299.4c-20.3,0-48.6-8.2-49.9-8.6c-3.4-1-5.4-4.6-4.4-8c1-3.4,4.6-5.4,8-4.4
						c0.3,0.1,34.3,9.9,51.7,7.8c13.7-1.7,31.1-16.4,36.6-21.9c2.5-2.5,6.6-2.5,9.1,0c2.5,2.5,2.5,6.6,0,9.1
						c-0.9,0.9-23.3,23-44.1,25.5C542.1,299.3,539.8,299.4,537.4,299.4z"/>
				</g>
				<path class="st20" d="M477.3,248.2h-78.9c-8.7,0-15.9-7.1-15.9-15.9v-48.8c0-8.7,7.1-15.9,15.9-15.9h78.9
					c8.7,0,15.9,7.1,15.9,15.9v48.8C493.1,241.1,486,248.2,477.3,248.2z"/>
				<path class="st5" d="M495.2,284.7c0,8.2-6.6,14.8-14.8,14.8c-8.2,0-14.8-6.6-14.8-14.8c0-8.2,6.6-14.8,14.8-14.8
					C488.6,269.9,495.2,276.5,495.2,284.7z"/>
				<path class="st20" d="M477.1,341.2h-64.5c-13.4,0-24.4-11-24.4-24.4v-32.2c0-13.4,11-24.4,24.4-24.4H463
					c13.4,0,24.4,11,24.4,24.4v46.4C487.4,336.6,482.8,341.2,477.1,341.2z"/>
				<linearGradient id="SVGID_11_" gradientUnits="userSpaceOnUse" x1="439.4172" y1="258.2599" x2="439.4172" y2="326.8296">
					<stop  offset="0" style="stop-color:#121729"/>
					<stop  offset="1" style="stop-color:#A878A1"/>
				</linearGradient>
				<path class="st21" d="M458.4,341.9h-38.1c-6.9,0-12.5-5.6-12.5-12.5V295c0-6.9,5.6-12.5,12.5-12.5h38.1
					c6.9,0,12.5,5.6,12.5,12.5v34.3C471,336.3,465.4,341.9,458.4,341.9z"/>
				<path class="st5" d="M468.1,229.3h-60.5c-7.9,0-14.4-6.5-14.4-14.4l0,0c0-14.7,12-26.7,26.7-26.7h35.7c14.7,0,26.7,12,26.7,26.7
					l0,0C482.4,222.8,475.9,229.3,468.1,229.3z"/>
				<path class="st5" d="M498,230.3h-2.5c-1.3,0-2.4-1.1-2.4-2.4V188c0-1.3,1.1-2.4,2.4-2.4h2.5c1.3,0,2.4,1.1,2.4,2.4v39.9
					C500.5,229.2,499.4,230.3,498,230.3z"/>
				<path class="st5" d="M380.1,230.3h-2.5c-1.3,0-2.4-1.1-2.4-2.4V188c0-1.3,1.1-2.4,2.4-2.4h2.5c1.3,0,2.4,1.1,2.4,2.4v39.9
					C382.5,229.2,381.4,230.3,380.1,230.3z"/>
				<path class="st7" d="M506.3,226.1h-5.9v-36.4h5.9c4.6,0,8.3,3.7,8.3,8.3v19.8C514.6,222.4,510.9,226.1,506.3,226.1z"/>
				<linearGradient id="SVGID_12_" gradientUnits="userSpaceOnUse" x1="438.8145" y1="172.7586" x2="438.8145" y2="148.9948">
					<stop  offset="0" style="stop-color:#121729"/>
					<stop  offset="1" style="stop-color:#A878A1"/>
				</linearGradient>
				<path class="st22" d="M446.1,162.9v4.4c0,0.2-0.2,0.3-0.3,0.3h-13.9c-0.2,0-0.3-0.2-0.3-0.3v-4.4c0-2.5,2.1-4.6,4.6-4.6h5.3
					C444,158.3,446.1,160.4,446.1,162.9z"/>
				<path class="st7" d="M369.3,226.1h5.9v-36.4h-5.9c-4.6,0-8.3,3.7-8.3,8.3v19.8C361,222.4,364.7,226.1,369.3,226.1z"/>
				<linearGradient id="SVGID_13_" gradientUnits="userSpaceOnUse" x1="438.658" y1="172.7586" x2="438.658" y2="148.9947">
					<stop  offset="0" style="stop-color:#121729"/>
					<stop  offset="1" style="stop-color:#A878A1"/>
				</linearGradient>
				<path class="st23" d="M436.8,159.1c0,0,0.6-18.7,1.8-18.7c1.2,0,2,18.8,2,18.8L436.8,159.1z"/>
				<g>
					<ellipse class="st7" cx="414.3" cy="206.7" rx="3.3" ry="4.6"/>
					<path class="st7" d="M464.7,206.7c0,2.5-1.5,4.6-3.3,4.6c-1.8,0-3.3-2-3.3-4.6c0-2.5,1.5-4.6,3.3-4.6
						C463.2,202.2,464.7,204.2,464.7,206.7z"/>
				</g>
				<path class="st7" d="M447.5,219.1c0,3.7-4.3,6.7-9.7,6.7c-5.3,0-9.7-3-9.7-6.7H447.5z"/>
				<g>
					<path class="st5" d="M391.4,243.9c-3.7,0-6.8-1.2-9.1-3.6c-4.8-5-4.6-13.2-4.6-13.5l2.3,0.1c0,0.1-0.2,7.6,3.9,11.8
						c1.9,1.9,4.4,2.9,7.5,2.9c12.8,0,37.8-5.4,38.1-5.5l0.5,2.3C428.9,238.7,404.4,243.9,391.4,243.9z"/>
				</g>
				<path class="st5" d="M440.1,238.8l-10.3,1.3c-1.6,0.2-3-0.9-3.2-2.5l0,0c-0.2-1.6,0.9-3,2.5-3.2l10.3-1.3c1.6-0.2,3,0.9,3.2,2.5
					l0,0C442.8,237.2,441.6,238.6,440.1,238.8z"/>
				<rect x="430.9" y="248.2" class="st5" width="13.8" height="11.9"/>
				<rect x="430.9" y="253.3" class="st20" width="13.8" height="1.7"/>
				<path class="st5" d="M403,284.7c0,8.2-6.6,14.8-14.8,14.8c-8.2,0-14.8-6.6-14.8-14.8c0-8.2,6.6-14.8,14.8-14.8
					C396.4,269.9,403,276.5,403,284.7z"/>
				<g>
					<path class="st5" d="M459.8,319.4c-1.7,0.2-3.4,0.4-5.1,0.6c-0.8,1.4-1.7,2.7-2.8,3.9c0.4,1.7,0.8,3.3,1.1,4.9
						c-1.5,0.9-2.9,1.8-4.4,2.8c-1.3-1-2.6-2-4-3.1c-1.5,0.5-3.1,0.8-4.7,0.8c-0.9,1.4-1.8,2.9-2.7,4.3c-1.7-0.4-3.3-0.7-5.1-1.1
						c-0.2-1.7-0.4-3.4-0.6-5.1c-1.4-0.8-2.7-1.7-3.9-2.8c-1.7,0.4-3.3,0.8-4.9,1.1c-0.9-1.5-1.9-2.9-2.8-4.4c1-1.3,2-2.6,3.1-4
						c-0.5-1.5-0.8-3.1-0.8-4.7c-1.4-0.9-2.9-1.8-4.3-2.7c0.4-1.7,0.7-3.4,1.1-5.1c1.7-0.2,3.4-0.4,5.1-0.6c0.4-0.7,2.2-3.3,2.8-3.9
						c-0.4-1.7-0.8-3.3-1.1-4.9c1.5-0.9,2.9-1.8,4.4-2.8c1.3,1,2.6,2,4,3.1c1.5-0.5,3.1-0.8,4.7-0.8c0.9-1.4,1.8-2.9,2.7-4.3
						c1.7,0.4,3.3,0.7,5.1,1.1c0.2,1.7,0.4,3.4,0.6,5.1c0.7,0.4,3.3,2.2,3.9,2.8c1.6-0.4,3.3-0.8,4.9-1.1c0.9,1.5,1.9,2.9,2.8,4.4
						c-1,1.3-2.1,2.6-3.1,4c0.5,1.5,0.8,3.1,0.8,4.7c1.4,0.9,2.9,1.8,4.3,2.7C460.6,316,460.2,317.7,459.8,319.4z M447.8,314.1
						c1.1-4.6-1.9-9.3-6.5-10.3c-4.6-1.1-9.3,1.9-10.3,6.5c-1.1,4.6,1.9,9.3,6.5,10.3C442.1,321.7,446.8,318.7,447.8,314.1z"/>
				</g>
				<g>
					<path class="st5" d="M438.2,351.2c-12,0-25.7-1.5-36.8-6.9c-27.4-13.3-22.1-53.1-21.8-54.8c0.5-3.5,3.8-6,7.3-5.5
						c3.5,0.5,6,3.7,5.5,7.3l0,0c0,0.3-4.2,32.2,14.7,41.5c21.3,10.4,56.9,3.3,57.2,3.2c3.5-0.7,6.9,1.5,7.6,5
						c0.7,3.5-1.5,6.9-5,7.6C466,348.7,453.5,351.2,438.2,351.2z"/>
				</g>
				<linearGradient id="SVGID_14_" gradientUnits="userSpaceOnUse" x1="453.3573" y1="342.2313" x2="507.4393" y2="342.2313">
					<stop  offset="0" style="stop-color:#121729"/>
					<stop  offset="1" style="stop-color:#A878A1"/>
				</linearGradient>
				<path class="st24" d="M498.6,351.1h-36.4c-4.9,0-8.8-4-8.8-8.8l0,0c0-4.9,4-8.8,8.8-8.8h36.4c4.9,0,8.8,4,8.8,8.8l0,0
					C507.4,347.1,503.5,351.1,498.6,351.1z"/>
				<linearGradient id="SVGID_15_" gradientUnits="userSpaceOnUse" x1="580.369" y1="266.8312" x2="634.451" y2="266.8312">
					<stop  offset="0" style="stop-color:#121729"/>
					<stop  offset="1" style="stop-color:#A878A1"/>
				</linearGradient>
				<path class="st25" d="M625.6,275.7h-36.4c-4.9,0-8.8-4-8.8-8.8l0,0c0-4.9,4-8.8,8.8-8.8h36.4c4.9,0,8.8,4,8.8,8.8l0,0
					C634.5,271.7,630.5,275.7,625.6,275.7z"/>
				<g>
					<defs>
						<path id="SVGID_16_" d="M537.4,299.4c-20.3,0-48.6-8.2-49.9-8.6c-3.4-1-5.4-4.6-4.4-8c1-3.4,4.6-5.4,8-4.4
							c0.3,0.1,34.3,9.9,51.7,7.8c13.7-1.7,31.1-16.4,36.6-21.9c2.5-2.5,6.6-2.5,9.1,0c2.5,2.5,2.5,6.6,0,9.1
							c-0.9,0.9-23.3,23-44.1,25.5C542.1,299.3,539.8,299.4,537.4,299.4z"/>
					</defs>
					<clipPath id="SVGID_17_">
						<use xlink:href="#SVGID_16_"  style="overflow:visible;"/>
					</clipPath>
					<g class="st26">
						<g>
							
								<rect x="489.1" y="286.9" transform="matrix(0.2393 -0.9709 0.9709 0.2393 99.6845 702.644)" class="st20" width="18.3" height="1.6"/>
						</g>
						<g>
							
								<rect x="503.6" y="289" transform="matrix(0.1222 -0.9925 0.9925 0.1222 162.4668 763.3889)" class="st20" width="18.3" height="1.6"/>
						</g>
						<g>
							
								<rect x="518.1" y="291.2" transform="matrix(3.950457e-03 -1 1 3.950457e-03 233.2338 818.1483)" class="st20" width="18.5" height="1.6"/>
						</g>
						<g>
							
								<rect x="541" y="284.7" transform="matrix(0.994 -0.1095 0.1095 0.994 -28.9387 61.0714)" class="st20" width="1.6" height="19"/>
						</g>
						<g>
							
								<rect x="554.8" y="280.1" transform="matrix(0.9537 -0.3009 0.3009 0.9537 -61.2284 180.5579)" class="st20" width="1.6" height="17.9"/>
						</g>
						<g>
							
								<rect x="567.3" y="273.4" transform="matrix(0.8688 -0.4952 0.4952 0.8688 -65.1823 318.4016)" class="st20" width="1.6" height="17.5"/>
						</g>
						<g>
							
								<rect x="578.8" y="264.5" transform="matrix(0.7455 -0.6665 0.6665 0.7455 -34.8037 455.9051)" class="st20" width="1.6" height="18"/>
						</g>
					</g>
				</g>
				<g>
					<defs>
						<path id="SVGID_18_" d="M438.2,351.2c-12,0-25.7-1.5-36.8-6.9c-27.4-13.3-22.1-53.1-21.8-54.8c0.5-3.5,3.8-6,7.3-5.5
							c3.5,0.5,6,3.7,5.5,7.3l0,0c0,0.3-4.2,32.2,14.7,41.5c21.3,10.4,56.9,3.3,57.2,3.2c3.5-0.7,6.9,1.5,7.6,5
							c0.7,3.5-1.5,6.9-5,7.6C466,348.7,453.5,351.2,438.2,351.2z"/>
					</defs>
					<clipPath id="SVGID_19_">
						<use xlink:href="#SVGID_18_"  style="overflow:visible;"/>
					</clipPath>
					<g class="st27">
						<g>
							
								<rect x="376.3" y="299.9" transform="matrix(0.9985 -5.533381e-02 5.533381e-02 0.9985 -16.0471 21.7914)" class="st20" width="18.3" height="1.6"/>
						</g>
						<g>
							
								<rect x="379.7" y="314.3" transform="matrix(0.9406 -0.3394 0.3394 0.9406 -83.8919 150.4509)" class="st20" width="17" height="1.6"/>
						</g>
						<g>
							
								<rect x="384.6" y="328.2" transform="matrix(0.792 -0.6105 0.6105 0.792 -119.0477 308.4556)" class="st20" width="17.2" height="1.6"/>
						</g>
						<g>
							
								<rect x="393.5" y="337.7" transform="matrix(0.5957 -0.8032 0.8032 0.5957 -108.9479 460.5502)" class="st20" width="19" height="1.6"/>
						</g>
						<g>
							
								<rect x="409.4" y="341.4" transform="matrix(0.382 -0.9242 0.9242 0.382 -57.9129 597.8597)" class="st20" width="17.4" height="1.6"/>
						</g>
						<g>
							
								<rect x="425.5" y="344" transform="matrix(0.1181 -0.993 0.993 0.1181 40.4029 735.0197)" class="st20" width="17" height="1.6"/>
						</g>
						<g>
							
								<rect x="447.4" y="335.8" transform="matrix(0.9892 -0.1469 0.1469 0.9892 -45.7847 69.5847)" class="st20" width="1.6" height="18"/>
						</g>
					</g>
				</g>
			</g>
			<g>
				<path class="st11" d="M529.4,357l25.8-12.1c5.8-2.7,8.4-9.8,5.6-15.6l-5-10.6c-2.7-5.8-9.8-8.4-15.6-5.6l-25.8,12.1
					c-5.8,2.7-8.4,9.8-5.6,15.6l5,10.6C516.5,357.2,523.6,359.7,529.4,357z"/>
				<path class="st11" d="M529.4,400l25.8-12.1c5.8-2.7,8.4-9.8,5.6-15.6l-5-10.6c-2.7-5.8-9.8-8.4-15.6-5.6l-25.8,12.1
					c-5.8,2.7-8.4,9.8-5.6,15.6l5,10.6C516.5,400.2,523.6,402.8,529.4,400z"/>
				<path class="st11" d="M534.9,438l13.4-6.3c5.4-2.5,7.8-9.1,5.2-14.5l-4.6-9.8c-2.5-5.4-9.1-7.8-14.5-5.2l-13.4,6.3
					c-5.4,2.5-7.8,9.1-5.2,14.5l4.6,9.8C522.9,438.1,529.4,440.5,534.9,438z"/>
			</g>
			<g>
				<path class="st11" d="M624.4,717.5c0,0-20.2-39.8-30.4-47.6c-10.1-7.8-75.4-45.6-84.1-60.4c0,0-26.9-67.7-27.9-79.2
					c-1-11.5,25.7-0.5,36,18.3c10.3,18.8,7.5,7.5,7.5,7.5s-74.7-133.6-80.3-141.5c-5.6-8-3.8-20.9,4.8-25.9c8.5-5,19.8,1,24.9,9.2
					c5,8.2,56.6,88.9,56.6,88.9s8.3-26.7,37.2-12.8c0,0,7.6-23.9,35-12.5c0,0,16.6-18.2,33.9-9.5c17.3,8.6,66.8,102.8,67.2,114.7
					c0.4,11.9,1.6,25.1,4.1,34.6c2.5,9.5,27.9,50.5,27.9,50.5L624.4,717.5z"/>
				<linearGradient id="SVGID_20_" gradientUnits="userSpaceOnUse" x1="705.0681" y1="741.8388" x2="690.7123" y2="534.876">
					<stop  offset="0" style="stop-color:#FFA3B1"/>
					<stop  offset="1" style="stop-color:#FF71B8"/>
				</linearGradient>
				<polygon class="st28" points="726.3,610.8 593.4,688.7 681.5,839 814.4,761.2 				"/>
			</g>
		</g>
	</g>
	<linearGradient id="SVGID_21_" gradientUnits="userSpaceOnUse" x1="687.9933" y1="273.8304" x2="687.9933" y2="351.3084">
		<stop  offset="0" style="stop-color:#FFB0DF"/>
		<stop  offset="1" style="stop-color:#FFD9FF"/>
	</linearGradient>
	<path class="st29" d="M659.5,318.2c0-7.3,5.6-12.5,12.5-12.5c2.1,0,4,0.5,5.8,1.4c2.2-3.4,6.1-5.6,10.4-5.6
		c5.9,0,10.9,4.1,12.2,9.7c1.7-1.2,3.7-1.8,5.8-1.8c5.6,0,10.2,3.7,10.2,11c0,7.3-3.9,9.9-8.8,9.9c0,0-38.1,0.4-39.3,0
		C663.9,330,659.5,325.5,659.5,318.2z"/>
	<linearGradient id="SVGID_22_" gradientUnits="userSpaceOnUse" x1="512.5806" y1="-42.3596" x2="512.5806" y2="65.331">
		<stop  offset="0" style="stop-color:#FFB0DF"/>
		<stop  offset="1" style="stop-color:#FFD9FF"/>
	</linearGradient>
	<path class="st30" d="M479.8,36.5c0-8.4,6.5-14.4,14.4-14.4c2.4,0,4.6,0.6,6.6,1.6c2.6-3.9,7-6.4,12-6.4c6.8,0,12.6,4.8,14.1,11.1
		c1.9-1.3,4.2-2.1,6.7-2.1c6.5,0,11.7,4.2,11.7,12.6c0,8.4-4.5,11.4-10.1,11.4c0,0-43.9,0.4-45.3,0C484.8,50.1,479.8,45,479.8,36.5z
		"/>
	<linearGradient id="SVGID_23_" gradientUnits="userSpaceOnUse" x1="234.406" y1="107.0613" x2="234.406" y2="214.7521">
		<stop  offset="0" style="stop-color:#FFB0DF"/>
		<stop  offset="1" style="stop-color:#FFD9FF"/>
	</linearGradient>
	<path class="st31" d="M262.8,159.9c0-7.3-5.6-12.5-12.5-12.5c-2.1,0-4,0.5-5.7,1.4c-2.2-3.4-6.1-5.6-10.4-5.6
		c-5.9,0-10.9,4.1-12.2,9.6c-1.6-1.1-3.6-1.8-5.8-1.8c-5.6,0-10.2,3.6-10.2,10.9c0,7.3,3.9,9.9,8.7,9.9c0,0,38,0.4,39.2,0
		C258.4,171.6,262.8,167.2,262.8,159.9z"/>
	<linearGradient id="SVGID_24_" gradientUnits="userSpaceOnUse" x1="595.9545" y1="13.9705" x2="595.9545" y2="73.977">
		<stop  offset="0" style="stop-color:#EAB5D5"/>
		<stop  offset="1" style="stop-color:#FFD9FF"/>
	</linearGradient>
	<path class="st32" d="M615.8,55.3c0-5.1-4.2-13.3-13.4-13.3c-9.3,0-14.3,4.5-15.2,8.3c-1.2-0.8-2.6-1.3-4.1-1.3
		c-3.9,0-7.1,2.6-7.1,7.7c0,5.1,2.8,6.9,6.1,6.9c0,0,26.6,0.2,27.4,0C612.8,63.6,615.8,60.5,615.8,55.3z"/>
</g>
</svg>
